{
.appVersion = "1342";
DisplayStrings = (

glyphs = (
{
glyphname = A;
lastChange = "2020-11-15 18:01:14 +0000";
layers = (
{
layerId = "A98666DC-4638-42B6-8332-BBF4982DF0EF";
paths = (
{
closed = 1;
nodes = (
"129 700 LINE",
"82 700 LINE",
"20 0 LINE",
"66 0 LINE"
);
},
{
closed = 1;
nodes = (
"74 700 LINE",
"64 647 LINE",
"189 647 LINE",
"189 700 LINE"
);
},
{
closed = 1;
nodes = (
"54 194 LINE",
"54 141 LINE",
"229 141 LINE",
"229 194 LINE"
);
},
{
closed = 1;
nodes = (
"259 0 LINE",
"197 700 LINE",
"150 700 LINE",
"213 0 LINE"
);
}
);
width = 279;
},
{
layerId = "83682BA5-5A7B-4081-8B26-D550B6F33EEB";
paths = (
{
closed = 1;
nodes = (
"301 0 LINE",
"239 700 LINE",
"143 700 LINE",
"206 0 LINE"
);
},
{
closed = 1;
nodes = (
"168 700 LINE",
"72 700 LINE",
"10 0 LINE",
"105 0 LINE"
);
},
{
closed = 1;
nodes = (
"41 213 LINE",
"41 120 LINE",
"270 120 LINE",
"270 213 LINE"
);
},
{
closed = 1;
nodes = (
"87 700 LINE",
"87 607 LINE",
"214 607 LINE",
"214 700 LINE"
);
},
{
closed = 1;
nodes = (
"56 700 LINE",
"46 607 LINE",
"156 607 LINE",
"156 700 LINE"
);
}
);
width = 311;
},
{
layerId = "E6A807D2-02F5-45B7-9AC8-B5230FFEC057";
paths = (
{
closed = 1;
nodes = (
"91 233 LINE",
"91 100 LINE",
"320 100 LINE",
"320 233 LINE"
);
},
{
closed = 1;
nodes = (
"76 700 LINE",
"62 567 LINE",
"308 567 LINE",
"308 700 LINE"
);
},
{
closed = 1;
nodes = (
"135 0 LINE",
"224 624 LINE",
"188 624 LINE",
"277 0 LINE",
"412 0 LINE",
"309 700 LINE",
"103 700 LINE",
"0 0 LINE"
);
}
);
width = 411;
},
{
associatedMasterId = "83682BA5-5A7B-4081-8B26-D550B6F33EEB";
layerId = "40879A11-F399-4F61-9DB9-6FC9D88B6A0F";
name = "Oct 27 20, 21:37";
paths = (
{
closed = 1;
nodes = (
"40 93 LINE",
"20 0 LINE",
"150 0 LINE",
"150 93 LINE"
);
},
{
closed = 1;
nodes = (
"228 93 LINE",
"208 0 LINE",
"338 0 LINE",
"338 93 LINE"
);
},
{
closed = 1;
nodes = (
"55 0 LINE",
"150 0 LINE",
"150 362 LINE",
"55 362 LINE"
);
},
{
closed = 1;
nodes = (
"165 507 LINE",
"251 507 LINE",
"207 549 LINE",
"207 0 LINE",
"302 0 LINE",
"302 507 LINE SMOOTH",
"302 563 OFFCURVE",
"264 600 OFFCURVE",
"208 600 CURVE SMOOTH",
"165 600 LINE"
);
},
{
closed = 1;
nodes = (
"55 300 LINE",
"55 207 LINE",
"302 207 LINE",
"302 300 LINE"
);
},
{
closed = 1;
nodes = (
"149 600 LINE SMOOTH",
"93 600 OFFCURVE",
"55 563 OFFCURVE",
"55 507 CURVE SMOOTH",
"55 300 LINE",
"150 300 LINE",
"150 549 LINE",
"106 507 LINE",
"197 507 LINE",
"197 600 LINE"
);
},
{
closed = 1;
nodes = (
"40 300 LINE",
"20 207 LINE",
"150 207 LINE",
"150 300 LINE"
);
}
);
width = 358;
},
{
associatedMasterId = "E6A807D2-02F5-45B7-9AC8-B5230FFEC057";
layerId = "F32357F8-4741-4363-9411-3D2472D6D7E7";
name = "Nov 5 20, 00:15";
paths = (
{
closed = 1;
nodes = (
"381 0 LINE",
"319 700 LINE",
"183 700 LINE",
"246 0 LINE"
);
},
{
closed = 1;
nodes = (
"228 700 LINE",
"92 700 LINE",
"30 0 LINE",
"165 0 LINE"
);
},
{
closed = 1;
nodes = (
"91 233 LINE",
"91 100 LINE",
"320 100 LINE",
"320 233 LINE"
);
},
{
closed = 1;
nodes = (
"76 700 LINE",
"62 567 LINE",
"308 567 LINE",
"308 700 LINE"
);
}
);
width = 411;
}
);
unicode = 0041;
},
{
glyphname = Aacute;
lastChange = "2020-11-22 21:59:27 +0000";
layers = (
{
layerId = "A98666DC-4638-42B6-8332-BBF4982DF0EF";
paths = (
{
closed = 1;
nodes = (
"123 721 LINE",
"163 721 LINE",
"190 801 LINE",
"150 801 LINE"
);
},
{
closed = 1;
nodes = (
"129 700 LINE",
"82 700 LINE",
"20 0 LINE",
"66 0 LINE"
);
},
{
closed = 1;
nodes = (
"74 700 LINE",
"64 647 LINE",
"189 647 LINE",
"189 700 LINE"
);
},
{
closed = 1;
nodes = (
"54 194 LINE",
"54 141 LINE",
"229 141 LINE",
"229 194 LINE"
);
},
{
closed = 1;
nodes = (
"259 0 LINE",
"197 700 LINE",
"150 700 LINE",
"213 0 LINE"
);
}
);
width = 279;
},
{
layerId = "83682BA5-5A7B-4081-8B26-D550B6F33EEB";
paths = (
{
closed = 1;
nodes = (
"127 720 LINE",
"207 720 LINE",
"234 800 LINE",
"154 800 LINE"
);
},
{
closed = 1;
nodes = (
"311 0 LINE",
"249 700 LINE",
"153 700 LINE",
"216 0 LINE"
);
},
{
closed = 1;
nodes = (
"178 700 LINE",
"82 700 LINE",
"20 0 LINE",
"115 0 LINE"
);
},
{
closed = 1;
nodes = (
"51 213 LINE",
"51 120 LINE",
"280 120 LINE",
"280 213 LINE"
);
},
{
closed = 1;
nodes = (
"97 700 LINE",
"97 607 LINE",
"224 607 LINE",
"224 700 LINE"
);
},
{
closed = 1;
nodes = (
"66 700 LINE",
"56 607 LINE",
"166 607 LINE",
"166 700 LINE"
);
}
);
width = 331;
},
{
layerId = "E6A807D2-02F5-45B7-9AC8-B5230FFEC057";
paths = (
{
closed = 1;
nodes = (
"111 233 LINE",
"111 100 LINE",
"340 100 LINE",
"340 233 LINE"
);
},
{
closed = 1;
nodes = (
"96 700 LINE",
"82 567 LINE",
"328 567 LINE",
"328 700 LINE"
);
},
{
closed = 1;
nodes = (
"155 0 LINE",
"244 624 LINE",
"208 624 LINE",
"297 0 LINE",
"432 0 LINE",
"329 700 LINE",
"123 700 LINE",
"20 0 LINE"
);
},
{
closed = 1;
nodes = (
"111 233 LINE",
"111 100 LINE",
"340 100 LINE",
"340 233 LINE"
);
},
{
closed = 1;
nodes = (
"96 700 LINE",
"82 567 LINE",
"328 567 LINE",
"328 700 LINE"
);
},
{
closed = 1;
nodes = (
"155 0 LINE",
"244 624 LINE",
"208 624 LINE",
"297 0 LINE",
"432 0 LINE",
"329 700 LINE",
"123 700 LINE",
"20 0 LINE"
);
},
{
closed = 1;
nodes = (
"153 720 LINE",
"260 720 LINE",
"296 826 LINE",
"189 826 LINE"
);
}
);
width = 452;
}
);
unicode = 00C1;
},
{
glyphname = Acircumflex;
lastChange = "2020-11-22 21:56:40 +0000";
layers = (
{
layerId = "A98666DC-4638-42B6-8332-BBF4982DF0EF";
paths = (
{
closed = 1;
nodes = (
"83 740 LINE",
"123 740 LINE",
"150 800 LINE",
"110 800 LINE"
);
},
{
closed = 1;
nodes = (
"123 800 LINE",
"150 740 LINE",
"190 740 LINE",
"163 800 LINE"
);
},
{
closed = 1;
nodes = (
"129 700 LINE",
"82 700 LINE",
"20 0 LINE",
"66 0 LINE"
);
},
{
closed = 1;
nodes = (
"74 700 LINE",
"64 647 LINE",
"189 647 LINE",
"189 700 LINE"
);
},
{
closed = 1;
nodes = (
"54 194 LINE",
"54 141 LINE",
"229 141 LINE",
"229 194 LINE"
);
},
{
closed = 1;
nodes = (
"259 0 LINE",
"197 700 LINE",
"150 700 LINE",
"213 0 LINE"
);
}
);
width = 279;
},
{
layerId = "83682BA5-5A7B-4081-8B26-D550B6F33EEB";
paths = (
{
closed = 1;
nodes = (
"85 730 LINE",
"145 730 LINE",
"177 800 LINE",
"117 800 LINE"
);
},
{
closed = 1;
nodes = (
"140 800 LINE",
"172 730 LINE",
"232 730 LINE",
"200 800 LINE"
);
},
{
closed = 1;
nodes = (
"311 0 LINE",
"249 700 LINE",
"153 700 LINE",
"216 0 LINE"
);
},
{
closed = 1;
nodes = (
"178 700 LINE",
"82 700 LINE",
"20 0 LINE",
"115 0 LINE"
);
},
{
closed = 1;
nodes = (
"51 213 LINE",
"51 120 LINE",
"280 120 LINE",
"280 213 LINE"
);
},
{
closed = 1;
nodes = (
"97 700 LINE",
"97 607 LINE",
"224 607 LINE",
"224 700 LINE"
);
},
{
closed = 1;
nodes = (
"66 700 LINE",
"56 607 LINE",
"166 607 LINE",
"166 700 LINE"
);
}
);
width = 331;
},
{
layerId = "E6A807D2-02F5-45B7-9AC8-B5230FFEC057";
paths = (
{
closed = 1;
nodes = (
"111 233 LINE",
"111 100 LINE",
"340 100 LINE",
"340 233 LINE"
);
},
{
closed = 1;
nodes = (
"96 700 LINE",
"82 567 LINE",
"328 567 LINE",
"328 700 LINE"
);
},
{
closed = 1;
nodes = (
"155 0 LINE",
"244 624 LINE",
"208 624 LINE",
"297 0 LINE",
"432 0 LINE",
"329 700 LINE",
"123 700 LINE",
"20 0 LINE"
);
},
{
closed = 1;
nodes = (
"111 233 LINE",
"111 100 LINE",
"340 100 LINE",
"340 233 LINE"
);
},
{
closed = 1;
nodes = (
"96 700 LINE",
"82 567 LINE",
"328 567 LINE",
"328 700 LINE"
);
},
{
closed = 1;
nodes = (
"155 0 LINE",
"244 624 LINE",
"208 624 LINE",
"297 0 LINE",
"432 0 LINE",
"329 700 LINE",
"123 700 LINE",
"20 0 LINE"
);
},
{
closed = 1;
nodes = (
"116 730 LINE",
"196 730 LINE",
"238 824 LINE",
"158 824 LINE"
);
},
{
closed = 1;
nodes = (
"189 824 LINE",
"231 730 LINE",
"311 730 LINE",
"269 824 LINE"
);
}
);
width = 452;
}
);
unicode = 00C2;
},
{
glyphname = Adieresis;
lastChange = "2020-11-22 22:00:31 +0000";
layers = (
{
layerId = "A98666DC-4638-42B6-8332-BBF4982DF0EF";
paths = (
{
closed = 1;
nodes = (
"75 747 LINE",
"128 747 LINE",
"128 800 LINE",
"75 800 LINE"
);
},
{
closed = 1;
nodes = (
"143 747 LINE",
"196 747 LINE",
"196 800 LINE",
"143 800 LINE"
);
},
{
closed = 1;
nodes = (
"129 700 LINE",
"82 700 LINE",
"20 0 LINE",
"66 0 LINE"
);
},
{
closed = 1;
nodes = (
"74 700 LINE",
"64 647 LINE",
"189 647 LINE",
"189 700 LINE"
);
},
{
closed = 1;
nodes = (
"54 194 LINE",
"54 141 LINE",
"229 141 LINE",
"229 194 LINE"
);
},
{
closed = 1;
nodes = (
"259 0 LINE",
"197 700 LINE",
"150 700 LINE",
"213 0 LINE"
);
}
);
width = 279;
},
{
layerId = "83682BA5-5A7B-4081-8B26-D550B6F33EEB";
paths = (
{
closed = 1;
nodes = (
"81 727 LINE",
"154 727 LINE",
"154 800 LINE",
"81 800 LINE"
);
},
{
closed = 1;
nodes = (
"169 727 LINE",
"242 727 LINE",
"242 800 LINE",
"169 800 LINE"
);
},
{
closed = 1;
nodes = (
"311 0 LINE",
"249 700 LINE",
"153 700 LINE",
"216 0 LINE"
);
},
{
closed = 1;
nodes = (
"178 700 LINE",
"82 700 LINE",
"20 0 LINE",
"115 0 LINE"
);
},
{
closed = 1;
nodes = (
"51 213 LINE",
"51 120 LINE",
"280 120 LINE",
"280 213 LINE"
);
},
{
closed = 1;
nodes = (
"97 700 LINE",
"97 607 LINE",
"224 607 LINE",
"224 700 LINE"
);
},
{
closed = 1;
nodes = (
"66 700 LINE",
"56 607 LINE",
"166 607 LINE",
"166 700 LINE"
);
}
);
width = 331;
},
{
layerId = "E6A807D2-02F5-45B7-9AC8-B5230FFEC057";
paths = (
{
closed = 1;
nodes = (
"111 233 LINE",
"111 100 LINE",
"340 100 LINE",
"340 233 LINE"
);
},
{
closed = 1;
nodes = (
"96 700 LINE",
"82 567 LINE",
"328 567 LINE",
"328 700 LINE"
);
},
{
closed = 1;
nodes = (
"155 0 LINE",
"244 624 LINE",
"208 624 LINE",
"297 0 LINE",
"432 0 LINE",
"329 700 LINE",
"123 700 LINE",
"20 0 LINE"
);
},
{
closed = 1;
nodes = (
"110 720 LINE",
"208 720 LINE",
"208 817 LINE",
"110 817 LINE"
);
},
{
closed = 1;
nodes = (
"227 720 LINE",
"325 720 LINE",
"325 817 LINE",
"227 817 LINE"
);
}
);
width = 452;
}
);
unicode = 00C4;
},
{
glyphname = Agrave;
lastChange = "2020-11-22 21:59:05 +0000";
layers = (
{
layerId = "A98666DC-4638-42B6-8332-BBF4982DF0EF";
paths = (
{
closed = 1;
nodes = (
"89 800 LINE",
"116 720 LINE",
"156 720 LINE",
"129 800 LINE"
);
},
{
closed = 1;
nodes = (
"129 700 LINE",
"82 700 LINE",
"20 0 LINE",
"66 0 LINE"
);
},
{
closed = 1;
nodes = (
"74 700 LINE",
"64 647 LINE",
"189 647 LINE",
"189 700 LINE"
);
},
{
closed = 1;
nodes = (
"54 194 LINE",
"54 141 LINE",
"229 141 LINE",
"229 194 LINE"
);
},
{
closed = 1;
nodes = (
"259 0 LINE",
"197 700 LINE",
"150 700 LINE",
"213 0 LINE"
);
}
);
width = 279;
},
{
layerId = "83682BA5-5A7B-4081-8B26-D550B6F33EEB";
paths = (
{
closed = 1;
nodes = (
"117 800 LINE",
"144 720 LINE",
"224 720 LINE",
"197 800 LINE"
);
},
{
closed = 1;
nodes = (
"331 0 LINE",
"269 700 LINE",
"173 700 LINE",
"236 0 LINE"
);
},
{
closed = 1;
nodes = (
"198 700 LINE",
"102 700 LINE",
"40 0 LINE",
"135 0 LINE"
);
},
{
closed = 1;
nodes = (
"71 213 LINE",
"71 120 LINE",
"300 120 LINE",
"300 213 LINE"
);
},
{
closed = 1;
nodes = (
"117 700 LINE",
"117 607 LINE",
"244 607 LINE",
"244 700 LINE"
);
},
{
closed = 1;
nodes = (
"86 700 LINE",
"76 607 LINE",
"186 607 LINE",
"186 700 LINE"
);
}
);
width = 351;
},
{
components = (
{
name = A;
transform = "{1, 0, 0, 1, 20, 0}";
}
);
layerId = "E6A807D2-02F5-45B7-9AC8-B5230FFEC057";
paths = (
{
closed = 1;
nodes = (
"111 233 LINE",
"111 100 LINE",
"340 100 LINE",
"340 233 LINE"
);
},
{
closed = 1;
nodes = (
"96 700 LINE",
"82 567 LINE",
"328 567 LINE",
"328 700 LINE"
);
},
{
closed = 1;
nodes = (
"155 0 LINE",
"244 624 LINE",
"208 624 LINE",
"297 0 LINE",
"432 0 LINE",
"329 700 LINE",
"123 700 LINE",
"20 0 LINE"
);
},
{
closed = 1;
nodes = (
"111 233 LINE",
"111 100 LINE",
"340 100 LINE",
"340 233 LINE"
);
},
{
closed = 1;
nodes = (
"96 700 LINE",
"82 567 LINE",
"328 567 LINE",
"328 700 LINE"
);
},
{
closed = 1;
nodes = (
"155 0 LINE",
"244 624 LINE",
"208 624 LINE",
"297 0 LINE",
"432 0 LINE",
"329 700 LINE",
"123 700 LINE",
"20 0 LINE"
);
},
{
closed = 1;
nodes = (
"130 826 LINE",
"166 720 LINE",
"273 720 LINE",
"237 826 LINE"
);
}
);
width = 452;
}
);
unicode = 00C0;
},
{
glyphname = Aring;
lastChange = "2020-11-22 22:00:20 +0000";
layers = (
{
layerId = "A98666DC-4638-42B6-8332-BBF4982DF0EF";
paths = (
{
closed = 1;
nodes = (
"168 715 OFFCURVE",
"190 736 OFFCURVE",
"190 768 CURVE SMOOTH",
"190 800 OFFCURVE",
"168 822 OFFCURVE",
"135 822 CURVE SMOOTH",
"103 822 OFFCURVE",
"81 800 OFFCURVE",
"81 768 CURVE SMOOTH",
"81 736 OFFCURVE",
"103 715 OFFCURVE",
"135 715 CURVE SMOOTH"
);
},
{
closed = 1;
nodes = (
"121 742 OFFCURVE",
"111 752 OFFCURVE",
"111 768 CURVE SMOOTH",
"111 784 OFFCURVE",
"121 795 OFFCURVE",
"135 795 CURVE SMOOTH",
"150 795 OFFCURVE",
"160 784 OFFCURVE",
"160 768 CURVE SMOOTH",
"160 752 OFFCURVE",
"150 742 OFFCURVE",
"135 742 CURVE SMOOTH"
);
},
{
closed = 1;
nodes = (
"129 700 LINE",
"82 700 LINE",
"20 0 LINE",
"66 0 LINE"
);
},
{
closed = 1;
nodes = (
"74 700 LINE",
"64 647 LINE",
"197 647 LINE",
"197 700 LINE"
);
},
{
closed = 1;
nodes = (
"54 194 LINE",
"54 141 LINE",
"229 141 LINE",
"229 194 LINE"
);
},
{
closed = 1;
nodes = (
"259 0 LINE",
"197 700 LINE",
"150 700 LINE",
"213 0 LINE"
);
}
);
width = 279;
},
{
layerId = "83682BA5-5A7B-4081-8B26-D550B6F33EEB";
paths = (
{
closed = 1;
nodes = (
"203 716 OFFCURVE",
"227 746 OFFCURVE",
"227 780 CURVE SMOOTH",
"227 815 OFFCURVE",
"203 845 OFFCURVE",
"162 845 CURVE SMOOTH",
"120 845 OFFCURVE",
"96 814 OFFCURVE",
"96 780 CURVE SMOOTH",
"96 746 OFFCURVE",
"121 716 OFFCURVE",
"162 716 CURVE SMOOTH"
);
},
{
closed = 1;
nodes = (
"151 761 OFFCURVE",
"143 772 OFFCURVE",
"143 779 CURVE SMOOTH",
"143 788 OFFCURVE",
"150 801 OFFCURVE",
"160 800 CURVE SMOOTH",
"172 800 OFFCURVE",
"180 788 OFFCURVE",
"180 779 CURVE SMOOTH",
"180 772 OFFCURVE",
"172 761 OFFCURVE",
"160 761 CURVE SMOOTH"
);
},
{
closed = 1;
nodes = (
"311 0 LINE",
"249 700 LINE",
"153 700 LINE",
"216 0 LINE"
);
},
{
closed = 1;
nodes = (
"178 700 LINE",
"82 700 LINE",
"20 0 LINE",
"115 0 LINE"
);
},
{
closed = 1;
nodes = (
"51 213 LINE",
"51 120 LINE",
"280 120 LINE",
"280 213 LINE"
);
},
{
closed = 1;
nodes = (
"97 700 LINE",
"97 607 LINE",
"224 607 LINE",
"224 700 LINE"
);
},
{
closed = 1;
nodes = (
"66 700 LINE",
"56 607 LINE",
"166 607 LINE",
"166 700 LINE"
);
}
);
width = 331;
},
{
layerId = "E6A807D2-02F5-45B7-9AC8-B5230FFEC057";
paths = (
{
closed = 1;
nodes = (
"111 233 LINE",
"111 100 LINE",
"340 100 LINE",
"340 233 LINE"
);
},
{
closed = 1;
nodes = (
"96 700 LINE",
"82 567 LINE",
"328 567 LINE",
"328 700 LINE"
);
},
{
closed = 1;
nodes = (
"155 0 LINE",
"244 624 LINE",
"208 624 LINE",
"297 0 LINE",
"432 0 LINE",
"329 700 LINE",
"123 700 LINE",
"20 0 LINE"
);
},
{
closed = 1;
nodes = (
"258 716 OFFCURVE",
"285 750 OFFCURVE",
"285 787 CURVE SMOOTH",
"285 825 OFFCURVE",
"258 859 OFFCURVE",
"213 859 CURVE SMOOTH",
"167 859 OFFCURVE",
"140 824 OFFCURVE",
"140 787 CURVE SMOOTH",
"140 750 OFFCURVE",
"168 716 OFFCURVE",
"213 716 CURVE SMOOTH"
);
},
{
closed = 1;
nodes = (
"202 768 OFFCURVE",
"194 779 OFFCURVE",
"194 786 CURVE SMOOTH",
"194 795 OFFCURVE",
"201 808 OFFCURVE",
"211 807 CURVE SMOOTH",
"223 807 OFFCURVE",
"231 795 OFFCURVE",
"231 786 CURVE SMOOTH",
"231 779 OFFCURVE",
"223 768 OFFCURVE",
"211 768 CURVE SMOOTH"
);
}
);
width = 452;
}
);
unicode = 00C5;
},
{
glyphname = Atilde;
lastChange = "2020-11-22 21:56:08 +0000";
layers = (
{
layerId = "A98666DC-4638-42B6-8332-BBF4982DF0EF";
paths = (
{
closed = 1;
nodes = (
"129 700 LINE",
"82 700 LINE",
"20 0 LINE",
"66 0 LINE"
);
},
{
closed = 1;
nodes = (
"74 700 LINE",
"64 647 LINE",
"189 647 LINE",
"189 700 LINE"
);
},
{
closed = 1;
nodes = (
"54 194 LINE",
"54 141 LINE",
"229 141 LINE",
"229 194 LINE"
);
},
{
closed = 1;
nodes = (
"259 0 LINE",
"197 700 LINE",
"150 700 LINE",
"213 0 LINE"
);
},
{
closed = 1;
nodes = (
"110 808 OFFCURVE",
"89 805 OFFCURVE",
"75 788 CURVE",
"75 737 LINE",
"88 757 OFFCURVE",
"106 760 OFFCURVE",
"131 747 CURVE SMOOTH",
"159 731 OFFCURVE",
"180 733 OFFCURVE",
"193 752 CURVE",
"193 803 LINE",
"182 782 OFFCURVE",
"163 779 OFFCURVE",
"137 793 CURVE SMOOTH"
);
}
);
width = 279;
},
{
layerId = "83682BA5-5A7B-4081-8B26-D550B6F33EEB";
paths = (
{
closed = 1;
nodes = (
"311 0 LINE",
"249 700 LINE",
"153 700 LINE",
"216 0 LINE"
);
},
{
closed = 1;
nodes = (
"178 700 LINE",
"82 700 LINE",
"20 0 LINE",
"115 0 LINE"
);
},
{
closed = 1;
nodes = (
"51 213 LINE",
"51 120 LINE",
"280 120 LINE",
"280 213 LINE"
);
},
{
closed = 1;
nodes = (
"97 700 LINE",
"97 607 LINE",
"224 607 LINE",
"224 700 LINE"
);
},
{
closed = 1;
nodes = (
"66 700 LINE",
"56 607 LINE",
"166 607 LINE",
"166 700 LINE"
);
},
{
closed = 1;
nodes = (
"132 812 OFFCURVE",
"101 809 OFFCURVE",
"87 792 CURVE",
"87 721 LINE",
"100 741 OFFCURVE",
"128 744 OFFCURVE",
"153 731 CURVE SMOOTH",
"181 715 OFFCURVE",
"212 717 OFFCURVE",
"225 736 CURVE",
"225 807 LINE",
"214 786 OFFCURVE",
"185 783 OFFCURVE",
"159 797 CURVE SMOOTH"
);
}
);
width = 331;
},
{
layerId = "E6A807D2-02F5-45B7-9AC8-B5230FFEC057";
paths = (
{
closed = 1;
nodes = (
"111 233 LINE",
"111 100 LINE",
"340 100 LINE",
"340 233 LINE"
);
},
{
closed = 1;
nodes = (
"96 700 LINE",
"82 567 LINE",
"328 567 LINE",
"328 700 LINE"
);
},
{
closed = 1;
nodes = (
"155 0 LINE",
"244 624 LINE",
"208 624 LINE",
"297 0 LINE",
"432 0 LINE",
"329 700 LINE",
"123 700 LINE",
"20 0 LINE"
);
},
{
closed = 1;
nodes = (
"189 838 OFFCURVE",
"141 835 OFFCURVE",
"125 814 CURVE",
"125 728 LINE",
"140 752 OFFCURVE",
"184 756 OFFCURVE",
"214 740 CURVE SMOOTH",
"248 721 OFFCURVE",
"296 723 OFFCURVE",
"311 746 CURVE",
"311 832 LINE",
"298 807 OFFCURVE",
"253 803 OFFCURVE",
"222 820 CURVE SMOOTH"
);
}
);
width = 452;
}
);
unicode = 00C3;
},
{
glyphname = AE;
lastChange = "2020-11-21 23:54:04 +0000";
layers = (
{
layerId = "A98666DC-4638-42B6-8332-BBF4982DF0EF";
paths = (
{
closed = 1;
nodes = (
"129 700 LINE",
"82 700 LINE",
"20 0 LINE",
"66 0 LINE"
);
},
{
closed = 1;
nodes = (
"74 700 LINE",
"64 647 LINE",
"189 647 LINE",
"189 700 LINE"
);
},
{
closed = 1;
nodes = (
"54 194 LINE",
"54 141 LINE",
"229 141 LINE",
"229 194 LINE"
);
},
{
closed = 1;
nodes = (
"259 0 LINE",
"197 700 LINE",
"150 700 LINE",
"213 0 LINE"
);
},
{
closed = 1;
nodes = (
"175 700 LINE",
"165 647 LINE",
"278 647 LINE",
"278 700 LINE"
);
},
{
closed = 1;
nodes = (
"213 377 LINE",
"213 324 LINE",
"363 324 LINE",
"369 377 LINE"
);
},
{
closed = 1;
nodes = (
"213 700 LINE",
"213 647 LINE",
"363 647 LINE",
"369 700 LINE"
);
},
{
closed = 1;
nodes = (
"213 53 LINE",
"213 0 LINE",
"363 0 LINE",
"369 53 LINE"
);
}
);
width = 389;
},
{
layerId = "83682BA5-5A7B-4081-8B26-D550B6F33EEB";
paths = (
{
closed = 1;
nodes = (
"311 0 LINE",
"249 700 LINE",
"153 700 LINE",
"216 0 LINE"
);
},
{
closed = 1;
nodes = (
"178 700 LINE",
"82 700 LINE",
"20 0 LINE",
"115 0 LINE"
);
},
{
closed = 1;
nodes = (
"51 213 LINE",
"51 120 LINE",
"280 120 LINE",
"280 213 LINE"
);
},
{
closed = 1;
nodes = (
"97 700 LINE",
"97 607 LINE",
"224 607 LINE",
"224 700 LINE"
);
},
{
closed = 1;
nodes = (
"66 700 LINE",
"56 607 LINE",
"166 607 LINE",
"166 700 LINE"
);
},
{
closed = 1;
nodes = (
"216 397 LINE",
"216 304 LINE",
"413 304 LINE",
"423 397 LINE"
);
},
{
closed = 1;
nodes = (
"216 700 LINE",
"216 607 LINE",
"433 607 LINE",
"443 700 LINE"
);
},
{
closed = 1;
nodes = (
"216 93 LINE",
"216 0 LINE",
"435 0 LINE",
"443 93 LINE"
);
},
{
closed = 1;
nodes = (
"215 700 LINE",
"205 607 LINE",
"315 607 LINE",
"315 700 LINE"
);
}
);
width = 463;
},
{
layerId = "E6A807D2-02F5-45B7-9AC8-B5230FFEC057";
paths = (
{
closed = 1;
nodes = (
"91 233 LINE",
"91 100 LINE",
"320 100 LINE",
"320 233 LINE"
);
},
{
closed = 1;
nodes = (
"76 700 LINE",
"62 567 LINE",
"308 567 LINE",
"308 700 LINE"
);
},
{
closed = 1;
nodes = (
"135 0 LINE",
"224 624 LINE",
"188 624 LINE",
"277 0 LINE",
"412 0 LINE",
"309 700 LINE",
"103 700 LINE",
"0 0 LINE"
);
},
{
closed = 1;
nodes = (
"558 133 LINE",
"277 133 LINE",
"277 0 LINE",
"550 0 LINE"
);
},
{
closed = 1;
nodes = (
"558 700 LINE",
"277 700 LINE",
"277 567 LINE",
"550 567 LINE"
);
},
{
closed = 1;
nodes = (
"536 417 LINE",
"277 417 LINE",
"277 284 LINE",
"528 284 LINE"
);
},
{
closed = 1;
nodes = (
"272 700 LINE",
"258 567 LINE",
"413 567 LINE",
"413 700 LINE"
);
}
);
width = 600;
}
);
unicode = 00C6;
},
{
glyphname = B;
lastChange = "2020-11-15 18:06:34 +0000";
layers = (
{
layerId = "A98666DC-4638-42B6-8332-BBF4982DF0EF";
paths = (
{
closed = 1;
nodes = (
"38 -7 LINE",
"91 -7 LINE",
"91 700 LINE",
"38 700 LINE"
);
},
{
closed = 1;
nodes = (
"30 700 LINE",
"20 647 LINE",
"103 647 LINE",
"103 700 LINE"
);
},
{
closed = 1;
nodes = (
"150 324 LINE SMOOTH",
"219 324 OFFCURVE",
"255 356 OFFCURVE",
"255 417 CURVE SMOOTH",
"255 524 LINE",
"202 524 LINE",
"202 496 OFFCURVE",
"202 445 OFFCURVE",
"202 417 CURVE SMOOTH",
"202 391 OFFCURVE",
"184 377 OFFCURVE",
"150 377 CURVE SMOOTH",
"101 377 OFFCURVE",
"87 377 OFFCURVE",
"38 377 CURVE",
"38 324 LINE"
);
},
{
closed = 1;
nodes = (
"38 324 LINE",
"87 324 OFFCURVE",
"121 324 OFFCURVE",
"170 324 CURVE SMOOTH",
"204 324 OFFCURVE",
"222 307 OFFCURVE",
"222 273 CURVE SMOOTH",
"222 245 OFFCURVE",
"222 229 OFFCURVE",
"222 201 CURVE",
"275 201 LINE",
"275 273 LINE SMOOTH",
"275 341 OFFCURVE",
"239 377 OFFCURVE",
"170 377 CURVE SMOOTH",
"38 377 LINE"
);
},
{
closed = 1;
nodes = (
"170 -7 LINE SMOOTH",
"239 -7 OFFCURVE",
"275 29 OFFCURVE",
"275 97 CURVE SMOOTH",
"275 201 LINE",
"222 201 LINE",
"222 173 OFFCURVE",
"222 125 OFFCURVE",
"222 97 CURVE SMOOTH",
"222 63 OFFCURVE",
"204 46 OFFCURVE",
"170 46 CURVE SMOOTH",
"121 46 OFFCURVE",
"87 46 OFFCURVE",
"38 46 CURVE",
"38 -7 LINE"
);
},
{
closed = 1;
nodes = (
"91 647 LINE",
"140 647 OFFCURVE",
"101 647 OFFCURVE",
"150 647 CURVE SMOOTH",
"184 647 OFFCURVE",
"202 630 OFFCURVE",
"202 596 CURVE SMOOTH",
"202 568 OFFCURVE",
"202 552 OFFCURVE",
"202 524 CURVE",
"255 524 LINE",
"255 596 LINE SMOOTH",
"255 664 OFFCURVE",
"219 700 OFFCURVE",
"150 700 CURVE SMOOTH",
"91 700 LINE"
);
}
);
width = 295;
},
{
layerId = "83682BA5-5A7B-4081-8B26-D550B6F33EEB";
paths = (
{
closed = 1;
nodes = (
"20 70 LINE",
"115 70 LINE",
"115 700 LINE",
"20 700 LINE"
);
},
{
closed = 1;
nodes = (
"162 304 LINE SMOOTH",
"218 304 OFFCURVE",
"267 341 OFFCURVE",
"267 397 CURVE SMOOTH",
"267 543 LINE",
"172 543 LINE",
"172 355 LINE",
"216 397 LINE",
"20 397 LINE",
"21 304 LINE"
);
},
{
closed = 1;
nodes = (
"20 607 LINE",
"216 607 LINE",
"172 649 LINE",
"172 543 LINE",
"267 543 LINE",
"267 607 LINE SMOOTH",
"267 663 OFFCURVE",
"229 700 OFFCURVE",
"173 700 CURVE SMOOTH",
"20 700 LINE"
);
},
{
closed = 1;
nodes = (
"182 -7 LINE SMOOTH",
"238 -7 OFFCURVE",
"287 30 OFFCURVE",
"287 86 CURVE SMOOTH",
"287 151 LINE",
"192 151 LINE",
"192 44 LINE",
"236 86 LINE",
"20 86 LINE",
"21 -7 LINE"
);
},
{
closed = 1;
nodes = (
"40 304 LINE",
"236 304 LINE",
"192 346 LINE",
"192 151 LINE",
"287 151 LINE",
"287 304 LINE SMOOTH",
"287 360 OFFCURVE",
"249 397 OFFCURVE",
"193 397 CURVE SMOOTH",
"40 397 LINE"
);
},
{
closed = 1;
nodes = (
"15 700 LINE",
"5 607 LINE",
"115 607 LINE",
"115 700 LINE"
);
}
);
width = 307;
},
{
layerId = "E6A807D2-02F5-45B7-9AC8-B5230FFEC057";
paths = (
{
closed = 1;
nodes = (
"128 700 LINE SMOOTH",
"72 700 OFFCURVE",
"34 663 OFFCURVE",
"34 607 CURVE SMOOTH",
"34 417 LINE",
"170 417 LINE",
"170 605 LINE",
"126 567 LINE",
"216 567 LINE",
"216 700 LINE"
);
},
{
closed = 1;
nodes = (
"240 0 LINE SMOOTH",
"343 0 OFFCURVE",
"384 41 OFFCURVE",
"384 143 CURVE SMOOTH",
"384 173 LINE",
"248 173 LINE",
"248 91 LINE",
"292 133 LINE",
"52 133 LINE",
"52 0 LINE"
);
},
{
closed = 1;
nodes = (
"182 567 LINE",
"272 567 LINE",
"228 609 LINE",
"228 475 LINE",
"364 475 LINE",
"364 557 LINE SMOOTH",
"364 659 OFFCURVE",
"323 700 OFFCURVE",
"220 700 CURVE SMOOTH",
"182 700 LINE"
);
},
{
closed = 1;
nodes = (
"34 0 LINE",
"170 0 LINE",
"170 700 LINE",
"34 700 LINE"
);
},
{
closed = 1;
nodes = (
"29 700 LINE",
"15 567 LINE",
"170 567 LINE",
"170 700 LINE"
);
},
{
closed = 1;
nodes = (
"220 283 LINE SMOOTH",
"323 283 OFFCURVE",
"364 324 OFFCURVE",
"364 426 CURVE SMOOTH",
"364 509 LINE",
"228 509 LINE",
"228 374 LINE",
"272 416 LINE",
"182 416 LINE",
"182 283 LINE"
);
},
{
closed = 1;
nodes = (
"34 283 LINE",
"292 283 LINE",
"248 325 LINE",
"248 150 LINE",
"384 150 LINE",
"384 273 LINE SMOOTH",
"384 375 OFFCURVE",
"343 416 OFFCURVE",
"240 416 CURVE SMOOTH",
"34 416 LINE"
);
}
);
width = 399;
},
{
associatedMasterId = "83682BA5-5A7B-4081-8B26-D550B6F33EEB";
layerId = "1968D480-9B09-4E26-ACD2-A1388DEEED23";
name = "Oct 29 20, 17:58";
paths = (
{
closed = 1;
nodes = (
"20 70 LINE",
"115 70 LINE",
"115 700 LINE",
"20 700 LINE"
);
},
{
closed = 1;
nodes = (
"162 385 LINE SMOOTH",
"218 385 OFFCURVE",
"267 422 OFFCURVE",
"267 478 CURVE SMOOTH",
"267 543 LINE",
"172 543 LINE",
"172 436 LINE",
"216 478 LINE",
"20 478 LINE",
"21 385 LINE"
);
},
{
closed = 1;
nodes = (
"20 607 LINE",
"216 607 LINE",
"172 649 LINE",
"172 543 LINE",
"267 543 LINE",
"267 607 LINE SMOOTH",
"267 663 OFFCURVE",
"229 700 OFFCURVE",
"173 700 CURVE SMOOTH",
"20 700 LINE"
);
},
{
closed = 1;
nodes = (
"182 -7 LINE SMOOTH",
"238 -7 OFFCURVE",
"287 30 OFFCURVE",
"287 86 CURVE SMOOTH",
"287 151 LINE",
"192 151 LINE",
"192 44 LINE",
"236 86 LINE",
"20 86 LINE",
"21 -7 LINE"
);
},
{
closed = 1;
nodes = (
"40 385 LINE",
"236 385 LINE",
"192 427 LINE",
"192 151 LINE",
"287 151 LINE",
"287 385 LINE SMOOTH",
"287 441 OFFCURVE",
"249 478 OFFCURVE",
"193 478 CURVE SMOOTH",
"40 478 LINE"
);
}
);
width = 307;
}
);
unicode = 0042;
},
{
glyphname = C;
lastChange = "2020-11-15 18:06:56 +0000";
layers = (
{
layerId = "A98666DC-4638-42B6-8332-BBF4982DF0EF";
paths = (
{
closed = 1;
nodes = (
"125 704 LINE SMOOTH",
"56 704 OFFCURVE",
"20 672 OFFCURVE",
"20 611 CURVE SMOOTH",
"20 300 LINE",
"73 300 LINE",
"73 611 LINE",
"73 637 OFFCURVE",
"91 651 OFFCURVE",
"125 651 CURVE SMOOTH",
"174 651 OFFCURVE",
"103 651 OFFCURVE",
"152 651 CURVE",
"152 704 LINE"
);
},
{
closed = 1;
nodes = (
"143 46 LINE",
"94 46 OFFCURVE",
"174 46 OFFCURVE",
"125 46 CURVE SMOOTH",
"91 46 OFFCURVE",
"73 63 OFFCURVE",
"73 97 CURVE",
"73 300 LINE",
"20 300 LINE",
"20 97 LINE SMOOTH",
"20 29 OFFCURVE",
"56 -7 OFFCURVE",
"125 -7 CURVE SMOOTH",
"143 -7 LINE"
);
},
{
closed = 1;
nodes = (
"143 -7 LINE SMOOTH",
"212 -7 OFFCURVE",
"248 29 OFFCURVE",
"248 97 CURVE SMOOTH",
"248 304 LINE",
"195 304 LINE",
"193 276 OFFCURVE",
"195 125 OFFCURVE",
"195 97 CURVE SMOOTH",
"195 63 OFFCURVE",
"177 46 OFFCURVE",
"143 46 CURVE SMOOTH",
"94 46 OFFCURVE",
"180 46 OFFCURVE",
"131 46 CURVE",
"131 -7 LINE"
);
},
{
closed = 1;
nodes = (
"131 651 LINE",
"180 651 OFFCURVE",
"94 651 OFFCURVE",
"143 651 CURVE SMOOTH",
"177 651 OFFCURVE",
"195 634 OFFCURVE",
"195 600 CURVE",
"195 399 LINE",
"248 393 LINE",
"248 600 LINE SMOOTH",
"248 668 OFFCURVE",
"212 704 OFFCURVE",
"143 704 CURVE SMOOTH",
"131 704 LINE"
);
}
);
width = 268;
},
{
layerId = "83682BA5-5A7B-4081-8B26-D550B6F33EEB";
paths = (
{
closed = 1;
nodes = (
"186 -4 LINE SMOOTH",
"242 -4 OFFCURVE",
"280 33 OFFCURVE",
"280 89 CURVE SMOOTH",
"280 304 LINE",
"185 304 LINE",
"185 47 LINE",
"229 89 LINE",
"138 89 LINE",
"138 -4 LINE"
);
},
{
closed = 1;
nodes = (
"162 89 LINE",
"71 89 LINE",
"115 47 LINE",
"115 400 LINE",
"20 400 LINE",
"20 89 LINE SMOOTH",
"20 33 OFFCURVE",
"58 -4 OFFCURVE",
"114 -4 CURVE SMOOTH",
"162 -4 LINE"
);
},
{
closed = 1;
nodes = (
"138 611 LINE",
"229 611 LINE",
"185 653 LINE",
"185 397 LINE",
"280 387 LINE",
"280 611 LINE SMOOTH",
"280 667 OFFCURVE",
"242 704 OFFCURVE",
"186 704 CURVE SMOOTH",
"138 704 LINE"
);
},
{
closed = 1;
nodes = (
"114 704 LINE SMOOTH",
"58 704 OFFCURVE",
"20 667 OFFCURVE",
"20 611 CURVE SMOOTH",
"20 400 LINE",
"115 400 LINE",
"115 653 LINE",
"71 611 LINE",
"162 611 LINE",
"162 704 LINE"
);
}
);
width = 300;
},
{
layerId = "E6A807D2-02F5-45B7-9AC8-B5230FFEC057";
paths = (
{
closed = 1;
nodes = (
"202 125 LINE",
"112 125 LINE",
"156 83 LINE",
"156 400 LINE",
"20 400 LINE",
"20 135 LINE SMOOTH",
"20 33 OFFCURVE",
"61 -8 OFFCURVE",
"164 -8 CURVE SMOOTH",
"202 -8 LINE"
);
},
{
closed = 1;
nodes = (
"164 708 LINE SMOOTH",
"61 708 OFFCURVE",
"20 667 OFFCURVE",
"20 565 CURVE SMOOTH",
"20 400 LINE",
"156 400 LINE",
"156 617 LINE",
"112 575 LINE",
"202 575 LINE",
"202 708 LINE"
);
},
{
closed = 1;
nodes = (
"208 -8 LINE SMOOTH",
"311 -8 OFFCURVE",
"352 33 OFFCURVE",
"352 135 CURVE SMOOTH",
"352 290 LINE",
"216 290 LINE",
"216 83 LINE",
"260 125 LINE",
"170 125 LINE",
"170 -8 LINE"
);
},
{
closed = 1;
nodes = (
"170 575 LINE",
"260 575 LINE",
"216 617 LINE",
"216 415 LINE",
"352 400 LINE",
"352 565 LINE SMOOTH",
"352 667 OFFCURVE",
"311 708 OFFCURVE",
"208 708 CURVE SMOOTH",
"170 708 LINE"
);
}
);
width = 372;
}
);
unicode = 0043;
},
{
glyphname = Ccedilla;
lastChange = "2020-11-22 22:14:07 +0000";
layers = (
{
layerId = "A98666DC-4638-42B6-8332-BBF4982DF0EF";
paths = (
{
closed = 1;
nodes = (
"143 -106 LINE",
"143 -62 LINE",
"108 -62 LINE",
"108 -106 LINE"
);
},
{
closed = 1;
nodes = (
"174 -58 LINE",
"174 -79 OFFCURVE",
"174 -61 OFFCURVE",
"174 -68 CURVE SMOOTH",
"174 -77 OFFCURVE",
"167 -81 OFFCURVE",
"153 -81 CURVE SMOOTH",
"140 -81 OFFCURVE",
"119 -81 OFFCURVE",
"108 -81 CURVE",
"108 -106 LINE",
"140 -106 LINE SMOOTH",
"185 -106 OFFCURVE",
"209 -92 OFFCURVE",
"209 -65 CURVE SMOOTH",
"209 -58 LINE"
);
},
{
closed = 1;
nodes = (
"108 -4 LINE SMOOTH",
"108 -33 OFFCURVE",
"123 -48 OFFCURVE",
"153 -48 CURVE SMOOTH",
"167 -48 OFFCURVE",
"174 -51 OFFCURVE",
"174 -57 CURVE SMOOTH",
"174 -58 LINE",
"209 -58 LINE",
"209 -58 LINE SMOOTH",
"209 -34 OFFCURVE",
"192 -22 OFFCURVE",
"158 -22 CURVE SMOOTH",
"148 -22 OFFCURVE",
"143 -18 OFFCURVE",
"143 -9 CURVE SMOOTH",
"143 6 LINE",
"108 6 LINE"
);
},
{
closed = 1;
nodes = (
"125 704 LINE SMOOTH",
"56 704 OFFCURVE",
"20 672 OFFCURVE",
"20 611 CURVE SMOOTH",
"20 300 LINE",
"73 300 LINE",
"73 611 LINE",
"73 637 OFFCURVE",
"91 651 OFFCURVE",
"125 651 CURVE SMOOTH",
"174 651 OFFCURVE",
"103 651 OFFCURVE",
"152 651 CURVE",
"152 704 LINE"
);
},
{
closed = 1;
nodes = (
"143 46 LINE",
"94 46 OFFCURVE",
"174 46 OFFCURVE",
"125 46 CURVE SMOOTH",
"91 46 OFFCURVE",
"73 63 OFFCURVE",
"73 97 CURVE",
"73 300 LINE",
"20 300 LINE",
"20 97 LINE SMOOTH",
"20 29 OFFCURVE",
"56 -7 OFFCURVE",
"125 -7 CURVE SMOOTH",
"143 -7 LINE"
);
},
{
closed = 1;
nodes = (
"143 -7 LINE SMOOTH",
"212 -7 OFFCURVE",
"248 29 OFFCURVE",
"248 97 CURVE SMOOTH",
"248 304 LINE",
"195 304 LINE",
"193 276 OFFCURVE",
"195 125 OFFCURVE",
"195 97 CURVE SMOOTH",
"195 63 OFFCURVE",
"177 46 OFFCURVE",
"143 46 CURVE SMOOTH",
"94 46 OFFCURVE",
"180 46 OFFCURVE",
"131 46 CURVE",
"131 -7 LINE"
);
},
{
closed = 1;
nodes = (
"131 651 LINE",
"180 651 OFFCURVE",
"94 651 OFFCURVE",
"143 651 CURVE SMOOTH",
"177 651 OFFCURVE",
"195 634 OFFCURVE",
"195 600 CURVE",
"195 399 LINE",
"248 393 LINE",
"248 600 LINE SMOOTH",
"248 668 OFFCURVE",
"212 704 OFFCURVE",
"143 704 CURVE SMOOTH",
"131 704 LINE"
);
}
);
width = 268;
},
{
layerId = "83682BA5-5A7B-4081-8B26-D550B6F33EEB";
paths = (
{
closed = 1;
nodes = (
"186 -4 LINE SMOOTH",
"242 -4 OFFCURVE",
"280 33 OFFCURVE",
"280 89 CURVE SMOOTH",
"280 304 LINE",
"185 304 LINE",
"185 47 LINE",
"229 89 LINE",
"138 89 LINE",
"138 -4 LINE"
);
},
{
closed = 1;
nodes = (
"162 89 LINE",
"71 89 LINE",
"115 47 LINE",
"115 400 LINE",
"20 400 LINE",
"20 89 LINE SMOOTH",
"20 33 OFFCURVE",
"58 -4 OFFCURVE",
"114 -4 CURVE SMOOTH",
"162 -4 LINE"
);
},
{
closed = 1;
nodes = (
"138 611 LINE",
"229 611 LINE",
"185 653 LINE",
"185 397 LINE",
"280 387 LINE",
"280 611 LINE SMOOTH",
"280 667 OFFCURVE",
"242 704 OFFCURVE",
"186 704 CURVE SMOOTH",
"138 704 LINE"
);
},
{
closed = 1;
nodes = (
"114 704 LINE SMOOTH",
"58 704 OFFCURVE",
"20 667 OFFCURVE",
"20 611 CURVE SMOOTH",
"20 400 LINE",
"115 400 LINE",
"115 653 LINE",
"71 611 LINE",
"162 611 LINE",
"162 704 LINE"
);
},
{
closed = 1;
nodes = (
"163 -19 LINE",
"141 -19 LINE",
"161 -31 LINE",
"161 11 LINE",
"117 11 LINE",
"117 -19 LINE",
"117 -32 OFFCURVE",
"136 -43 OFFCURVE",
"161 -44 CURVE",
"163 -44 LINE"
);
},
{
closed = 1;
nodes = (
"163 -44 LINE",
"178 -44 LINE",
"158 -32 LINE",
"158 -58 LINE",
"202 -58 LINE",
"202 -44 LINE",
"202 -29 OFFCURVE",
"187 -19 OFFCURVE",
"163 -19 CURVE"
);
},
{
closed = 1;
nodes = (
"96 -106 LINE",
"158 -106 LINE SMOOTH",
"183 -106 OFFCURVE",
"202 -96 OFFCURVE",
"202 -84 CURVE SMOOTH",
"202 -48 LINE",
"158 -48 LINE",
"158 -94 LINE",
"178 -84 LINE",
"121 -84 LINE",
"139 -94 LINE",
"139 -56 LINE",
"96 -56 LINE"
);
}
);
width = 300;
},
{
layerId = "E6A807D2-02F5-45B7-9AC8-B5230FFEC057";
paths = (
{
closed = 1;
nodes = (
"216 -19 LINE",
"216 1 LINE",
"168 1 LINE",
"168 -23 LINE SMOOTH",
"168 -40 OFFCURVE",
"179 -50 OFFCURVE",
"199 -50 CURVE SMOOTH",
"201 -50 LINE"
);
},
{
closed = 1;
nodes = (
"201 -50 LINE",
"205 -50 LINE",
"205 -70 LINE",
"253 -70 LINE",
"253 -50 LINE",
"253 -30 OFFCURVE",
"231 -17 OFFCURVE",
"209 -17 CURVE"
);
},
{
closed = 1;
nodes = (
"130 -106 LINE",
"213 -106 LINE SMOOTH",
"236 -106 OFFCURVE",
"253 -96 OFFCURVE",
"253 -81 CURVE SMOOTH",
"253 -59 LINE",
"205 -59 LINE",
"205 -93 LINE",
"223 -70 LINE",
"160 -70 LINE",
"178 -93 LINE",
"178 -55 LINE",
"130 -55 LINE"
);
},
{
closed = 1;
nodes = (
"202 125 LINE",
"112 125 LINE",
"156 83 LINE",
"156 400 LINE",
"20 400 LINE",
"20 135 LINE SMOOTH",
"20 33 OFFCURVE",
"61 -8 OFFCURVE",
"164 -8 CURVE SMOOTH",
"202 -8 LINE"
);
},
{
closed = 1;
nodes = (
"164 708 LINE SMOOTH",
"61 708 OFFCURVE",
"20 667 OFFCURVE",
"20 565 CURVE SMOOTH",
"20 400 LINE",
"156 400 LINE",
"156 617 LINE",
"112 575 LINE",
"202 575 LINE",
"202 708 LINE"
);
},
{
closed = 1;
nodes = (
"208 -8 LINE SMOOTH",
"311 -8 OFFCURVE",
"352 33 OFFCURVE",
"352 135 CURVE SMOOTH",
"352 290 LINE",
"216 290 LINE",
"216 83 LINE",
"260 125 LINE",
"170 125 LINE",
"170 -8 LINE"
);
},
{
closed = 1;
nodes = (
"170 575 LINE",
"260 575 LINE",
"216 617 LINE",
"216 415 LINE",
"352 400 LINE",
"352 565 LINE SMOOTH",
"352 667 OFFCURVE",
"311 708 OFFCURVE",
"208 708 CURVE SMOOTH",
"170 708 LINE"
);
}
);
width = 372;
}
);
unicode = 00C7;
},
{
glyphname = D;
lastChange = "2020-11-15 18:12:04 +0000";
layers = (
{
layerId = "A98666DC-4638-42B6-8332-BBF4982DF0EF";
paths = (
{
closed = 1;
nodes = (
"33 -7 LINE",
"86 -7 LINE",
"86 700 LINE",
"33 700 LINE"
);
},
{
closed = 1;
nodes = (
"25 700 LINE",
"15 647 LINE",
"98 647 LINE",
"98 700 LINE"
);
},
{
closed = 1;
nodes = (
"150 -7 LINE SMOOTH",
"219 -7 OFFCURVE",
"255 29 OFFCURVE",
"255 97 CURVE SMOOTH",
"255 341 LINE",
"202 341 LINE",
"202 313 OFFCURVE",
"202 125 OFFCURVE",
"202 97 CURVE SMOOTH",
"202 63 OFFCURVE",
"184 46 OFFCURVE",
"150 46 CURVE SMOOTH",
"101 46 OFFCURVE",
"82 46 OFFCURVE",
"33 46 CURVE",
"33 -7 LINE"
);
},
{
closed = 1;
nodes = (
"86 647 LINE",
"120 647 OFFCURVE",
"101 647 OFFCURVE",
"150 647 CURVE SMOOTH",
"184 647 OFFCURVE",
"202 630 OFFCURVE",
"202 596 CURVE SMOOTH",
"202 568 OFFCURVE",
"202 369 OFFCURVE",
"202 341 CURVE",
"255 341 LINE",
"255 596 LINE SMOOTH",
"255 664 OFFCURVE",
"219 700 OFFCURVE",
"150 700 CURVE SMOOTH",
"86 700 LINE"
);
}
);
width = 275;
},
{
layerId = "83682BA5-5A7B-4081-8B26-D550B6F33EEB";
paths = (
{
closed = 1;
nodes = (
"20 0 LINE",
"115 0 LINE",
"115 463 LINE",
"20 463 LINE"
);
},
{
closed = 1;
nodes = (
"186 0 LINE SMOOTH",
"242 0 OFFCURVE",
"280 37 OFFCURVE",
"280 93 CURVE SMOOTH",
"280 297 LINE",
"185 297 LINE",
"185 51 LINE",
"229 93 LINE",
"20 93 LINE",
"20 0 LINE"
);
},
{
closed = 1;
nodes = (
"115 237 LINE",
"115 700 LINE",
"20 700 LINE",
"20 237 LINE"
);
},
{
closed = 1;
nodes = (
"20 607 LINE",
"229 607 LINE",
"185 649 LINE",
"185 297 LINE",
"280 297 LINE",
"280 607 LINE SMOOTH",
"280 663 OFFCURVE",
"242 700 OFFCURVE",
"186 700 CURVE SMOOTH",
"20 700 LINE"
);
},
{
closed = 1;
nodes = (
"15 700 LINE",
"5 607 LINE",
"115 607 LINE",
"115 700 LINE"
);
}
);
width = 300;
},
{
layerId = "E6A807D2-02F5-45B7-9AC8-B5230FFEC057";
paths = (
{
closed = 1;
nodes = (
"133 700 LINE SMOOTH",
"77 700 OFFCURVE",
"39 663 OFFCURVE",
"39 607 CURVE SMOOTH",
"39 396 LINE",
"175 392 LINE",
"175 605 LINE",
"131 567 LINE",
"221 567 LINE",
"221 700 LINE"
);
},
{
closed = 1;
nodes = (
"227 0 LINE SMOOTH",
"330 0 OFFCURVE",
"371 41 OFFCURVE",
"371 143 CURVE SMOOTH",
"371 347 LINE",
"235 347 LINE",
"235 91 LINE",
"279 133 LINE",
"39 133 LINE",
"39 0 LINE"
);
},
{
closed = 1;
nodes = (
"189 567 LINE",
"279 567 LINE",
"235 609 LINE",
"235 339 LINE",
"371 339 LINE",
"371 557 LINE SMOOTH",
"371 659 OFFCURVE",
"330 700 OFFCURVE",
"227 700 CURVE SMOOTH",
"189 700 LINE"
);
},
{
closed = 1;
nodes = (
"39 0 LINE",
"175 0 LINE",
"175 700 LINE",
"39 700 LINE"
);
},
{
closed = 1;
nodes = (
"34 700 LINE",
"20 567 LINE",
"175 567 LINE",
"175 700 LINE"
);
}
);
width = 391;
},
{
associatedMasterId = "83682BA5-5A7B-4081-8B26-D550B6F33EEB";
layerId = "67FE56B6-7551-420D-9237-725B6CBC6063";
name = "Oct 27 20, 21:44";
paths = (
{
closed = 1;
nodes = (
"45 0 LINE",
"140 0 LINE",
"140 363 LINE",
"45 363 LINE"
);
},
{
closed = 1;
nodes = (
"211 0 LINE SMOOTH",
"267 0 OFFCURVE",
"305 37 OFFCURVE",
"305 93 CURVE SMOOTH",
"305 297 LINE",
"210 297 LINE",
"210 51 LINE",
"254 93 LINE",
"45 93 LINE",
"45 0 LINE"
);
},
{
closed = 1;
nodes = (
"140 237 LINE",
"140 600 LINE",
"45 600 LINE",
"45 237 LINE"
);
},
{
closed = 1;
nodes = (
"45 507 LINE",
"254 507 LINE",
"210 549 LINE",
"210 297 LINE",
"305 297 LINE",
"305 507 LINE SMOOTH",
"305 563 OFFCURVE",
"267 600 OFFCURVE",
"211 600 CURVE SMOOTH",
"45 600 LINE"
);
},
{
closed = 1;
nodes = (
"40 600 LINE",
"20 507 LINE",
"140 507 LINE",
"140 600 LINE"
);
},
{
closed = 1;
nodes = (
"25 93 LINE",
"25 0 LINE",
"140 0 LINE",
"140 93 LINE"
);
}
);
width = 325;
}
);
unicode = 0044;
},
{
glyphname = Eth;
lastChange = "2020-11-22 22:01:32 +0000";
layers = (
{
layerId = "A98666DC-4638-42B6-8332-BBF4982DF0EF";
paths = (
{
closed = 1;
nodes = (
"53 -7 LINE",
"106 -7 LINE",
"106 700 LINE",
"53 700 LINE"
);
},
{
closed = 1;
nodes = (
"45 700 LINE",
"35 647 LINE",
"118 647 LINE",
"118 700 LINE"
);
},
{
closed = 1;
nodes = (
"170 -7 LINE SMOOTH",
"239 -7 OFFCURVE",
"275 29 OFFCURVE",
"275 97 CURVE SMOOTH",
"275 341 LINE",
"222 341 LINE",
"222 313 OFFCURVE",
"222 125 OFFCURVE",
"222 97 CURVE SMOOTH",
"222 63 OFFCURVE",
"204 46 OFFCURVE",
"170 46 CURVE SMOOTH",
"121 46 OFFCURVE",
"102 46 OFFCURVE",
"53 46 CURVE",
"53 -7 LINE"
);
},
{
closed = 1;
nodes = (
"106 647 LINE",
"140 647 OFFCURVE",
"121 647 OFFCURVE",
"170 647 CURVE SMOOTH",
"204 647 OFFCURVE",
"222 630 OFFCURVE",
"222 596 CURVE SMOOTH",
"222 568 OFFCURVE",
"222 369 OFFCURVE",
"222 341 CURVE",
"275 341 LINE",
"275 596 LINE SMOOTH",
"275 664 OFFCURVE",
"239 700 OFFCURVE",
"170 700 CURVE SMOOTH",
"106 700 LINE"
);
},
{
closed = 1;
nodes = (
"190 320 LINE",
"190 373 LINE",
"20 373 LINE",
"20 320 LINE"
);
}
);
width = 295;
},
{
layerId = "83682BA5-5A7B-4081-8B26-D550B6F33EEB";
paths = (
{
closed = 1;
nodes = (
"50 0 LINE",
"145 0 LINE",
"145 700 LINE",
"50 700 LINE"
);
},
{
closed = 1;
nodes = (
"216 0 LINE SMOOTH",
"272 0 OFFCURVE",
"310 37 OFFCURVE",
"310 93 CURVE SMOOTH",
"310 297 LINE",
"215 297 LINE",
"215 51 LINE",
"259 93 LINE",
"50 93 LINE",
"50 0 LINE"
);
},
{
closed = 1;
nodes = (
"50 607 LINE",
"259 607 LINE",
"215 649 LINE",
"215 297 LINE",
"310 297 LINE",
"310 607 LINE SMOOTH",
"310 663 OFFCURVE",
"272 700 OFFCURVE",
"216 700 CURVE SMOOTH",
"50 700 LINE"
);
},
{
closed = 1;
nodes = (
"45 700 LINE",
"35 607 LINE",
"145 607 LINE",
"145 700 LINE"
);
},
{
closed = 1;
nodes = (
"20 398 LINE",
"20 303 LINE",
"188 303 LINE",
"188 398 LINE"
);
}
);
width = 330;
},
{
layerId = "E6A807D2-02F5-45B7-9AC8-B5230FFEC057";
paths = (
{
closed = 1;
nodes = (
"146 700 LINE SMOOTH",
"90 700 OFFCURVE",
"52 663 OFFCURVE",
"52 607 CURVE SMOOTH",
"52 396 LINE",
"188 392 LINE",
"188 605 LINE",
"144 567 LINE",
"234 567 LINE",
"234 700 LINE"
);
},
{
closed = 1;
nodes = (
"240 0 LINE SMOOTH",
"343 0 OFFCURVE",
"384 41 OFFCURVE",
"384 143 CURVE SMOOTH",
"384 347 LINE",
"248 347 LINE",
"248 91 LINE",
"292 133 LINE",
"52 133 LINE",
"52 0 LINE"
);
},
{
closed = 1;
nodes = (
"202 567 LINE",
"292 567 LINE",
"248 609 LINE",
"248 339 LINE",
"384 339 LINE",
"384 557 LINE SMOOTH",
"384 659 OFFCURVE",
"343 700 OFFCURVE",
"240 700 CURVE SMOOTH",
"202 700 LINE"
);
},
{
closed = 1;
nodes = (
"52 0 LINE",
"188 0 LINE",
"188 700 LINE",
"52 700 LINE"
);
},
{
closed = 1;
nodes = (
"47 700 LINE",
"33 567 LINE",
"188 567 LINE",
"188 700 LINE"
);
},
{
closed = 1;
nodes = (
"20 410 LINE",
"20 290 LINE",
"222 290 LINE",
"222 411 LINE"
);
}
);
width = 404;
}
);
unicode = 00D0;
},
{
glyphname = E;
lastChange = "2020-11-16 21:23:10 +0000";
layers = (
{
layerId = "A98666DC-4638-42B6-8332-BBF4982DF0EF";
paths = (
{
closed = 1;
nodes = (
"33 0 LINE",
"86 0 LINE",
"86 700 LINE",
"33 700 LINE"
);
},
{
closed = 1;
nodes = (
"25 700 LINE",
"15 647 LINE",
"98 647 LINE",
"98 700 LINE"
);
},
{
closed = 1;
nodes = (
"33 377 LINE",
"33 324 LINE",
"233 324 LINE",
"239 377 LINE"
);
},
{
closed = 1;
nodes = (
"33 700 LINE",
"33 647 LINE",
"233 647 LINE",
"239 700 LINE"
);
},
{
closed = 1;
nodes = (
"33 53 LINE",
"33 0 LINE",
"233 0 LINE",
"239 53 LINE"
);
}
);
width = 259;
},
{
layerId = "83682BA5-5A7B-4081-8B26-D550B6F33EEB";
paths = (
{
closed = 1;
nodes = (
"20 397 LINE",
"20 304 LINE",
"217 304 LINE",
"227 397 LINE"
);
},
{
closed = 1;
nodes = (
"20 0 LINE",
"115 0 LINE",
"115 700 LINE",
"20 700 LINE"
);
},
{
closed = 1;
nodes = (
"20 700 LINE",
"20 607 LINE",
"237 607 LINE",
"247 700 LINE"
);
},
{
closed = 1;
nodes = (
"20 93 LINE",
"20 0 LINE",
"239 0 LINE",
"247 93 LINE"
);
},
{
closed = 1;
nodes = (
"15 700 LINE",
"5 607 LINE",
"115 607 LINE",
"115 700 LINE"
);
}
);
width = 267;
},
{
layerId = "E6A807D2-02F5-45B7-9AC8-B5230FFEC057";
paths = (
{
closed = 1;
nodes = (
"320 133 LINE",
"39 133 LINE",
"39 0 LINE",
"312 0 LINE"
);
},
{
closed = 1;
nodes = (
"320 700 LINE",
"39 700 LINE",
"39 567 LINE",
"312 567 LINE"
);
},
{
closed = 1;
nodes = (
"298 417 LINE",
"39 417 LINE",
"39 284 LINE",
"290 284 LINE"
);
},
{
closed = 1;
nodes = (
"39 0 LINE",
"175 0 LINE",
"175 700 LINE",
"39 700 LINE"
);
},
{
closed = 1;
nodes = (
"34 700 LINE",
"20 567 LINE",
"175 567 LINE",
"175 700 LINE"
);
}
);
width = 340;
},
{
associatedMasterId = "83682BA5-5A7B-4081-8B26-D550B6F33EEB";
layerId = "5FA97AB2-FF6B-41A4-895F-58506B8BF46B";
name = "Oct 27 20, 21:33";
paths = (
{
closed = 1;
nodes = (
"35 298 LINE",
"35 205 LINE",
"242 205 LINE",
"242 298 LINE"
);
},
{
closed = 1;
nodes = (
"35 0 LINE",
"130 0 LINE",
"130 600 LINE",
"35 600 LINE"
);
},
{
closed = 1;
nodes = (
"35 600 LINE",
"35 507 LINE",
"262 507 LINE",
"262 600 LINE"
);
},
{
closed = 1;
nodes = (
"35 93 LINE",
"35 0 LINE",
"262 0 LINE",
"262 93 LINE"
);
},
{
closed = 1;
nodes = (
"30 600 LINE",
"10 507 LINE",
"130 507 LINE",
"130 600 LINE"
);
},
{
closed = 1;
nodes = (
"15 93 LINE",
"15 0 LINE",
"130 0 LINE",
"130 93 LINE"
);
}
);
width = 282;
},
{
associatedMasterId = "83682BA5-5A7B-4081-8B26-D550B6F33EEB";
layerId = "9A87FFFA-5724-4F4A-A50E-DFEBF33293A7";
name = "Oct 27 20, 23:40";
paths = (
{
closed = 1;
nodes = (
"20 298 LINE",
"20 205 LINE",
"227 205 LINE",
"227 298 LINE"
);
},
{
closed = 1;
nodes = (
"20 0 LINE",
"115 0 LINE",
"115 600 LINE",
"20 600 LINE"
);
},
{
closed = 1;
nodes = (
"20 600 LINE",
"20 507 LINE",
"247 507 LINE",
"247 600 LINE"
);
},
{
closed = 1;
nodes = (
"20 93 LINE",
"20 0 LINE",
"247 0 LINE",
"247 93 LINE"
);
}
);
width = 267;
}
);
unicode = 0045;
},
{
glyphname = Eacute;
lastChange = "2020-11-22 22:04:45 +0000";
layers = (
{
layerId = "A98666DC-4638-42B6-8332-BBF4982DF0EF";
paths = (
{
closed = 1;
nodes = (
"105 720 LINE",
"145 720 LINE",
"172 800 LINE",
"132 800 LINE"
);
},
{
closed = 1;
nodes = (
"38 0 LINE",
"91 0 LINE",
"91 700 LINE",
"38 700 LINE"
);
},
{
closed = 1;
nodes = (
"30 700 LINE",
"20 647 LINE",
"103 647 LINE",
"103 700 LINE"
);
},
{
closed = 1;
nodes = (
"38 377 LINE",
"38 324 LINE",
"238 324 LINE",
"244 377 LINE"
);
},
{
closed = 1;
nodes = (
"38 700 LINE",
"38 647 LINE",
"238 647 LINE",
"244 700 LINE"
);
},
{
closed = 1;
nodes = (
"38 53 LINE",
"38 0 LINE",
"238 0 LINE",
"244 53 LINE"
);
}
);
width = 264;
},
{
layerId = "83682BA5-5A7B-4081-8B26-D550B6F33EEB";
paths = (
{
closed = 1;
nodes = (
"35 397 LINE",
"35 304 LINE",
"232 304 LINE",
"242 397 LINE"
);
},
{
closed = 1;
nodes = (
"35 0 LINE",
"130 0 LINE",
"130 700 LINE",
"35 700 LINE"
);
},
{
closed = 1;
nodes = (
"35 700 LINE",
"35 607 LINE",
"252 607 LINE",
"262 700 LINE"
);
},
{
closed = 1;
nodes = (
"35 93 LINE",
"35 0 LINE",
"254 0 LINE",
"262 93 LINE"
);
},
{
closed = 1;
nodes = (
"30 700 LINE",
"20 607 LINE",
"130 607 LINE",
"130 700 LINE"
);
},
{
closed = 1;
nodes = (
"95 720 LINE",
"175 720 LINE",
"202 800 LINE",
"122 800 LINE"
);
}
);
width = 282;
},
{
layerId = "E6A807D2-02F5-45B7-9AC8-B5230FFEC057";
paths = (
{
closed = 1;
nodes = (
"320 133 LINE",
"39 133 LINE",
"39 0 LINE",
"312 0 LINE"
);
},
{
closed = 1;
nodes = (
"320 700 LINE",
"39 700 LINE",
"39 567 LINE",
"312 567 LINE"
);
},
{
closed = 1;
nodes = (
"298 417 LINE",
"39 417 LINE",
"39 284 LINE",
"290 284 LINE"
);
},
{
closed = 1;
nodes = (
"39 0 LINE",
"175 0 LINE",
"175 700 LINE",
"39 700 LINE"
);
},
{
closed = 1;
nodes = (
"34 700 LINE",
"20 567 LINE",
"175 567 LINE",
"175 700 LINE"
);
},
{
closed = 1;
nodes = (
"108 720 LINE",
"215 720 LINE",
"251 826 LINE",
"144 826 LINE"
);
}
);
width = 340;
}
);
unicode = 00C9;
},
{
glyphname = Ecircumflex;
lastChange = "2020-11-22 23:27:29 +0000";
layers = (
{
layerId = "A98666DC-4638-42B6-8332-BBF4982DF0EF";
paths = (
{
closed = 1;
nodes = (
"38 0 LINE",
"91 0 LINE",
"91 700 LINE",
"38 700 LINE"
);
},
{
closed = 1;
nodes = (
"30 700 LINE",
"20 647 LINE",
"103 647 LINE",
"103 700 LINE"
);
},
{
closed = 1;
nodes = (
"38 377 LINE",
"38 324 LINE",
"238 324 LINE",
"244 377 LINE"
);
},
{
closed = 1;
nodes = (
"38 700 LINE",
"38 647 LINE",
"238 647 LINE",
"244 700 LINE"
);
},
{
closed = 1;
nodes = (
"38 53 LINE",
"38 0 LINE",
"238 0 LINE",
"244 53 LINE"
);
},
{
closed = 1;
nodes = (
"78 740 LINE",
"118 740 LINE",
"145 800 LINE",
"105 800 LINE"
);
},
{
closed = 1;
nodes = (
"118 800 LINE",
"145 740 LINE",
"185 740 LINE",
"158 800 LINE"
);
}
);
width = 264;
},
{
layerId = "83682BA5-5A7B-4081-8B26-D550B6F33EEB";
paths = (
{
closed = 1;
nodes = (
"73 730 LINE",
"133 730 LINE",
"165 800 LINE",
"105 800 LINE"
);
},
{
closed = 1;
nodes = (
"128 800 LINE",
"160 730 LINE",
"220 730 LINE",
"188 800 LINE"
);
},
{
closed = 1;
nodes = (
"35 397 LINE",
"35 304 LINE",
"232 304 LINE",
"242 397 LINE"
);
},
{
closed = 1;
nodes = (
"35 0 LINE",
"130 0 LINE",
"130 700 LINE",
"35 700 LINE"
);
},
{
closed = 1;
nodes = (
"35 700 LINE",
"35 607 LINE",
"252 607 LINE",
"262 700 LINE"
);
},
{
closed = 1;
nodes = (
"35 93 LINE",
"35 0 LINE",
"254 0 LINE",
"262 93 LINE"
);
},
{
closed = 1;
nodes = (
"30 700 LINE",
"20 607 LINE",
"130 607 LINE",
"130 700 LINE"
);
}
);
width = 282;
},
{
layerId = "E6A807D2-02F5-45B7-9AC8-B5230FFEC057";
paths = (
{
closed = 1;
nodes = (
"320 133 LINE",
"39 133 LINE",
"39 0 LINE",
"312 0 LINE"
);
},
{
closed = 1;
nodes = (
"320 700 LINE",
"39 700 LINE",
"39 567 LINE",
"312 567 LINE"
);
},
{
closed = 1;
nodes = (
"298 417 LINE",
"39 417 LINE",
"39 284 LINE",
"290 284 LINE"
);
},
{
closed = 1;
nodes = (
"39 0 LINE",
"175 0 LINE",
"175 700 LINE",
"39 700 LINE"
);
},
{
closed = 1;
nodes = (
"34 700 LINE",
"20 567 LINE",
"175 567 LINE",
"175 700 LINE"
);
},
{
closed = 1;
nodes = (
"79 730 LINE",
"159 730 LINE",
"201 824 LINE",
"121 824 LINE"
);
},
{
closed = 1;
nodes = (
"152 824 LINE",
"194 730 LINE",
"274 730 LINE",
"232 824 LINE"
);
},
{
closed = 1;
nodes = (
"320 133 LINE",
"39 133 LINE",
"39 0 LINE",
"312 0 LINE"
);
},
{
closed = 1;
nodes = (
"320 700 LINE",
"39 700 LINE",
"39 567 LINE",
"312 567 LINE"
);
},
{
closed = 1;
nodes = (
"298 417 LINE",
"39 417 LINE",
"39 284 LINE",
"290 284 LINE"
);
},
{
closed = 1;
nodes = (
"39 0 LINE",
"175 0 LINE",
"175 700 LINE",
"39 700 LINE"
);
},
{
closed = 1;
nodes = (
"34 700 LINE",
"20 567 LINE",
"175 567 LINE",
"175 700 LINE"
);
}
);
width = 340;
}
);
unicode = 00CA;
},
{
glyphname = Edieresis;
lastChange = "2020-11-22 23:26:52 +0000";
layers = (
{
components = (
{
name = E;
transform = "{1, 0, 0, 1, 5, 0}";
}
);
layerId = "A98666DC-4638-42B6-8332-BBF4982DF0EF";
paths = (
{
closed = 1;
nodes = (
"43 0 LINE",
"96 0 LINE",
"96 700 LINE",
"43 700 LINE"
);
},
{
closed = 1;
nodes = (
"35 700 LINE",
"25 647 LINE",
"108 647 LINE",
"108 700 LINE"
);
},
{
closed = 1;
nodes = (
"43 377 LINE",
"43 324 LINE",
"243 324 LINE",
"249 377 LINE"
);
},
{
closed = 1;
nodes = (
"43 700 LINE",
"43 647 LINE",
"243 647 LINE",
"249 700 LINE"
);
},
{
closed = 1;
nodes = (
"43 53 LINE",
"43 0 LINE",
"243 0 LINE",
"249 53 LINE"
);
},
{
closed = 1;
nodes = (
"79 747 LINE",
"132 747 LINE",
"132 800 LINE",
"79 800 LINE"
);
},
{
closed = 1;
nodes = (
"147 747 LINE",
"200 747 LINE",
"200 800 LINE",
"147 800 LINE"
);
}
);
width = 269;
},
{
layerId = "83682BA5-5A7B-4081-8B26-D550B6F33EEB";
paths = (
{
closed = 1;
nodes = (
"66 727 LINE",
"139 727 LINE",
"139 800 LINE",
"66 800 LINE"
);
},
{
closed = 1;
nodes = (
"154 727 LINE",
"227 727 LINE",
"227 800 LINE",
"154 800 LINE"
);
},
{
closed = 1;
nodes = (
"35 397 LINE",
"35 304 LINE",
"232 304 LINE",
"242 397 LINE"
);
},
{
closed = 1;
nodes = (
"35 0 LINE",
"130 0 LINE",
"130 700 LINE",
"35 700 LINE"
);
},
{
closed = 1;
nodes = (
"35 700 LINE",
"35 607 LINE",
"252 607 LINE",
"262 700 LINE"
);
},
{
closed = 1;
nodes = (
"35 93 LINE",
"35 0 LINE",
"254 0 LINE",
"262 93 LINE"
);
},
{
closed = 1;
nodes = (
"30 700 LINE",
"20 607 LINE",
"130 607 LINE",
"130 700 LINE"
);
}
);
width = 282;
},
{
layerId = "E6A807D2-02F5-45B7-9AC8-B5230FFEC057";
paths = (
{
closed = 1;
nodes = (
"320 133 LINE",
"39 133 LINE",
"39 0 LINE",
"312 0 LINE"
);
},
{
closed = 1;
nodes = (
"320 700 LINE",
"39 700 LINE",
"39 567 LINE",
"312 567 LINE"
);
},
{
closed = 1;
nodes = (
"298 417 LINE",
"39 417 LINE",
"39 284 LINE",
"290 284 LINE"
);
},
{
closed = 1;
nodes = (
"39 0 LINE",
"175 0 LINE",
"175 700 LINE",
"39 700 LINE"
);
},
{
closed = 1;
nodes = (
"34 700 LINE",
"20 567 LINE",
"175 567 LINE",
"175 700 LINE"
);
},
{
closed = 1;
nodes = (
"69 720 LINE",
"167 720 LINE",
"167 817 LINE",
"69 817 LINE"
);
},
{
closed = 1;
nodes = (
"186 720 LINE",
"284 720 LINE",
"284 817 LINE",
"186 817 LINE"
);
}
);
width = 340;
}
);
unicode = 00CB;
},
{
glyphname = Egrave;
lastChange = "2020-11-22 23:26:18 +0000";
layers = (
{
layerId = "A98666DC-4638-42B6-8332-BBF4982DF0EF";
paths = (
{
closed = 1;
nodes = (
"125 800 LINE",
"152 720 LINE",
"192 720 LINE",
"165 800 LINE"
);
},
{
closed = 1;
nodes = (
"38 0 LINE",
"91 0 LINE",
"91 700 LINE",
"38 700 LINE"
);
},
{
closed = 1;
nodes = (
"30 700 LINE",
"20 647 LINE",
"103 647 LINE",
"103 700 LINE"
);
},
{
closed = 1;
nodes = (
"38 377 LINE",
"38 324 LINE",
"238 324 LINE",
"244 377 LINE"
);
},
{
closed = 1;
nodes = (
"38 700 LINE",
"38 647 LINE",
"238 647 LINE",
"244 700 LINE"
);
},
{
closed = 1;
nodes = (
"38 53 LINE",
"38 0 LINE",
"238 0 LINE",
"244 53 LINE"
);
}
);
width = 264;
},
{
layerId = "83682BA5-5A7B-4081-8B26-D550B6F33EEB";
paths = (
{
closed = 1;
nodes = (
"78 800 LINE",
"105 720 LINE",
"185 720 LINE",
"158 800 LINE"
);
},
{
closed = 1;
nodes = (
"35 397 LINE",
"35 304 LINE",
"232 304 LINE",
"242 397 LINE"
);
},
{
closed = 1;
nodes = (
"35 0 LINE",
"130 0 LINE",
"130 700 LINE",
"35 700 LINE"
);
},
{
closed = 1;
nodes = (
"35 700 LINE",
"35 607 LINE",
"252 607 LINE",
"262 700 LINE"
);
},
{
closed = 1;
nodes = (
"35 93 LINE",
"35 0 LINE",
"254 0 LINE",
"262 93 LINE"
);
},
{
closed = 1;
nodes = (
"30 700 LINE",
"20 607 LINE",
"130 607 LINE",
"130 700 LINE"
);
}
);
width = 282;
},
{
layerId = "E6A807D2-02F5-45B7-9AC8-B5230FFEC057";
paths = (
{
closed = 1;
nodes = (
"320 133 LINE",
"39 133 LINE",
"39 0 LINE",
"312 0 LINE"
);
},
{
closed = 1;
nodes = (
"320 700 LINE",
"39 700 LINE",
"39 567 LINE",
"312 567 LINE"
);
},
{
closed = 1;
nodes = (
"298 417 LINE",
"39 417 LINE",
"39 284 LINE",
"290 284 LINE"
);
},
{
closed = 1;
nodes = (
"39 0 LINE",
"175 0 LINE",
"175 700 LINE",
"39 700 LINE"
);
},
{
closed = 1;
nodes = (
"34 700 LINE",
"20 567 LINE",
"175 567 LINE",
"175 700 LINE"
);
},
{
closed = 1;
nodes = (
"85 826 LINE",
"121 720 LINE",
"228 720 LINE",
"192 826 LINE"
);
}
);
width = 340;
}
);
unicode = 00C8;
},
{
glyphname = F;
lastChange = "2020-11-18 12:20:53 +0000";
layers = (
{
layerId = "A98666DC-4638-42B6-8332-BBF4982DF0EF";
paths = (
{
closed = 1;
nodes = (
"33 0 LINE",
"86 0 LINE",
"86 700 LINE",
"33 700 LINE"
);
},
{
closed = 1;
nodes = (
"25 700 LINE",
"15 647 LINE",
"98 647 LINE",
"98 700 LINE"
);
},
{
closed = 1;
nodes = (
"33 377 LINE",
"33 324 LINE",
"233 324 LINE",
"239 377 LINE"
);
},
{
closed = 1;
nodes = (
"33 700 LINE",
"33 647 LINE",
"233 647 LINE",
"239 700 LINE"
);
}
);
width = 259;
},
{
layerId = "83682BA5-5A7B-4081-8B26-D550B6F33EEB";
paths = (
{
closed = 1;
nodes = (
"20 397 LINE",
"20 304 LINE",
"217 304 LINE",
"227 397 LINE"
);
},
{
closed = 1;
nodes = (
"20 0 LINE",
"115 0 LINE",
"115 700 LINE",
"20 700 LINE"
);
},
{
closed = 1;
nodes = (
"20 700 LINE",
"20 607 LINE",
"237 607 LINE",
"247 700 LINE"
);
},
{
closed = 1;
nodes = (
"15 700 LINE",
"5 607 LINE",
"115 607 LINE",
"115 700 LINE"
);
}
);
width = 267;
},
{
layerId = "E6A807D2-02F5-45B7-9AC8-B5230FFEC057";
paths = (
{
closed = 1;
nodes = (
"320 700 LINE",
"39 700 LINE",
"39 567 LINE",
"312 567 LINE"
);
},
{
closed = 1;
nodes = (
"298 417 LINE",
"39 417 LINE",
"39 284 LINE",
"290 284 LINE"
);
},
{
closed = 1;
nodes = (
"39 0 LINE",
"175 0 LINE",
"175 700 LINE",
"39 700 LINE"
);
},
{
closed = 1;
nodes = (
"34 700 LINE",
"20 567 LINE",
"175 567 LINE",
"175 700 LINE"
);
}
);
width = 340;
},
{
associatedMasterId = "83682BA5-5A7B-4081-8B26-D550B6F33EEB";
layerId = "F864585E-EDBF-4288-B2C4-72380936060D";
name = "Oct 27 20, 23:40";
paths = (
{
closed = 1;
nodes = (
"20 298 LINE",
"20 205 LINE",
"247 205 LINE",
"247 298 LINE"
);
},
{
closed = 1;
nodes = (
"20 0 LINE",
"115 0 LINE",
"115 600 LINE",
"20 600 LINE"
);
},
{
closed = 1;
nodes = (
"20 600 LINE",
"20 507 LINE",
"247 507 LINE",
"247 600 LINE"
);
}
);
width = 267;
}
);
unicode = 0046;
},
{
glyphname = G;
lastChange = "2020-11-15 18:29:11 +0000";
layers = (
{
layerId = "A98666DC-4638-42B6-8332-BBF4982DF0EF";
paths = (
{
closed = 1;
nodes = (
"125 704 LINE SMOOTH",
"56 704 OFFCURVE",
"20 672 OFFCURVE",
"20 611 CURVE SMOOTH",
"20 300 LINE",
"73 300 LINE",
"72 328 OFFCURVE",
"73 583 OFFCURVE",
"73 611 CURVE SMOOTH",
"73 637 OFFCURVE",
"91 651 OFFCURVE",
"125 651 CURVE SMOOTH",
"174 651 OFFCURVE",
"103 651 OFFCURVE",
"152 651 CURVE",
"152 704 LINE"
);
},
{
closed = 1;
nodes = (
"143 46 LINE",
"94 46 OFFCURVE",
"174 46 OFFCURVE",
"125 46 CURVE SMOOTH",
"91 46 OFFCURVE",
"73 63 OFFCURVE",
"73 97 CURVE SMOOTH",
"73 125 OFFCURVE",
"73 272 OFFCURVE",
"73 300 CURVE",
"20 300 LINE",
"20 97 LINE SMOOTH",
"20 29 OFFCURVE",
"56 -7 OFFCURVE",
"125 -7 CURVE SMOOTH",
"143 -7 LINE"
);
},
{
closed = 1;
nodes = (
"143 -7 LINE SMOOTH",
"212 -7 OFFCURVE",
"248 29 OFFCURVE",
"248 97 CURVE SMOOTH",
"248 304 LINE",
"195 304 LINE",
"193 276 OFFCURVE",
"195 125 OFFCURVE",
"195 97 CURVE SMOOTH",
"195 63 OFFCURVE",
"177 46 OFFCURVE",
"143 46 CURVE SMOOTH",
"94 46 OFFCURVE",
"180 46 OFFCURVE",
"131 46 CURVE",
"131 -7 LINE"
);
},
{
closed = 1;
nodes = (
"131 651 LINE",
"180 651 OFFCURVE",
"94 651 OFFCURVE",
"143 651 CURVE SMOOTH",
"177 651 OFFCURVE",
"195 634 OFFCURVE",
"195 600 CURVE",
"195 456 LINE",
"248 450 LINE",
"248 600 LINE SMOOTH",
"248 668 OFFCURVE",
"212 704 OFFCURVE",
"143 704 CURVE SMOOTH",
"131 704 LINE"
);
},
{
closed = 1;
nodes = (
"135 304 LINE",
"248 304 LINE",
"248 357 LINE",
"141 357 LINE"
);
}
);
width = 268;
},
{
layerId = "83682BA5-5A7B-4081-8B26-D550B6F33EEB";
paths = (
{
closed = 1;
nodes = (
"10 33 OFFCURVE",
"48 -4 OFFCURVE",
"104 -4 CURVE SMOOTH",
"176 -4 LINE SMOOTH",
"232 -4 OFFCURVE",
"270 33 OFFCURVE",
"270 89 CURVE SMOOTH",
"270 397 LINE",
"146 397 LINE",
"136 304 LINE",
"217 304 LINE",
"175 346 LINE",
"175 47 LINE",
"217 89 LINE",
"63 89 LINE",
"105 47 LINE",
"105 653 LINE",
"63 611 LINE",
"217 611 LINE",
"175 653 LINE",
"175 457 LINE",
"270 447 LINE",
"270 611 LINE SMOOTH",
"270 667 OFFCURVE",
"232 704 OFFCURVE",
"176 704 CURVE SMOOTH",
"104 704 LINE SMOOTH",
"48 704 OFFCURVE",
"10 667 OFFCURVE",
"10 611 CURVE SMOOTH",
"10 89 LINE SMOOTH"
);
}
);
width = 290;
},
{
layerId = "E6A807D2-02F5-45B7-9AC8-B5230FFEC057";
paths = (
{
closed = 1;
nodes = (
"202 129 LINE",
"112 129 LINE",
"156 87 LINE",
"156 400 LINE",
"20 400 LINE",
"20 139 LINE SMOOTH",
"20 37 OFFCURVE",
"61 -4 OFFCURVE",
"164 -4 CURVE SMOOTH",
"202 -4 LINE"
);
},
{
closed = 1;
nodes = (
"164 704 LINE SMOOTH",
"61 704 OFFCURVE",
"20 663 OFFCURVE",
"20 561 CURVE SMOOTH",
"20 400 LINE",
"156 400 LINE",
"156 613 LINE",
"112 571 LINE",
"202 571 LINE",
"202 704 LINE"
);
},
{
closed = 1;
nodes = (
"218 -4 LINE SMOOTH",
"321 -4 OFFCURVE",
"362 37 OFFCURVE",
"362 139 CURVE SMOOTH",
"362 416 LINE",
"226 416 LINE",
"226 87 LINE",
"270 129 LINE",
"180 129 LINE",
"180 -4 LINE"
);
},
{
closed = 1;
nodes = (
"180 571 LINE",
"270 571 LINE",
"226 613 LINE",
"226 477 LINE",
"362 462 LINE",
"362 561 LINE SMOOTH",
"362 663 OFFCURVE",
"321 704 OFFCURVE",
"218 704 CURVE SMOOTH",
"180 704 LINE"
);
},
{
closed = 1;
nodes = (
"362 416 LINE",
"194 416 LINE",
"186 283 LINE",
"362 283 LINE"
);
}
);
width = 382;
},
{
associatedMasterId = "83682BA5-5A7B-4081-8B26-D550B6F33EEB";
layerId = "1EE25AF3-15EE-4EE2-A710-579D6373080C";
name = "Oct 29 20, 16:51";
paths = (
{
closed = 1;
nodes = (
"186 0 LINE SMOOTH",
"242 0 OFFCURVE",
"280 37 OFFCURVE",
"280 93 CURVE SMOOTH",
"280 398 LINE",
"185 398 LINE",
"185 51 LINE",
"229 93 LINE",
"138 93 LINE",
"138 0 LINE"
);
},
{
closed = 1;
nodes = (
"162 93 LINE",
"71 93 LINE",
"115 51 LINE",
"115 400 LINE",
"20 400 LINE",
"20 93 LINE SMOOTH",
"20 37 OFFCURVE",
"58 0 OFFCURVE",
"114 0 CURVE SMOOTH",
"162 0 LINE"
);
},
{
closed = 1;
nodes = (
"138 607 LINE",
"229 607 LINE",
"185 649 LINE",
"185 447 LINE",
"280 447 LINE",
"280 607 LINE SMOOTH",
"280 663 OFFCURVE",
"242 700 OFFCURVE",
"186 700 CURVE SMOOTH",
"138 700 LINE"
);
},
{
closed = 1;
nodes = (
"114 700 LINE SMOOTH",
"58 700 OFFCURVE",
"20 663 OFFCURVE",
"20 607 CURVE SMOOTH",
"20 400 LINE",
"115 400 LINE",
"115 649 LINE",
"71 607 LINE",
"162 607 LINE",
"162 700 LINE"
);
},
{
closed = 1;
nodes = (
"280 398 LINE",
"154 398 LINE",
"146 305 LINE",
"280 305 LINE"
);
}
);
width = 300;
}
);
unicode = 0047;
},
{
glyphname = H;
lastChange = "2020-11-18 12:20:23 +0000";
layers = (
{
layerId = "A98666DC-4638-42B6-8332-BBF4982DF0EF";
paths = (
{
closed = 1;
nodes = (
"33 0 LINE",
"86 0 LINE",
"86 700 LINE",
"33 700 LINE"
);
},
{
closed = 1;
nodes = (
"25 700 LINE",
"15 647 LINE",
"86 647 LINE",
"86 700 LINE"
);
},
{
closed = 1;
nodes = (
"33 377 LINE",
"33 324 LINE",
"239 324 LINE",
"239 377 LINE"
);
},
{
closed = 1;
nodes = (
"186 0 LINE",
"239 0 LINE",
"239 700 LINE",
"186 700 LINE"
);
}
);
width = 259;
},
{
layerId = "83682BA5-5A7B-4081-8B26-D550B6F33EEB";
paths = (
{
closed = 1;
nodes = (
"25 0 LINE",
"120 0 LINE",
"120 700 LINE",
"25 700 LINE"
);
},
{
closed = 1;
nodes = (
"177 0 LINE",
"272 0 LINE",
"272 700 LINE",
"177 700 LINE"
);
},
{
closed = 1;
nodes = (
"25 398 LINE",
"25 305 LINE",
"272 305 LINE",
"272 398 LINE"
);
},
{
closed = 1;
nodes = (
"20 700 LINE",
"10 607 LINE",
"120 607 LINE",
"120 700 LINE"
);
}
);
width = 292;
},
{
layerId = "E6A807D2-02F5-45B7-9AC8-B5230FFEC057";
paths = (
{
closed = 1;
nodes = (
"39 0 LINE",
"175 0 LINE",
"175 700 LINE",
"39 700 LINE"
);
},
{
closed = 1;
nodes = (
"34 700 LINE",
"20 567 LINE",
"175 567 LINE",
"175 700 LINE"
);
},
{
closed = 1;
nodes = (
"230 0 LINE",
"366 0 LINE",
"366 700 LINE",
"230 700 LINE"
);
},
{
closed = 1;
nodes = (
"366 396 LINE",
"39 396 LINE",
"39 263 LINE",
"366 263 LINE"
);
}
);
width = 386;
}
);
unicode = 0048;
},
{
glyphname = I;
lastChange = "2020-11-15 18:33:44 +0000";
layers = (
{
layerId = "A98666DC-4638-42B6-8332-BBF4982DF0EF";
paths = (
{
closed = 1;
nodes = (
"33 0 LINE",
"86 0 LINE",
"86 700 LINE",
"33 700 LINE"
);
},
{
closed = 1;
nodes = (
"25 700 LINE",
"15 647 LINE",
"86 647 LINE",
"86 700 LINE"
);
}
);
width = 106;
},
{
layerId = "83682BA5-5A7B-4081-8B26-D550B6F33EEB";
paths = (
{
closed = 1;
nodes = (
"25 0 LINE",
"120 0 LINE",
"120 700 LINE",
"25 700 LINE"
);
},
{
closed = 1;
nodes = (
"20 700 LINE",
"10 607 LINE",
"120 607 LINE",
"120 700 LINE"
);
}
);
width = 140;
},
{
layerId = "E6A807D2-02F5-45B7-9AC8-B5230FFEC057";
paths = (
{
closed = 1;
nodes = (
"39 0 LINE",
"175 0 LINE",
"175 700 LINE",
"39 700 LINE"
);
},
{
closed = 1;
nodes = (
"34 700 LINE",
"20 567 LINE",
"175 567 LINE",
"175 700 LINE"
);
},
{
closed = 1;
nodes = (
"39 0 LINE",
"175 0 LINE",
"175 700 LINE",
"39 700 LINE"
);
},
{
closed = 1;
nodes = (
"34 700 LINE",
"20 567 LINE",
"175 567 LINE",
"175 700 LINE"
);
}
);
width = 195;
}
);
unicode = 0049;
},
{
glyphname = Iacute;
lastChange = "2020-11-22 22:03:37 +0000";
layers = (
{
layerId = "A98666DC-4638-42B6-8332-BBF4982DF0EF";
paths = (
{
closed = 1;
nodes = (
"38 0 LINE",
"91 0 LINE",
"91 700 LINE",
"38 700 LINE"
);
},
{
closed = 1;
nodes = (
"30 700 LINE",
"20 647 LINE",
"91 647 LINE",
"91 700 LINE"
);
},
{
closed = 1;
nodes = (
"30 720 LINE",
"70 720 LINE",
"97 800 LINE",
"57 800 LINE"
);
}
);
width = 117;
},
{
layerId = "83682BA5-5A7B-4081-8B26-D550B6F33EEB";
paths = (
{
closed = 1;
nodes = (
"35 0 LINE",
"130 0 LINE",
"130 700 LINE",
"35 700 LINE"
);
},
{
closed = 1;
nodes = (
"30 700 LINE",
"20 607 LINE",
"130 607 LINE",
"130 700 LINE"
);
},
{
closed = 1;
nodes = (
"30 720 LINE",
"110 720 LINE",
"137 800 LINE",
"57 800 LINE"
);
}
);
width = 157;
},
{
components = (
{
name = I;
}
);
layerId = "E6A807D2-02F5-45B7-9AC8-B5230FFEC057";
paths = (
{
closed = 1;
nodes = (
"39 0 LINE",
"175 0 LINE",
"175 700 LINE",
"39 700 LINE"
);
},
{
closed = 1;
nodes = (
"34 700 LINE",
"20 567 LINE",
"175 567 LINE",
"175 700 LINE"
);
},
{
closed = 1;
nodes = (
"39 0 LINE",
"175 0 LINE",
"175 700 LINE",
"39 700 LINE"
);
},
{
closed = 1;
nodes = (
"34 700 LINE",
"20 567 LINE",
"175 567 LINE",
"175 700 LINE"
);
},
{
closed = 1;
nodes = (
"39 720 LINE",
"146 720 LINE",
"182 826 LINE",
"75 826 LINE"
);
}
);
width = 202;
}
);
unicode = 00CD;
},
{
glyphname = Icircumflex;
lastChange = "2020-11-22 22:02:54 +0000";
layers = (
{
layerId = "A98666DC-4638-42B6-8332-BBF4982DF0EF";
paths = (
{
closed = 1;
nodes = (
"51 0 LINE",
"104 0 LINE",
"104 700 LINE",
"51 700 LINE"
);
},
{
closed = 1;
nodes = (
"43 700 LINE",
"33 647 LINE",
"104 647 LINE",
"104 700 LINE"
);
},
{
closed = 1;
nodes = (
"20 740 LINE",
"60 740 LINE",
"87 800 LINE",
"47 800 LINE"
);
},
{
closed = 1;
nodes = (
"60 800 LINE",
"87 740 LINE",
"127 740 LINE",
"100 800 LINE"
);
}
);
width = 147;
},
{
layerId = "83682BA5-5A7B-4081-8B26-D550B6F33EEB";
paths = (
{
closed = 1;
nodes = (
"46 0 LINE",
"141 0 LINE",
"141 700 LINE",
"46 700 LINE"
);
},
{
closed = 1;
nodes = (
"41 700 LINE",
"31 607 LINE",
"141 607 LINE",
"141 700 LINE"
);
},
{
closed = 1;
nodes = (
"20 730 LINE",
"80 730 LINE",
"112 800 LINE",
"52 800 LINE"
);
},
{
closed = 1;
nodes = (
"75 800 LINE",
"107 730 LINE",
"167 730 LINE",
"135 800 LINE"
);
}
);
width = 187;
},
{
layerId = "E6A807D2-02F5-45B7-9AC8-B5230FFEC057";
paths = (
{
closed = 1;
nodes = (
"53 0 LINE",
"189 0 LINE",
"189 700 LINE",
"53 700 LINE"
);
},
{
closed = 1;
nodes = (
"48 700 LINE",
"34 567 LINE",
"189 567 LINE",
"189 700 LINE"
);
},
{
closed = 1;
nodes = (
"53 0 LINE",
"189 0 LINE",
"189 700 LINE",
"53 700 LINE"
);
},
{
closed = 1;
nodes = (
"48 700 LINE",
"34 567 LINE",
"189 567 LINE",
"189 700 LINE"
);
},
{
closed = 1;
nodes = (
"20 730 LINE",
"100 730 LINE",
"142 824 LINE",
"62 824 LINE"
);
},
{
closed = 1;
nodes = (
"93 824 LINE",
"135 730 LINE",
"215 730 LINE",
"173 824 LINE"
);
}
);
width = 235;
}
);
unicode = 00CE;
},
{
glyphname = Idieresis;
lastChange = "2020-11-22 22:02:31 +0000";
layers = (
{
layerId = "A98666DC-4638-42B6-8332-BBF4982DF0EF";
paths = (
{
closed = 1;
nodes = (
"34 0 LINE",
"87 0 LINE",
"87 700 LINE",
"34 700 LINE"
);
},
{
closed = 1;
nodes = (
"26 700 LINE",
"16 647 LINE",
"87 647 LINE",
"87 700 LINE"
);
},
{
closed = 1;
nodes = (
"0 747 LINE",
"53 747 LINE",
"53 800 LINE",
"0 800 LINE"
);
},
{
closed = 1;
nodes = (
"68 747 LINE",
"121 747 LINE",
"121 800 LINE",
"68 800 LINE"
);
}
);
width = 121;
},
{
layerId = "83682BA5-5A7B-4081-8B26-D550B6F33EEB";
paths = (
{
closed = 1;
nodes = (
"34 0 LINE",
"129 0 LINE",
"129 700 LINE",
"34 700 LINE"
);
},
{
closed = 1;
nodes = (
"29 700 LINE",
"19 607 LINE",
"129 607 LINE",
"129 700 LINE"
);
},
{
closed = 1;
nodes = (
"0 727 LINE",
"73 727 LINE",
"73 800 LINE",
"0 800 LINE"
);
},
{
closed = 1;
nodes = (
"88 727 LINE",
"161 727 LINE",
"161 800 LINE",
"88 800 LINE"
);
}
);
width = 161;
},
{
layerId = "E6A807D2-02F5-45B7-9AC8-B5230FFEC057";
paths = (
{
closed = 1;
nodes = (
"63 0 LINE",
"199 0 LINE",
"199 700 LINE",
"63 700 LINE"
);
},
{
closed = 1;
nodes = (
"58 700 LINE",
"44 567 LINE",
"199 567 LINE",
"199 700 LINE"
);
},
{
closed = 1;
nodes = (
"63 0 LINE",
"199 0 LINE",
"199 700 LINE",
"63 700 LINE"
);
},
{
closed = 1;
nodes = (
"58 700 LINE",
"44 567 LINE",
"199 567 LINE",
"199 700 LINE"
);
},
{
closed = 1;
nodes = (
"20 720 LINE",
"118 720 LINE",
"118 817 LINE",
"20 817 LINE"
);
},
{
closed = 1;
nodes = (
"137 720 LINE",
"235 720 LINE",
"235 817 LINE",
"137 817 LINE"
);
}
);
width = 255;
}
);
unicode = 00CF;
},
{
glyphname = Igrave;
lastChange = "2020-11-22 22:04:12 +0000";
layers = (
{
layerId = "A98666DC-4638-42B6-8332-BBF4982DF0EF";
paths = (
{
closed = 1;
nodes = (
"41 0 LINE",
"94 0 LINE",
"94 700 LINE",
"41 700 LINE"
);
},
{
closed = 1;
nodes = (
"33 700 LINE",
"23 647 LINE",
"94 647 LINE",
"94 700 LINE"
);
},
{
closed = 1;
nodes = (
"20 800 LINE",
"47 720 LINE",
"87 720 LINE",
"60 800 LINE"
);
}
);
width = 114;
},
{
layerId = "83682BA5-5A7B-4081-8B26-D550B6F33EEB";
paths = (
{
closed = 1;
nodes = (
"37 0 LINE",
"132 0 LINE",
"132 700 LINE",
"37 700 LINE"
);
},
{
closed = 1;
nodes = (
"32 700 LINE",
"22 607 LINE",
"132 607 LINE",
"132 700 LINE"
);
},
{
closed = 1;
nodes = (
"20 800 LINE",
"47 720 LINE",
"127 720 LINE",
"100 800 LINE"
);
}
);
width = 152;
},
{
layerId = "E6A807D2-02F5-45B7-9AC8-B5230FFEC057";
paths = (
{
closed = 1;
nodes = (
"39 0 LINE",
"175 0 LINE",
"175 700 LINE",
"39 700 LINE"
);
},
{
closed = 1;
nodes = (
"34 700 LINE",
"20 567 LINE",
"175 567 LINE",
"175 700 LINE"
);
},
{
closed = 1;
nodes = (
"39 0 LINE",
"175 0 LINE",
"175 700 LINE",
"39 700 LINE"
);
},
{
closed = 1;
nodes = (
"34 700 LINE",
"20 567 LINE",
"175 567 LINE",
"175 700 LINE"
);
},
{
closed = 1;
nodes = (
"20 826 LINE",
"56 720 LINE",
"163 720 LINE",
"127 826 LINE"
);
}
);
width = 195;
}
);
unicode = 00CC;
},
{
glyphname = J;
lastChange = "2020-11-15 18:37:24 +0000";
layers = (
{
layerId = "A98666DC-4638-42B6-8332-BBF4982DF0EF";
paths = (
{
closed = 1;
nodes = (
"119 700 LINE",
"107 647 LINE",
"200 647 LINE",
"200 700 LINE"
);
},
{
closed = 1;
nodes = (
"20 29 OFFCURVE",
"51 -7 OFFCURVE",
"110 -7 CURVE SMOOTH",
"169 -7 OFFCURVE",
"200 29 OFFCURVE",
"200 97 CURVE SMOOTH",
"200 700 LINE",
"147 700 LINE",
"147 97 LINE SMOOTH",
"147 63 OFFCURVE",
"134 46 OFFCURVE",
"110 46 CURVE SMOOTH",
"86 46 OFFCURVE",
"73 63 OFFCURVE",
"73 97 CURVE SMOOTH",
"73 125 OFFCURVE",
"75 276 OFFCURVE",
"73 304 CURVE",
"20 304 LINE",
"20 97 LINE SMOOTH"
);
}
);
width = 220;
},
{
layerId = "83682BA5-5A7B-4081-8B26-D550B6F33EEB";
paths = (
{
closed = 1;
nodes = (
"162 89 LINE",
"71 89 LINE",
"115 47 LINE",
"115 298 LINE",
"20 298 LINE",
"20 89 LINE SMOOTH",
"20 33 OFFCURVE",
"58 -4 OFFCURVE",
"114 -4 CURVE SMOOTH",
"162 -4 LINE"
);
},
{
closed = 1;
nodes = (
"156 -4 LINE SMOOTH",
"212 -4 OFFCURVE",
"250 33 OFFCURVE",
"250 89 CURVE SMOOTH",
"250 700 LINE",
"155 700 LINE",
"155 47 LINE",
"199 89 LINE",
"108 89 LINE",
"108 -4 LINE"
);
},
{
closed = 1;
nodes = (
"250 700 LINE",
"123 700 LINE",
"115 607 LINE",
"250 607 LINE"
);
}
);
width = 270;
},
{
layerId = "E6A807D2-02F5-45B7-9AC8-B5230FFEC057";
paths = (
{
closed = 1;
nodes = (
"178 -8 LINE SMOOTH",
"281 -8 OFFCURVE",
"322 33 OFFCURVE",
"322 135 CURVE SMOOTH",
"322 700 LINE",
"186 700 LINE",
"186 83 LINE",
"230 125 LINE",
"140 125 LINE",
"140 -8 LINE"
);
},
{
closed = 1;
nodes = (
"202 125 LINE",
"112 125 LINE",
"156 83 LINE",
"156 290 LINE",
"20 290 LINE",
"20 135 LINE SMOOTH",
"20 33 OFFCURVE",
"61 -8 OFFCURVE",
"164 -8 CURVE SMOOTH",
"202 -8 LINE"
);
},
{
closed = 1;
nodes = (
"110 700 LINE",
"96 567 LINE",
"252 567 LINE",
"252 700 LINE"
);
}
);
width = 342;
}
);
unicode = 004A;
},
{
glyphname = K;
lastChange = "2020-11-18 12:20:45 +0000";
layers = (
{
layerId = "A98666DC-4638-42B6-8332-BBF4982DF0EF";
paths = (
{
closed = 1;
nodes = (
"67 397 LINE",
"117 397 LINE",
"253 700 LINE",
"203 700 LINE"
);
},
{
closed = 1;
nodes = (
"263 0 LINE",
"117 397 LINE",
"67 397 LINE",
"213 0 LINE"
);
},
{
closed = 1;
nodes = (
"33 0 LINE",
"86 0 LINE",
"86 700 LINE",
"33 700 LINE"
);
},
{
closed = 1;
nodes = (
"25 700 LINE",
"15 647 LINE",
"86 647 LINE",
"86 700 LINE"
);
}
);
width = 283;
},
{
layerId = "83682BA5-5A7B-4081-8B26-D550B6F33EEB";
paths = (
{
closed = 1;
nodes = (
"81 418 LINE",
"186 418 LINE",
"312 700 LINE",
"207 700 LINE"
);
},
{
closed = 1;
nodes = (
"322 0 LINE",
"186 418 LINE",
"81 418 LINE",
"217 0 LINE"
);
},
{
closed = 1;
nodes = (
"120 0 LINE",
"120 700 LINE",
"25 700 LINE",
"25 0 LINE"
);
},
{
closed = 1;
nodes = (
"20 700 LINE",
"10 607 LINE",
"120 607 LINE",
"120 700 LINE"
);
}
);
width = 322;
},
{
layerId = "E6A807D2-02F5-45B7-9AC8-B5230FFEC057";
paths = (
{
closed = 1;
nodes = (
"39 0 LINE",
"175 0 LINE",
"175 700 LINE",
"39 700 LINE"
);
},
{
closed = 1;
nodes = (
"34 700 LINE",
"20 567 LINE",
"175 567 LINE",
"175 700 LINE"
);
},
{
closed = 1;
nodes = (
"39 0 LINE",
"175 0 LINE",
"175 700 LINE",
"39 700 LINE"
);
},
{
closed = 1;
nodes = (
"34 700 LINE",
"20 567 LINE",
"175 567 LINE",
"175 700 LINE"
);
},
{
closed = 1;
nodes = (
"279 0 LINE",
"409 0 LINE",
"254 408 LINE",
"124 408 LINE"
);
},
{
closed = 1;
nodes = (
"254 408 LINE",
"391 700 LINE",
"261 700 LINE",
"124 408 LINE"
);
}
);
width = 414;
},
{
associatedMasterId = "83682BA5-5A7B-4081-8B26-D550B6F33EEB";
layerId = "2A2D695C-A5F6-4E0A-8169-2F439C2D75F7";
name = "Oct 28 20, 00:24";
paths = (
{
closed = 1;
nodes = (
"20 0 LINE",
"115 0 LINE",
"115 600 LINE",
"20 600 LINE"
);
},
{
closed = 1;
nodes = (
"122 349 LINE",
"217 349 LINE",
"284 600 LINE",
"189 600 LINE"
);
},
{
closed = 1;
nodes = (
"20 277 LINE",
"206 277 LINE",
"162 319 LINE",
"162 0 LINE",
"257 0 LINE",
"257 277 LINE SMOOTH",
"257 333 OFFCURVE",
"219 370 OFFCURVE",
"163 370 CURVE SMOOTH",
"20 370 LINE"
);
}
);
width = 294;
},
{
associatedMasterId = "83682BA5-5A7B-4081-8B26-D550B6F33EEB";
layerId = "CE26E4AB-DEE4-4F15-80C7-CFB783F8D733";
name = "Nov 2 20, 17:49";
paths = (
{
closed = 1;
nodes = (
"120 0 LINE",
"120 700 LINE",
"25 700 LINE",
"25 0 LINE"
);
},
{
closed = 1;
nodes = (
"85 431 LINE",
"204 0 LINE",
"301 0 LINE",
"182 431 LINE"
);
},
{
closed = 1;
nodes = (
"291 700 LINE",
"194 700 LINE",
"84 392 LINE",
"181 392 LINE"
);
},
{
closed = 1;
nodes = (
"20 700 LINE",
"10 607 LINE",
"120 607 LINE",
"120 700 LINE"
);
}
);
width = 301;
}
);
unicode = 004B;
},
{
glyphname = L;
lastChange = "2020-11-15 18:41:47 +0000";
layers = (
{
layerId = "A98666DC-4638-42B6-8332-BBF4982DF0EF";
paths = (
{
closed = 1;
nodes = (
"33 0 LINE",
"86 0 LINE",
"86 700 LINE",
"33 700 LINE"
);
},
{
closed = 1;
nodes = (
"25 700 LINE",
"15 647 LINE",
"86 647 LINE",
"86 700 LINE"
);
},
{
closed = 1;
nodes = (
"33 53 LINE",
"33 0 LINE",
"252 0 LINE",
"264 53 LINE"
);
}
);
width = 284;
},
{
layerId = "83682BA5-5A7B-4081-8B26-D550B6F33EEB";
paths = (
{
closed = 1;
nodes = (
"25 0 LINE",
"120 0 LINE",
"120 700 LINE",
"25 700 LINE"
);
},
{
closed = 1;
nodes = (
"25 93 LINE",
"25 0 LINE",
"264 0 LINE",
"272 93 LINE"
);
},
{
closed = 1;
nodes = (
"20 700 LINE",
"10 607 LINE",
"120 607 LINE",
"120 700 LINE"
);
}
);
width = 292;
},
{
layerId = "E6A807D2-02F5-45B7-9AC8-B5230FFEC057";
paths = (
{
closed = 1;
nodes = (
"39 0 LINE",
"175 0 LINE",
"175 700 LINE",
"39 700 LINE"
);
},
{
closed = 1;
nodes = (
"34 700 LINE",
"20 567 LINE",
"175 567 LINE",
"175 700 LINE"
);
},
{
closed = 1;
nodes = (
"39 0 LINE",
"175 0 LINE",
"175 700 LINE",
"39 700 LINE"
);
},
{
closed = 1;
nodes = (
"34 700 LINE",
"20 567 LINE",
"175 567 LINE",
"175 700 LINE"
);
},
{
closed = 1;
nodes = (
"366 133 LINE",
"39 133 LINE",
"39 0 LINE",
"358 0 LINE"
);
}
);
width = 386;
}
);
unicode = 004C;
},
{
glyphname = M;
lastChange = "2020-11-15 18:43:20 +0000";
layers = (
{
layerId = "A98666DC-4638-42B6-8332-BBF4982DF0EF";
paths = (
{
closed = 1;
nodes = (
"33 0 LINE",
"86 0 LINE",
"86 700 LINE",
"33 700 LINE"
);
},
{
closed = 1;
nodes = (
"25 700 LINE",
"15 647 LINE",
"86 647 LINE",
"86 700 LINE"
);
},
{
closed = 1;
nodes = (
"320 0 LINE",
"373 0 LINE",
"373 700 LINE",
"320 700 LINE"
);
},
{
closed = 1;
nodes = (
"173 99 LINE",
"233 99 LINE",
"336 700 LINE",
"284 700 LINE",
"195 164 LINE",
"211 164 LINE",
"122 700 LINE",
"70 700 LINE"
);
}
);
width = 393;
},
{
layerId = "83682BA5-5A7B-4081-8B26-D550B6F33EEB";
paths = (
{
closed = 1;
nodes = (
"120 700 LINE",
"25 700 LINE",
"25 0 LINE",
"120 0 LINE"
);
},
{
closed = 1;
nodes = (
"426 700 LINE",
"331 700 LINE",
"331 0 LINE",
"426 0 LINE"
);
},
{
closed = 1;
nodes = (
"20 700 LINE",
"10 607 LINE",
"120 607 LINE",
"120 700 LINE"
);
},
{
closed = 1;
nodes = (
"257 100 LINE",
"357 700 LINE",
"273 700 LINE",
"219 284 LINE",
"229 283 LINE",
"176 700 LINE",
"92 700 LINE",
"192 100 LINE",
"192 99 LINE",
"257 99 LINE"
);
}
);
width = 446;
},
{
layerId = "E6A807D2-02F5-45B7-9AC8-B5230FFEC057";
paths = (
{
closed = 1;
nodes = (
"39 0 LINE",
"175 0 LINE",
"175 700 LINE",
"39 700 LINE"
);
},
{
closed = 1;
nodes = (
"34 700 LINE",
"20 567 LINE",
"175 567 LINE",
"175 700 LINE"
);
},
{
closed = 1;
nodes = (
"376 0 LINE",
"512 0 LINE",
"512 700 LINE",
"376 700 LINE"
);
},
{
closed = 1;
nodes = (
"323 100 LINE",
"423 700 LINE",
"324 700 LINE",
"270 284 LINE",
"280 283 LINE",
"227 700 LINE",
"128 700 LINE",
"228 100 LINE"
);
}
);
width = 532;
},
{
associatedMasterId = "83682BA5-5A7B-4081-8B26-D550B6F33EEB";
layerId = "4A6641A1-0FA3-46A2-B657-680EB295C6A8";
name = "Oct 27 20, 21:10";
paths = (
{
closed = 1;
nodes = (
"20 0 LINE",
"115 0 LINE",
"115 362 LINE",
"20 362 LINE"
);
},
{
closed = 1;
nodes = (
"130 507 LINE",
"216 507 LINE",
"172 549 LINE",
"172 0 LINE",
"267 0 LINE",
"267 507 LINE SMOOTH",
"267 563 OFFCURVE",
"229 600 OFFCURVE",
"173 600 CURVE SMOOTH",
"130 600 LINE"
);
},
{
closed = 1;
nodes = (
"114 600 LINE SMOOTH",
"58 600 OFFCURVE",
"20 563 OFFCURVE",
"20 507 CURVE SMOOTH",
"20 300 LINE",
"115 300 LINE",
"115 549 LINE",
"71 507 LINE",
"162 507 LINE",
"162 600 LINE"
);
},
{
closed = 1;
nodes = (
"283 507 LINE",
"369 507 LINE",
"325 549 LINE",
"325 0 LINE",
"420 0 LINE",
"420 507 LINE SMOOTH",
"420 563 OFFCURVE",
"382 600 OFFCURVE",
"326 600 CURVE SMOOTH",
"283 600 LINE"
);
},
{
closed = 1;
nodes = (
"267 600 LINE SMOOTH",
"211 600 OFFCURVE",
"173 563 OFFCURVE",
"173 507 CURVE SMOOTH",
"173 300 LINE",
"268 300 LINE",
"268 549 LINE",
"224 507 LINE",
"315 507 LINE",
"315 600 LINE"
);
}
);
width = 440;
},
{
associatedMasterId = "83682BA5-5A7B-4081-8B26-D550B6F33EEB";
layerId = "22DCF644-13F3-4D2C-A2AE-216C08B3D9FD";
name = "Oct 27 20, 23:26";
paths = (
{
closed = 1;
nodes = (
"266 109 LINE",
"151 600 LINE",
"55 600 LINE",
"171 109 LINE"
);
},
{
closed = 1;
nodes = (
"20 0 LINE",
"115 0 LINE",
"115 600 LINE",
"20 600 LINE"
);
},
{
closed = 1;
nodes = (
"382 600 LINE",
"286 600 LINE",
"171 109 LINE",
"266 109 LINE"
);
},
{
closed = 1;
nodes = (
"322 600 LINE",
"322 0 LINE",
"417 0 LINE",
"417 600 LINE"
);
}
);
width = 437;
},
{
associatedMasterId = "83682BA5-5A7B-4081-8B26-D550B6F33EEB";
layerId = "0CDBED97-B1E3-405F-AFED-8FAB343B6284";
name = "Oct 28 20, 00:06";
paths = (
{
closed = 1;
nodes = (
"117 600 LINE",
"20 600 LINE",
"20 0 LINE",
"117 0 LINE"
);
},
{
closed = 1;
nodes = (
"20 600 LINE",
"20 507 LINE",
"191 507 LINE",
"191 600 LINE"
);
},
{
closed = 1;
nodes = (
"163 285 LINE",
"257 285 LINE",
"315 600 LINE",
"229 600 LINE",
"207 394 LINE",
"213 394 LINE",
"191 600 LINE",
"105 600 LINE"
);
},
{
closed = 1;
nodes = (
"400 0 LINE",
"400 600 LINE",
"303 600 LINE",
"303 0 LINE"
);
},
{
closed = 1;
nodes = (
"229 507 LINE",
"400 507 LINE",
"400 600 LINE",
"229 600 LINE"
);
}
);
width = 420;
},
{
associatedMasterId = "83682BA5-5A7B-4081-8B26-D550B6F33EEB";
layerId = "9C643CAC-44E4-4ECA-8888-52B9251DB811";
name = "Oct 29 20, 13:54";
paths = (
{
closed = 1;
nodes = (
"115 600 LINE",
"20 600 LINE",
"20 0 LINE",
"115 0 LINE"
);
},
{
closed = 1;
nodes = (
"70 600 LINE",
"155 120 LINE",
"231 120 LINE",
"145 600 LINE"
);
},
{
closed = 1;
nodes = (
"155 120 LINE",
"231 120 LINE",
"316 600 LINE",
"241 600 LINE"
);
},
{
closed = 1;
nodes = (
"366 600 LINE",
"271 600 LINE",
"271 0 LINE",
"366 0 LINE"
);
}
);
width = 386;
},
{
associatedMasterId = "83682BA5-5A7B-4081-8B26-D550B6F33EEB";
layerId = "FF948B28-7699-4D92-88BF-448CDCC2783E";
name = "Nov 1 20, 20:15";
paths = (
{
closed = 1;
nodes = (
"105 700 LINE",
"10 700 LINE",
"10 0 LINE",
"105 0 LINE"
);
},
{
closed = 1;
nodes = (
"62 700 LINE",
"147 104 LINE",
"222 104 LINE",
"136 700 LINE"
);
},
{
closed = 1;
nodes = (
"147 104 LINE",
"222 104 LINE",
"307 700 LINE",
"233 700 LINE"
);
},
{
closed = 1;
nodes = (
"356 700 LINE",
"261 700 LINE",
"261 0 LINE",
"356 0 LINE"
);
}
);
width = 376;
},
{
associatedMasterId = "83682BA5-5A7B-4081-8B26-D550B6F33EEB";
layerId = "B87D74E2-6CDE-4BFC-8EF7-A2054CB605A3";
name = "Nov 2 20, 15:38";
paths = (
{
closed = 1;
nodes = (
"120 700 LINE",
"25 700 LINE",
"25 0 LINE",
"120 0 LINE"
);
},
{
closed = 1;
nodes = (
"97 700 LINE",
"182 104 LINE",
"257 104 LINE",
"171 700 LINE"
);
},
{
closed = 1;
nodes = (
"182 104 LINE",
"257 104 LINE",
"342 700 LINE",
"268 700 LINE"
);
},
{
closed = 1;
nodes = (
"416 700 LINE",
"321 700 LINE",
"321 0 LINE",
"416 0 LINE"
);
},
{
closed = 1;
nodes = (
"20 700 LINE",
"10 607 LINE",
"120 607 LINE",
"120 700 LINE"
);
}
);
width = 436;
}
);
unicode = 004D;
},
{
glyphname = N;
lastChange = "2020-11-15 18:44:17 +0000";
layers = (
{
layerId = "A98666DC-4638-42B6-8332-BBF4982DF0EF";
paths = (
{
closed = 1;
nodes = (
"33 0 LINE",
"86 0 LINE",
"86 700 LINE",
"33 700 LINE"
);
},
{
closed = 1;
nodes = (
"25 700 LINE",
"15 647 LINE",
"86 647 LINE",
"86 700 LINE"
);
},
{
closed = 1;
nodes = (
"241 0 LINE",
"294 0 LINE",
"294 700 LINE",
"241 700 LINE"
);
},
{
closed = 1;
nodes = (
"117 700 LINE",
"65 700 LINE",
"241 0 LINE",
"291 0 LINE"
);
}
);
width = 314;
},
{
layerId = "83682BA5-5A7B-4081-8B26-D550B6F33EEB";
paths = (
{
closed = 1;
nodes = (
"25 0 LINE",
"120 0 LINE",
"120 700 LINE",
"25 700 LINE"
);
},
{
closed = 1;
nodes = (
"240 0 LINE",
"325 0 LINE",
"325 700 LINE",
"230 700 LINE"
);
},
{
closed = 1;
nodes = (
"230 0 LINE",
"300 0 LINE",
"125 700 LINE",
"50 700 LINE"
);
},
{
closed = 1;
nodes = (
"20 700 LINE",
"10 607 LINE",
"120 607 LINE",
"120 700 LINE"
);
}
);
width = 345;
},
{
layerId = "E6A807D2-02F5-45B7-9AC8-B5230FFEC057";
paths = (
{
closed = 1;
nodes = (
"39 0 LINE",
"175 0 LINE",
"175 700 LINE",
"39 700 LINE"
);
},
{
closed = 1;
nodes = (
"34 700 LINE",
"20 567 LINE",
"175 567 LINE",
"175 700 LINE"
);
},
{
closed = 1;
nodes = (
"39 0 LINE",
"175 0 LINE",
"175 700 LINE",
"39 700 LINE"
);
},
{
closed = 1;
nodes = (
"34 700 LINE",
"20 567 LINE",
"175 567 LINE",
"175 700 LINE"
);
},
{
closed = 1;
nodes = (
"289 0 LINE",
"425 0 LINE",
"425 700 LINE",
"289 700 LINE"
);
},
{
closed = 1;
nodes = (
"289 0 LINE",
"385 0 LINE",
"175 700 LINE",
"79 700 LINE"
);
}
);
width = 445;
},
{
associatedMasterId = "83682BA5-5A7B-4081-8B26-D550B6F33EEB";
layerId = "DC3BC509-B0B8-4F55-8DFD-87CA54D1B7C5";
name = "Oct 28 20, 00:08";
paths = (
{
closed = 1;
nodes = (
"20 0 LINE",
"115 0 LINE",
"115 600 LINE",
"20 600 LINE"
);
},
{
closed = 1;
nodes = (
"227 0 LINE",
"322 0 LINE",
"322 600 LINE",
"227 600 LINE"
);
},
{
closed = 1;
nodes = (
"70 600 LINE",
"185 0 LINE",
"272 0 LINE",
"155 600 LINE"
);
}
);
width = 342;
}
);
unicode = 004E;
},
{
glyphname = Ntilde;
lastChange = "2020-11-22 22:01:58 +0000";
layers = (
{
layerId = "A98666DC-4638-42B6-8332-BBF4982DF0EF";
paths = (
{
closed = 1;
nodes = (
"38 0 LINE",
"91 0 LINE",
"91 700 LINE",
"38 700 LINE"
);
},
{
closed = 1;
nodes = (
"30 700 LINE",
"20 647 LINE",
"91 647 LINE",
"91 700 LINE"
);
},
{
closed = 1;
nodes = (
"246 0 LINE",
"299 0 LINE",
"299 700 LINE",
"246 700 LINE"
);
},
{
closed = 1;
nodes = (
"122 700 LINE",
"70 700 LINE",
"246 0 LINE",
"296 0 LINE"
);
},
{
closed = 1;
nodes = (
"150 808 OFFCURVE",
"129 805 OFFCURVE",
"115 788 CURVE",
"115 737 LINE",
"128 757 OFFCURVE",
"146 760 OFFCURVE",
"171 747 CURVE SMOOTH",
"199 731 OFFCURVE",
"220 733 OFFCURVE",
"233 752 CURVE",
"233 803 LINE",
"222 782 OFFCURVE",
"203 779 OFFCURVE",
"177 793 CURVE SMOOTH"
);
}
);
width = 319;
},
{
layerId = "83682BA5-5A7B-4081-8B26-D550B6F33EEB";
paths = (
{
closed = 1;
nodes = (
"35 0 LINE",
"130 0 LINE",
"130 700 LINE",
"35 700 LINE"
);
},
{
closed = 1;
nodes = (
"250 0 LINE",
"335 0 LINE",
"335 700 LINE",
"240 700 LINE"
);
},
{
closed = 1;
nodes = (
"240 0 LINE",
"310 0 LINE",
"135 700 LINE",
"60 700 LINE"
);
},
{
closed = 1;
nodes = (
"30 700 LINE",
"20 607 LINE",
"130 607 LINE",
"130 700 LINE"
);
},
{
closed = 1;
nodes = (
"155 812 OFFCURVE",
"124 809 OFFCURVE",
"110 792 CURVE",
"110 721 LINE",
"123 741 OFFCURVE",
"151 744 OFFCURVE",
"176 731 CURVE SMOOTH",
"204 715 OFFCURVE",
"235 717 OFFCURVE",
"248 736 CURVE",
"248 807 LINE",
"237 786 OFFCURVE",
"208 783 OFFCURVE",
"182 797 CURVE SMOOTH"
);
}
);
width = 355;
},
{
layerId = "E6A807D2-02F5-45B7-9AC8-B5230FFEC057";
paths = (
{
closed = 1;
nodes = (
"39 0 LINE",
"175 0 LINE",
"175 700 LINE",
"39 700 LINE"
);
},
{
closed = 1;
nodes = (
"34 700 LINE",
"20 567 LINE",
"175 567 LINE",
"175 700 LINE"
);
},
{
closed = 1;
nodes = (
"39 0 LINE",
"175 0 LINE",
"175 700 LINE",
"39 700 LINE"
);
},
{
closed = 1;
nodes = (
"34 700 LINE",
"20 567 LINE",
"175 567 LINE",
"175 700 LINE"
);
},
{
closed = 1;
nodes = (
"289 0 LINE",
"425 0 LINE",
"425 700 LINE",
"289 700 LINE"
);
},
{
closed = 1;
nodes = (
"289 0 LINE",
"385 0 LINE",
"175 700 LINE",
"79 700 LINE"
);
},
{
closed = 1;
nodes = (
"189 838 OFFCURVE",
"141 835 OFFCURVE",
"125 814 CURVE",
"125 728 LINE",
"140 752 OFFCURVE",
"184 756 OFFCURVE",
"214 740 CURVE SMOOTH",
"248 721 OFFCURVE",
"296 723 OFFCURVE",
"311 746 CURVE",
"311 832 LINE",
"298 807 OFFCURVE",
"253 803 OFFCURVE",
"222 820 CURVE SMOOTH"
);
}
);
width = 445;
}
);
unicode = 00D1;
},
{
glyphname = O;
lastChange = "2020-11-18 12:20:20 +0000";
layers = (
{
layerId = "A98666DC-4638-42B6-8332-BBF4982DF0EF";
paths = (
{
closed = 1;
nodes = (
"125 704 LINE SMOOTH",
"56 704 OFFCURVE",
"20 672 OFFCURVE",
"20 611 CURVE SMOOTH",
"20 300 LINE",
"73 300 LINE",
"72 328 OFFCURVE",
"73 583 OFFCURVE",
"73 611 CURVE SMOOTH",
"73 637 OFFCURVE",
"91 651 OFFCURVE",
"125 651 CURVE SMOOTH",
"174 651 OFFCURVE",
"103 651 OFFCURVE",
"152 651 CURVE",
"152 704 LINE"
);
},
{
closed = 1;
nodes = (
"143 46 LINE",
"94 46 OFFCURVE",
"174 46 OFFCURVE",
"125 46 CURVE SMOOTH",
"91 46 OFFCURVE",
"73 63 OFFCURVE",
"73 97 CURVE SMOOTH",
"73 125 OFFCURVE",
"73 272 OFFCURVE",
"73 300 CURVE",
"20 300 LINE",
"20 97 LINE SMOOTH",
"20 29 OFFCURVE",
"56 -7 OFFCURVE",
"125 -7 CURVE SMOOTH",
"143 -7 LINE"
);
},
{
closed = 1;
nodes = (
"143 -7 LINE SMOOTH",
"212 -7 OFFCURVE",
"248 29 OFFCURVE",
"248 97 CURVE SMOOTH",
"248 454 LINE",
"195 454 LINE",
"193 426 OFFCURVE",
"195 125 OFFCURVE",
"195 97 CURVE SMOOTH",
"195 63 OFFCURVE",
"177 46 OFFCURVE",
"143 46 CURVE SMOOTH",
"94 46 OFFCURVE",
"180 46 OFFCURVE",
"131 46 CURVE",
"131 -7 LINE"
);
},
{
closed = 1;
nodes = (
"131 651 LINE",
"180 651 OFFCURVE",
"94 651 OFFCURVE",
"143 651 CURVE SMOOTH",
"177 651 OFFCURVE",
"195 634 OFFCURVE",
"195 600 CURVE",
"195 399 LINE",
"248 393 LINE",
"248 600 LINE SMOOTH",
"248 668 OFFCURVE",
"212 704 OFFCURVE",
"143 704 CURVE SMOOTH",
"131 704 LINE"
);
}
);
width = 268;
},
{
layerId = "83682BA5-5A7B-4081-8B26-D550B6F33EEB";
paths = (
{
closed = 1;
nodes = (
"186 -4 LINE SMOOTH",
"242 -4 OFFCURVE",
"280 33 OFFCURVE",
"280 89 CURVE SMOOTH",
"280 300 LINE",
"185 300 LINE",
"185 47 LINE",
"229 89 LINE",
"138 89 LINE",
"138 -4 LINE"
);
},
{
closed = 1;
nodes = (
"162 89 LINE",
"71 89 LINE",
"115 47 LINE",
"115 300 LINE",
"20 300 LINE",
"20 89 LINE SMOOTH",
"20 33 OFFCURVE",
"58 -4 OFFCURVE",
"114 -4 CURVE SMOOTH",
"162 -4 LINE"
);
},
{
closed = 1;
nodes = (
"138 611 LINE",
"229 611 LINE",
"185 653 LINE",
"185 300 LINE",
"280 300 LINE",
"280 611 LINE SMOOTH",
"280 667 OFFCURVE",
"242 704 OFFCURVE",
"186 704 CURVE SMOOTH",
"138 704 LINE"
);
},
{
closed = 1;
nodes = (
"114 704 LINE SMOOTH",
"58 704 OFFCURVE",
"20 667 OFFCURVE",
"20 611 CURVE SMOOTH",
"20 300 LINE",
"115 300 LINE",
"115 653 LINE",
"71 611 LINE",
"162 611 LINE",
"162 704 LINE"
);
}
);
width = 300;
},
{
layerId = "E6A807D2-02F5-45B7-9AC8-B5230FFEC057";
paths = (
{
closed = 1;
nodes = (
"202 129 LINE",
"112 129 LINE",
"156 87 LINE",
"156 400 LINE",
"20 400 LINE",
"20 139 LINE SMOOTH",
"20 37 OFFCURVE",
"61 -4 OFFCURVE",
"164 -4 CURVE SMOOTH",
"202 -4 LINE"
);
},
{
closed = 1;
nodes = (
"164 704 LINE SMOOTH",
"61 704 OFFCURVE",
"20 663 OFFCURVE",
"20 561 CURVE SMOOTH",
"20 400 LINE",
"156 400 LINE",
"156 613 LINE",
"112 571 LINE",
"202 571 LINE",
"202 704 LINE"
);
},
{
closed = 1;
nodes = (
"208 -4 LINE SMOOTH",
"311 -4 OFFCURVE",
"352 37 OFFCURVE",
"352 139 CURVE SMOOTH",
"352 400 LINE",
"216 400 LINE",
"216 87 LINE",
"260 129 LINE",
"170 129 LINE",
"170 -4 LINE"
);
},
{
closed = 1;
nodes = (
"170 571 LINE",
"260 571 LINE",
"216 613 LINE",
"216 400 LINE",
"352 400 LINE",
"352 561 LINE SMOOTH",
"352 663 OFFCURVE",
"311 704 OFFCURVE",
"208 704 CURVE SMOOTH",
"170 704 LINE"
);
}
);
width = 372;
}
);
unicode = 004F;
},
{
glyphname = Oacute;
lastChange = "2020-11-22 23:25:23 +0000";
layers = (
{
layerId = "A98666DC-4638-42B6-8332-BBF4982DF0EF";
paths = (
{
closed = 1;
nodes = (
"125 704 LINE SMOOTH",
"56 704 OFFCURVE",
"20 672 OFFCURVE",
"20 611 CURVE SMOOTH",
"20 300 LINE",
"73 300 LINE",
"72 328 OFFCURVE",
"73 583 OFFCURVE",
"73 611 CURVE SMOOTH",
"73 637 OFFCURVE",
"91 651 OFFCURVE",
"125 651 CURVE SMOOTH",
"174 651 OFFCURVE",
"103 651 OFFCURVE",
"152 651 CURVE",
"152 704 LINE"
);
},
{
closed = 1;
nodes = (
"143 46 LINE",
"94 46 OFFCURVE",
"174 46 OFFCURVE",
"125 46 CURVE SMOOTH",
"91 46 OFFCURVE",
"73 63 OFFCURVE",
"73 97 CURVE SMOOTH",
"73 125 OFFCURVE",
"73 272 OFFCURVE",
"73 300 CURVE",
"20 300 LINE",
"20 97 LINE SMOOTH",
"20 29 OFFCURVE",
"56 -7 OFFCURVE",
"125 -7 CURVE SMOOTH",
"143 -7 LINE"
);
},
{
closed = 1;
nodes = (
"143 -7 LINE SMOOTH",
"212 -7 OFFCURVE",
"248 29 OFFCURVE",
"248 97 CURVE SMOOTH",
"248 454 LINE",
"195 454 LINE",
"193 426 OFFCURVE",
"195 125 OFFCURVE",
"195 97 CURVE SMOOTH",
"195 63 OFFCURVE",
"177 46 OFFCURVE",
"143 46 CURVE SMOOTH",
"94 46 OFFCURVE",
"180 46 OFFCURVE",
"131 46 CURVE",
"131 -7 LINE"
);
},
{
closed = 1;
nodes = (
"131 651 LINE",
"180 651 OFFCURVE",
"94 651 OFFCURVE",
"143 651 CURVE SMOOTH",
"177 651 OFFCURVE",
"195 634 OFFCURVE",
"195 600 CURVE",
"195 399 LINE",
"248 393 LINE",
"248 600 LINE SMOOTH",
"248 668 OFFCURVE",
"212 704 OFFCURVE",
"143 704 CURVE SMOOTH",
"131 704 LINE"
);
},
{
closed = 1;
nodes = (
"105 720 LINE",
"145 720 LINE",
"172 800 LINE",
"132 800 LINE"
);
}
);
width = 268;
},
{
layerId = "83682BA5-5A7B-4081-8B26-D550B6F33EEB";
paths = (
{
closed = 1;
nodes = (
"186 -4 LINE SMOOTH",
"242 -4 OFFCURVE",
"280 33 OFFCURVE",
"280 89 CURVE SMOOTH",
"280 300 LINE",
"185 300 LINE",
"185 47 LINE",
"229 89 LINE",
"138 89 LINE",
"138 -4 LINE"
);
},
{
closed = 1;
nodes = (
"162 89 LINE",
"71 89 LINE",
"115 47 LINE",
"115 300 LINE",
"20 300 LINE",
"20 89 LINE SMOOTH",
"20 33 OFFCURVE",
"58 -4 OFFCURVE",
"114 -4 CURVE SMOOTH",
"162 -4 LINE"
);
},
{
closed = 1;
nodes = (
"111 720 LINE",
"191 720 LINE",
"218 800 LINE",
"138 800 LINE"
);
},
{
closed = 1;
nodes = (
"115 300 LINE",
"115 653 LINE",
"73 611 LINE",
"227 611 LINE",
"185 653 LINE",
"185 300 LINE",
"280 300 LINE",
"280 611 LINE SMOOTH",
"280 667 OFFCURVE",
"242 704 OFFCURVE",
"186 704 CURVE SMOOTH",
"114 704 LINE SMOOTH",
"58 704 OFFCURVE",
"20 667 OFFCURVE",
"20 611 CURVE SMOOTH",
"20 300 LINE"
);
}
);
width = 300;
},
{
layerId = "E6A807D2-02F5-45B7-9AC8-B5230FFEC057";
paths = (
{
closed = 1;
nodes = (
"133 720 LINE",
"240 720 LINE",
"276 826 LINE",
"169 826 LINE"
);
},
{
closed = 1;
nodes = (
"202 129 LINE",
"112 129 LINE",
"156 87 LINE",
"156 400 LINE",
"20 400 LINE",
"20 139 LINE SMOOTH",
"20 37 OFFCURVE",
"61 -4 OFFCURVE",
"164 -4 CURVE SMOOTH",
"202 -4 LINE"
);
},
{
closed = 1;
nodes = (
"164 704 LINE SMOOTH",
"61 704 OFFCURVE",
"20 663 OFFCURVE",
"20 561 CURVE SMOOTH",
"20 400 LINE",
"156 400 LINE",
"156 613 LINE",
"112 571 LINE",
"202 571 LINE",
"202 704 LINE"
);
},
{
closed = 1;
nodes = (
"208 -4 LINE SMOOTH",
"311 -4 OFFCURVE",
"352 37 OFFCURVE",
"352 139 CURVE SMOOTH",
"352 400 LINE",
"216 400 LINE",
"216 87 LINE",
"260 129 LINE",
"170 129 LINE",
"170 -4 LINE"
);
},
{
closed = 1;
nodes = (
"170 571 LINE",
"260 571 LINE",
"216 613 LINE",
"216 400 LINE",
"352 400 LINE",
"352 561 LINE SMOOTH",
"352 663 OFFCURVE",
"311 704 OFFCURVE",
"208 704 CURVE SMOOTH",
"170 704 LINE"
);
}
);
width = 372;
}
);
unicode = 00D3;
},
{
glyphname = Ocircumflex;
lastChange = "2020-11-22 23:24:51 +0000";
layers = (
{
layerId = "A98666DC-4638-42B6-8332-BBF4982DF0EF";
paths = (
{
closed = 1;
nodes = (
"20 29 OFFCURVE",
"56 -7 OFFCURVE",
"125 -7 CURVE SMOOTH",
"143 -7 LINE SMOOTH",
"212 -7 OFFCURVE",
"248 29 OFFCURVE",
"248 97 CURVE SMOOTH",
"248 600 LINE SMOOTH",
"248 665 OFFCURVE",
"215 701 OFFCURVE",
"152 704 CURVE SMOOTH",
"125 704 LINE SMOOTH",
"56 704 OFFCURVE",
"20 672 OFFCURVE",
"20 611 CURVE SMOOTH",
"20 97 LINE SMOOTH"
);
},
{
closed = 1;
nodes = (
"73 300 LINE SMOOTH",
"72 328 OFFCURVE",
"73 583 OFFCURVE",
"73 611 CURVE SMOOTH",
"73 637 OFFCURVE",
"91 651 OFFCURVE",
"125 651 CURVE SMOOTH",
"127 651 OFFCURVE",
"129 651 OFFCURVE",
"131 651 CURVE SMOOTH",
"143 651 LINE SMOOTH",
"177 651 OFFCURVE",
"195 634 OFFCURVE",
"195 600 CURVE SMOOTH",
"195 454 LINE",
"193 426 OFFCURVE",
"195 125 OFFCURVE",
"195 97 CURVE SMOOTH",
"195 63 OFFCURVE",
"177 46 OFFCURVE",
"143 46 CURVE SMOOTH",
"96 46 OFFCURVE",
"167 46 OFFCURVE",
"131 46 CURVE SMOOTH",
"125 46 LINE SMOOTH",
"91 46 OFFCURVE",
"73 63 OFFCURVE",
"73 97 CURVE SMOOTH"
);
},
{
closed = 1;
nodes = (
"121 740 LINE",
"135 770 LINE",
"148 740 LINE",
"188 740 LINE",
"161 800 LINE",
"108 800 LINE",
"81 740 LINE"
);
}
);
width = 268;
},
{
layerId = "83682BA5-5A7B-4081-8B26-D550B6F33EEB";
paths = (
{
closed = 1;
nodes = (
"186 -4 LINE SMOOTH",
"242 -4 OFFCURVE",
"280 33 OFFCURVE",
"280 89 CURVE SMOOTH",
"280 300 LINE",
"185 300 LINE",
"185 47 LINE",
"229 89 LINE",
"138 89 LINE",
"138 -4 LINE"
);
},
{
closed = 1;
nodes = (
"162 89 LINE",
"71 89 LINE",
"115 47 LINE",
"115 300 LINE",
"20 300 LINE",
"20 89 LINE SMOOTH",
"20 33 OFFCURVE",
"58 -4 OFFCURVE",
"114 -4 CURVE SMOOTH",
"162 -4 LINE"
);
},
{
closed = 1;
nodes = (
"138 611 LINE",
"229 611 LINE",
"185 653 LINE",
"185 300 LINE",
"280 300 LINE",
"280 611 LINE SMOOTH",
"280 667 OFFCURVE",
"242 704 OFFCURVE",
"186 704 CURVE SMOOTH",
"138 704 LINE"
);
},
{
closed = 1;
nodes = (
"114 704 LINE SMOOTH",
"58 704 OFFCURVE",
"20 667 OFFCURVE",
"20 611 CURVE SMOOTH",
"20 300 LINE",
"115 300 LINE",
"115 653 LINE",
"71 611 LINE",
"162 611 LINE",
"162 704 LINE"
);
},
{
closed = 1;
nodes = (
"77 730 LINE",
"137 730 LINE",
"169 800 LINE",
"109 800 LINE"
);
},
{
closed = 1;
nodes = (
"132 800 LINE",
"164 730 LINE",
"224 730 LINE",
"192 800 LINE"
);
}
);
width = 300;
},
{
layerId = "E6A807D2-02F5-45B7-9AC8-B5230FFEC057";
paths = (
{
closed = 1;
nodes = (
"202 129 LINE",
"112 129 LINE",
"156 87 LINE",
"156 400 LINE",
"20 400 LINE",
"20 139 LINE SMOOTH",
"20 37 OFFCURVE",
"61 -4 OFFCURVE",
"164 -4 CURVE SMOOTH",
"202 -4 LINE"
);
},
{
closed = 1;
nodes = (
"208 -4 LINE SMOOTH",
"311 -4 OFFCURVE",
"352 37 OFFCURVE",
"352 139 CURVE SMOOTH",
"352 400 LINE",
"216 400 LINE",
"216 87 LINE",
"260 129 LINE",
"170 129 LINE",
"170 -4 LINE"
);
},
{
closed = 1;
nodes = (
"156 400 LINE",
"156 616 LINE",
"111 571 LINE",
"261 571 LINE",
"216 616 LINE",
"216 400 LINE",
"352 400 LINE",
"352 561 LINE SMOOTH",
"352 663 OFFCURVE",
"311 704 OFFCURVE",
"208 704 CURVE SMOOTH",
"164 704 LINE SMOOTH",
"61 704 OFFCURVE",
"20 663 OFFCURVE",
"20 561 CURVE SMOOTH",
"20 400 LINE"
);
},
{
closed = 1;
nodes = (
"169 730 LINE",
"206 810 LINE",
"169 810 LINE",
"204 730 LINE",
"284 730 LINE",
"242 824 LINE",
"131 824 LINE",
"89 730 LINE"
);
}
);
width = 372;
}
);
unicode = 00D4;
},
{
glyphname = Odieresis;
lastChange = "2020-11-22 23:23:24 +0000";
layers = (
{
layerId = "A98666DC-4638-42B6-8332-BBF4982DF0EF";
paths = (
{
closed = 1;
nodes = (
"143 46 LINE",
"94 46 OFFCURVE",
"174 46 OFFCURVE",
"125 46 CURVE SMOOTH",
"91 46 OFFCURVE",
"73 63 OFFCURVE",
"73 97 CURVE SMOOTH",
"73 125 OFFCURVE",
"73 272 OFFCURVE",
"73 300 CURVE",
"20 300 LINE",
"20 97 LINE SMOOTH",
"20 29 OFFCURVE",
"56 -7 OFFCURVE",
"125 -7 CURVE SMOOTH",
"143 -7 LINE"
);
},
{
closed = 1;
nodes = (
"143 -7 LINE SMOOTH",
"212 -7 OFFCURVE",
"248 29 OFFCURVE",
"248 97 CURVE SMOOTH",
"248 454 LINE",
"195 454 LINE",
"193 426 OFFCURVE",
"195 125 OFFCURVE",
"195 97 CURVE SMOOTH",
"195 63 OFFCURVE",
"177 46 OFFCURVE",
"143 46 CURVE SMOOTH",
"94 46 OFFCURVE",
"180 46 OFFCURVE",
"131 46 CURVE",
"131 -7 LINE"
);
},
{
closed = 1;
nodes = (
"73 300 LINE",
"72 328 OFFCURVE",
"73 583 OFFCURVE",
"73 611 CURVE SMOOTH",
"73 637 OFFCURVE",
"91 651 OFFCURVE",
"125 651 CURVE SMOOTH",
"127 651 OFFCURVE",
"129 651 OFFCURVE",
"131 651 CURVE SMOOTH",
"143 651 LINE SMOOTH",
"177 651 OFFCURVE",
"195 634 OFFCURVE",
"195 600 CURVE SMOOTH",
"195 399 LINE",
"248 393 LINE",
"248 600 LINE SMOOTH",
"248 665 OFFCURVE",
"215 704 OFFCURVE",
"152 704 CURVE SMOOTH",
"125 704 LINE SMOOTH",
"56 704 OFFCURVE",
"20 672 OFFCURVE",
"20 611 CURVE SMOOTH",
"20 300 LINE"
);
},
{
closed = 1;
nodes = (
"73 747 LINE",
"126 747 LINE",
"126 800 LINE",
"73 800 LINE"
);
},
{
closed = 1;
nodes = (
"141 747 LINE",
"194 747 LINE",
"194 800 LINE",
"141 800 LINE"
);
}
);
width = 268;
},
{
layerId = "83682BA5-5A7B-4081-8B26-D550B6F33EEB";
paths = (
{
closed = 1;
nodes = (
"186 -4 LINE SMOOTH",
"242 -4 OFFCURVE",
"280 33 OFFCURVE",
"280 89 CURVE SMOOTH",
"280 300 LINE",
"185 300 LINE",
"185 47 LINE",
"229 89 LINE",
"138 89 LINE",
"138 -4 LINE"
);
},
{
closed = 1;
nodes = (
"162 89 LINE",
"71 89 LINE",
"115 47 LINE",
"115 300 LINE",
"20 300 LINE",
"20 89 LINE SMOOTH",
"20 33 OFFCURVE",
"58 -4 OFFCURVE",
"114 -4 CURVE SMOOTH",
"162 -4 LINE"
);
},
{
closed = 1;
nodes = (
"138 611 LINE",
"229 611 LINE",
"185 653 LINE",
"185 300 LINE",
"280 300 LINE",
"280 611 LINE SMOOTH",
"280 667 OFFCURVE",
"242 704 OFFCURVE",
"186 704 CURVE SMOOTH",
"138 704 LINE"
);
},
{
closed = 1;
nodes = (
"114 704 LINE SMOOTH",
"58 704 OFFCURVE",
"20 667 OFFCURVE",
"20 611 CURVE SMOOTH",
"20 300 LINE",
"115 300 LINE",
"115 653 LINE",
"71 611 LINE",
"162 611 LINE",
"162 704 LINE"
);
},
{
closed = 1;
nodes = (
"70 727 LINE",
"143 727 LINE",
"143 800 LINE",
"70 800 LINE"
);
},
{
closed = 1;
nodes = (
"158 727 LINE",
"231 727 LINE",
"231 800 LINE",
"158 800 LINE"
);
}
);
width = 300;
},
{
layerId = "E6A807D2-02F5-45B7-9AC8-B5230FFEC057";
paths = (
{
closed = 1;
nodes = (
"202 129 LINE",
"112 129 LINE",
"156 87 LINE",
"156 400 LINE",
"20 400 LINE",
"20 139 LINE SMOOTH",
"20 37 OFFCURVE",
"61 -4 OFFCURVE",
"164 -4 CURVE SMOOTH",
"202 -4 LINE"
);
},
{
closed = 1;
nodes = (
"164 704 LINE SMOOTH",
"61 704 OFFCURVE",
"20 663 OFFCURVE",
"20 561 CURVE SMOOTH",
"20 400 LINE",
"156 400 LINE",
"156 613 LINE",
"112 571 LINE",
"202 571 LINE",
"202 704 LINE"
);
},
{
closed = 1;
nodes = (
"208 -4 LINE SMOOTH",
"311 -4 OFFCURVE",
"352 37 OFFCURVE",
"352 139 CURVE SMOOTH",
"352 400 LINE",
"216 400 LINE",
"216 87 LINE",
"260 129 LINE",
"170 129 LINE",
"170 -4 LINE"
);
},
{
closed = 1;
nodes = (
"170 571 LINE",
"260 571 LINE",
"216 613 LINE",
"216 400 LINE",
"352 400 LINE",
"352 561 LINE SMOOTH",
"352 663 OFFCURVE",
"311 704 OFFCURVE",
"208 704 CURVE SMOOTH",
"170 704 LINE"
);
},
{
closed = 1;
nodes = (
"79 720 LINE",
"177 720 LINE",
"177 817 LINE",
"79 817 LINE"
);
},
{
closed = 1;
nodes = (
"196 720 LINE",
"294 720 LINE",
"294 817 LINE",
"196 817 LINE"
);
}
);
width = 372;
}
);
unicode = 00D6;
},
{
glyphname = Ograve;
lastChange = "2020-11-22 23:25:49 +0000";
layers = (
{
layerId = "A98666DC-4638-42B6-8332-BBF4982DF0EF";
paths = (
{
closed = 1;
nodes = (
"125 704 LINE SMOOTH",
"56 704 OFFCURVE",
"20 672 OFFCURVE",
"20 611 CURVE SMOOTH",
"20 300 LINE",
"73 300 LINE",
"72 328 OFFCURVE",
"73 583 OFFCURVE",
"73 611 CURVE SMOOTH",
"73 637 OFFCURVE",
"91 651 OFFCURVE",
"125 651 CURVE SMOOTH",
"174 651 OFFCURVE",
"103 651 OFFCURVE",
"152 651 CURVE",
"152 704 LINE"
);
},
{
closed = 1;
nodes = (
"143 46 LINE",
"94 46 OFFCURVE",
"174 46 OFFCURVE",
"125 46 CURVE SMOOTH",
"91 46 OFFCURVE",
"73 63 OFFCURVE",
"73 97 CURVE SMOOTH",
"73 125 OFFCURVE",
"73 272 OFFCURVE",
"73 300 CURVE",
"20 300 LINE",
"20 97 LINE SMOOTH",
"20 29 OFFCURVE",
"56 -7 OFFCURVE",
"125 -7 CURVE SMOOTH",
"143 -7 LINE"
);
},
{
closed = 1;
nodes = (
"143 -7 LINE SMOOTH",
"212 -7 OFFCURVE",
"248 29 OFFCURVE",
"248 97 CURVE SMOOTH",
"248 454 LINE",
"195 454 LINE",
"193 426 OFFCURVE",
"195 125 OFFCURVE",
"195 97 CURVE SMOOTH",
"195 63 OFFCURVE",
"177 46 OFFCURVE",
"143 46 CURVE SMOOTH",
"94 46 OFFCURVE",
"180 46 OFFCURVE",
"131 46 CURVE",
"131 -7 LINE"
);
},
{
closed = 1;
nodes = (
"131 651 LINE",
"180 651 OFFCURVE",
"94 651 OFFCURVE",
"143 651 CURVE SMOOTH",
"177 651 OFFCURVE",
"195 634 OFFCURVE",
"195 600 CURVE",
"195 399 LINE",
"248 393 LINE",
"248 600 LINE SMOOTH",
"248 668 OFFCURVE",
"212 704 OFFCURVE",
"143 704 CURVE SMOOTH",
"131 704 LINE"
);
},
{
closed = 1;
nodes = (
"85 800 LINE",
"112 720 LINE",
"152 720 LINE",
"125 800 LINE"
);
}
);
width = 268;
},
{
layerId = "83682BA5-5A7B-4081-8B26-D550B6F33EEB";
paths = (
{
closed = 1;
nodes = (
"186 -4 LINE SMOOTH",
"242 -4 OFFCURVE",
"280 33 OFFCURVE",
"280 89 CURVE SMOOTH",
"280 300 LINE",
"185 300 LINE",
"185 47 LINE",
"229 89 LINE",
"138 89 LINE",
"138 -4 LINE"
);
},
{
closed = 1;
nodes = (
"162 89 LINE",
"71 89 LINE",
"115 47 LINE",
"115 300 LINE",
"20 300 LINE",
"20 89 LINE SMOOTH",
"20 33 OFFCURVE",
"58 -4 OFFCURVE",
"114 -4 CURVE SMOOTH",
"162 -4 LINE"
);
},
{
closed = 1;
nodes = (
"83 800 LINE",
"110 720 LINE",
"190 720 LINE",
"163 800 LINE"
);
},
{
closed = 1;
nodes = (
"115 300 LINE",
"115 653 LINE",
"73 611 LINE",
"227 611 LINE",
"185 653 LINE",
"185 300 LINE",
"280 300 LINE",
"280 611 LINE SMOOTH",
"280 667 OFFCURVE",
"242 704 OFFCURVE",
"186 704 CURVE SMOOTH",
"114 704 LINE SMOOTH",
"58 704 OFFCURVE",
"20 667 OFFCURVE",
"20 611 CURVE SMOOTH",
"20 300 LINE"
);
}
);
width = 300;
},
{
layerId = "E6A807D2-02F5-45B7-9AC8-B5230FFEC057";
paths = (
{
closed = 1;
nodes = (
"97 826 LINE",
"133 720 LINE",
"240 720 LINE",
"204 826 LINE"
);
},
{
closed = 1;
nodes = (
"202 129 LINE",
"112 129 LINE",
"156 87 LINE",
"156 400 LINE",
"20 400 LINE",
"20 139 LINE SMOOTH",
"20 37 OFFCURVE",
"61 -4 OFFCURVE",
"164 -4 CURVE SMOOTH",
"202 -4 LINE"
);
},
{
closed = 1;
nodes = (
"164 704 LINE SMOOTH",
"61 704 OFFCURVE",
"20 663 OFFCURVE",
"20 561 CURVE SMOOTH",
"20 400 LINE",
"156 400 LINE",
"156 613 LINE",
"112 571 LINE",
"202 571 LINE",
"202 704 LINE"
);
},
{
closed = 1;
nodes = (
"208 -4 LINE SMOOTH",
"311 -4 OFFCURVE",
"352 37 OFFCURVE",
"352 139 CURVE SMOOTH",
"352 400 LINE",
"216 400 LINE",
"216 87 LINE",
"260 129 LINE",
"170 129 LINE",
"170 -4 LINE"
);
},
{
closed = 1;
nodes = (
"170 571 LINE",
"260 571 LINE",
"216 613 LINE",
"216 400 LINE",
"352 400 LINE",
"352 561 LINE SMOOTH",
"352 663 OFFCURVE",
"311 704 OFFCURVE",
"208 704 CURVE SMOOTH",
"170 704 LINE"
);
}
);
width = 372;
}
);
unicode = 00D2;
},
{
glyphname = Oslash;
lastChange = "2020-11-22 23:32:07 +0000";
layers = (
{
layerId = "A98666DC-4638-42B6-8332-BBF4982DF0EF";
paths = (
{
closed = 1;
nodes = (
"10 -47 LINE",
"53 -47 LINE",
"278 744 LINE",
"235 744 LINE"
);
},
{
closed = 1;
nodes = (
"25 29 OFFCURVE",
"74 -7 OFFCURVE",
"130 -7 CURVE SMOOTH",
"148 -7 LINE SMOOTH",
"217 -7 OFFCURVE",
"253 29 OFFCURVE",
"253 97 CURVE SMOOTH",
"253 600 LINE SMOOTH",
"253 665 OFFCURVE",
"200 704 OFFCURVE",
"157 704 CURVE SMOOTH",
"130 704 LINE SMOOTH",
"61 704 OFFCURVE",
"25 672 OFFCURVE",
"25 611 CURVE SMOOTH",
"25 97 LINE SMOOTH"
);
},
{
closed = 1;
nodes = (
"78 300 LINE SMOOTH",
"78 328 OFFCURVE",
"78 583 OFFCURVE",
"78 611 CURVE SMOOTH",
"78 637 OFFCURVE",
"96 651 OFFCURVE",
"130 651 CURVE SMOOTH",
"132 651 OFFCURVE",
"134 651 OFFCURVE",
"136 651 CURVE SMOOTH",
"148 651 LINE SMOOTH",
"182 651 OFFCURVE",
"200 634 OFFCURVE",
"200 600 CURVE SMOOTH",
"200 454 LINE",
"198 426 OFFCURVE",
"200 125 OFFCURVE",
"200 97 CURVE SMOOTH",
"200 63 OFFCURVE",
"182 46 OFFCURVE",
"148 46 CURVE SMOOTH",
"101 46 OFFCURVE",
"172 46 OFFCURVE",
"136 46 CURVE SMOOTH",
"130 46 LINE SMOOTH",
"96 46 OFFCURVE",
"78 63 OFFCURVE",
"78 97 CURVE SMOOTH"
);
}
);
width = 288;
},
{
layerId = "83682BA5-5A7B-4081-8B26-D550B6F33EEB";
paths = (
{
closed = 1;
nodes = (
"218 -4 LINE SMOOTH",
"274 -4 OFFCURVE",
"312 33 OFFCURVE",
"312 89 CURVE SMOOTH",
"312 300 LINE",
"217 300 LINE",
"217 47 LINE",
"261 89 LINE",
"170 89 LINE",
"170 -4 LINE"
);
},
{
closed = 1;
nodes = (
"194 89 LINE",
"103 89 LINE",
"147 47 LINE",
"147 300 LINE",
"52 300 LINE",
"52 89 LINE SMOOTH",
"52 33 OFFCURVE",
"90 -4 OFFCURVE",
"146 -4 CURVE SMOOTH",
"194 -4 LINE"
);
},
{
closed = 1;
nodes = (
"20 -37 LINE",
"93 -37 LINE",
"345 744 LINE",
"272 744 LINE"
);
},
{
closed = 1;
nodes = (
"147 300 LINE",
"147 653 LINE",
"105 611 LINE",
"259 611 LINE",
"217 653 LINE",
"217 300 LINE",
"312 300 LINE",
"312 611 LINE SMOOTH",
"312 667 OFFCURVE",
"274 704 OFFCURVE",
"218 704 CURVE SMOOTH",
"146 704 LINE SMOOTH",
"90 704 OFFCURVE",
"52 667 OFFCURVE",
"52 611 CURVE SMOOTH",
"52 300 LINE"
);
}
);
width = 365;
},
{
layerId = "E6A807D2-02F5-45B7-9AC8-B5230FFEC057";
paths = (
{
closed = 1;
nodes = (
"202 129 LINE",
"112 129 LINE",
"156 87 LINE",
"156 400 LINE",
"20 400 LINE",
"20 139 LINE SMOOTH",
"20 37 OFFCURVE",
"61 -4 OFFCURVE",
"164 -4 CURVE SMOOTH",
"202 -4 LINE"
);
},
{
closed = 1;
nodes = (
"164 704 LINE SMOOTH",
"61 704 OFFCURVE",
"20 663 OFFCURVE",
"20 561 CURVE SMOOTH",
"20 400 LINE",
"156 400 LINE",
"156 613 LINE",
"112 571 LINE",
"202 571 LINE",
"202 704 LINE"
);
},
{
closed = 1;
nodes = (
"208 -4 LINE SMOOTH",
"311 -4 OFFCURVE",
"352 37 OFFCURVE",
"352 139 CURVE SMOOTH",
"352 400 LINE",
"216 400 LINE",
"216 87 LINE",
"260 129 LINE",
"170 129 LINE",
"170 -4 LINE"
);
},
{
closed = 1;
nodes = (
"170 571 LINE",
"260 571 LINE",
"216 613 LINE",
"216 400 LINE",
"352 400 LINE",
"352 561 LINE SMOOTH",
"352 663 OFFCURVE",
"311 704 OFFCURVE",
"208 704 CURVE SMOOTH",
"170 704 LINE"
);
},
{
closed = 1;
nodes = (
"20 -37 LINE",
"93 -37 LINE",
"345 744 LINE",
"272 744 LINE"
);
}
);
width = 372;
}
);
unicode = 00D8;
},
{
glyphname = Otilde;
lastChange = "2020-11-22 23:24:17 +0000";
layers = (
{
layerId = "A98666DC-4638-42B6-8332-BBF4982DF0EF";
paths = (
{
closed = 1;
nodes = (
"143 46 LINE",
"94 46 OFFCURVE",
"174 46 OFFCURVE",
"125 46 CURVE SMOOTH",
"91 46 OFFCURVE",
"73 63 OFFCURVE",
"73 97 CURVE SMOOTH",
"73 125 OFFCURVE",
"73 272 OFFCURVE",
"73 300 CURVE",
"20 300 LINE",
"20 97 LINE SMOOTH",
"20 29 OFFCURVE",
"56 -7 OFFCURVE",
"125 -7 CURVE SMOOTH",
"143 -7 LINE"
);
},
{
closed = 1;
nodes = (
"143 -7 LINE SMOOTH",
"212 -7 OFFCURVE",
"248 29 OFFCURVE",
"248 97 CURVE SMOOTH",
"248 454 LINE",
"195 454 LINE",
"193 426 OFFCURVE",
"195 125 OFFCURVE",
"195 97 CURVE SMOOTH",
"195 63 OFFCURVE",
"177 46 OFFCURVE",
"143 46 CURVE SMOOTH",
"94 46 OFFCURVE",
"180 46 OFFCURVE",
"131 46 CURVE",
"131 -7 LINE"
);
},
{
closed = 1;
nodes = (
"110 808 OFFCURVE",
"89 805 OFFCURVE",
"75 788 CURVE",
"75 737 LINE",
"88 757 OFFCURVE",
"106 760 OFFCURVE",
"131 747 CURVE SMOOTH",
"159 731 OFFCURVE",
"180 733 OFFCURVE",
"193 752 CURVE",
"193 803 LINE",
"182 782 OFFCURVE",
"163 779 OFFCURVE",
"137 793 CURVE SMOOTH"
);
},
{
closed = 1;
nodes = (
"73 300 LINE",
"72 328 OFFCURVE",
"73 583 OFFCURVE",
"73 611 CURVE SMOOTH",
"73 637 OFFCURVE",
"91 651 OFFCURVE",
"125 651 CURVE SMOOTH",
"127 651 OFFCURVE",
"129 651 OFFCURVE",
"131 651 CURVE SMOOTH",
"143 651 LINE SMOOTH",
"177 651 OFFCURVE",
"195 634 OFFCURVE",
"195 600 CURVE SMOOTH",
"195 399 LINE",
"248 393 LINE",
"248 600 LINE SMOOTH",
"248 665 OFFCURVE",
"215 701 OFFCURVE",
"152 704 CURVE SMOOTH",
"125 704 LINE SMOOTH",
"56 704 OFFCURVE",
"20 672 OFFCURVE",
"20 611 CURVE SMOOTH",
"20 300 LINE"
);
}
);
width = 268;
},
{
layerId = "83682BA5-5A7B-4081-8B26-D550B6F33EEB";
paths = (
{
closed = 1;
nodes = (
"186 -4 LINE SMOOTH",
"242 -4 OFFCURVE",
"280 33 OFFCURVE",
"280 89 CURVE SMOOTH",
"280 300 LINE",
"185 300 LINE",
"185 47 LINE",
"229 89 LINE",
"138 89 LINE",
"138 -4 LINE"
);
},
{
closed = 1;
nodes = (
"162 89 LINE",
"71 89 LINE",
"115 47 LINE",
"115 300 LINE",
"20 300 LINE",
"20 89 LINE SMOOTH",
"20 33 OFFCURVE",
"58 -4 OFFCURVE",
"114 -4 CURVE SMOOTH",
"162 -4 LINE"
);
},
{
closed = 1;
nodes = (
"126 812 OFFCURVE",
"95 809 OFFCURVE",
"81 792 CURVE",
"81 721 LINE",
"94 741 OFFCURVE",
"122 744 OFFCURVE",
"147 731 CURVE SMOOTH",
"175 715 OFFCURVE",
"206 717 OFFCURVE",
"219 736 CURVE",
"219 807 LINE",
"208 786 OFFCURVE",
"179 783 OFFCURVE",
"153 797 CURVE SMOOTH"
);
},
{
closed = 1;
nodes = (
"115 300 LINE",
"115 653 LINE",
"73 611 LINE",
"227 611 LINE",
"185 653 LINE",
"185 300 LINE",
"280 300 LINE",
"280 611 LINE SMOOTH",
"280 667 OFFCURVE",
"242 704 OFFCURVE",
"186 704 CURVE SMOOTH",
"114 704 LINE SMOOTH",
"58 704 OFFCURVE",
"20 667 OFFCURVE",
"20 611 CURVE SMOOTH",
"20 300 LINE"
);
}
);
width = 300;
},
{
layerId = "E6A807D2-02F5-45B7-9AC8-B5230FFEC057";
paths = (
{
closed = 1;
nodes = (
"157 838 OFFCURVE",
"109 835 OFFCURVE",
"93 814 CURVE",
"93 728 LINE",
"108 752 OFFCURVE",
"152 756 OFFCURVE",
"182 740 CURVE SMOOTH",
"216 721 OFFCURVE",
"264 723 OFFCURVE",
"279 746 CURVE",
"279 832 LINE",
"266 807 OFFCURVE",
"221 803 OFFCURVE",
"190 820 CURVE SMOOTH"
);
},
{
closed = 1;
nodes = (
"202 129 LINE",
"112 129 LINE",
"156 87 LINE",
"156 400 LINE",
"20 400 LINE",
"20 139 LINE SMOOTH",
"20 37 OFFCURVE",
"61 -4 OFFCURVE",
"164 -4 CURVE SMOOTH",
"202 -4 LINE"
);
},
{
closed = 1;
nodes = (
"208 -4 LINE SMOOTH",
"311 -4 OFFCURVE",
"352 37 OFFCURVE",
"352 139 CURVE SMOOTH",
"352 400 LINE",
"216 400 LINE",
"216 87 LINE",
"260 129 LINE",
"170 129 LINE",
"170 -4 LINE"
);
},
{
closed = 1;
nodes = (
"156 400 LINE",
"156 616 LINE",
"111 571 LINE",
"261 571 LINE",
"216 616 LINE",
"216 400 LINE",
"352 400 LINE",
"352 561 LINE SMOOTH",
"352 663 OFFCURVE",
"311 704 OFFCURVE",
"208 704 CURVE SMOOTH",
"164 704 LINE SMOOTH",
"61 704 OFFCURVE",
"20 663 OFFCURVE",
"20 561 CURVE SMOOTH",
"20 400 LINE"
);
}
);
width = 372;
}
);
unicode = 00D5;
},
{
glyphname = OE;
lastChange = "2020-11-22 22:17:22 +0000";
layers = (
{
layerId = "A98666DC-4638-42B6-8332-BBF4982DF0EF";
paths = (
{
closed = 1;
nodes = (
"125 704 LINE SMOOTH",
"56 704 OFFCURVE",
"20 672 OFFCURVE",
"20 611 CURVE SMOOTH",
"20 300 LINE",
"73 300 LINE",
"72 328 OFFCURVE",
"73 583 OFFCURVE",
"73 611 CURVE SMOOTH",
"73 637 OFFCURVE",
"91 651 OFFCURVE",
"125 651 CURVE SMOOTH",
"174 651 OFFCURVE",
"93 651 OFFCURVE",
"142 651 CURVE",
"142 704 LINE"
);
},
{
closed = 1;
nodes = (
"143 46 LINE",
"94 46 OFFCURVE",
"174 46 OFFCURVE",
"125 46 CURVE SMOOTH",
"91 46 OFFCURVE",
"73 63 OFFCURVE",
"73 97 CURVE SMOOTH",
"73 125 OFFCURVE",
"73 272 OFFCURVE",
"73 300 CURVE",
"20 300 LINE",
"20 97 LINE SMOOTH",
"20 29 OFFCURVE",
"56 -7 OFFCURVE",
"125 -7 CURVE SMOOTH",
"143 -7 LINE"
);
},
{
closed = 1;
nodes = (
"143 -7 LINE SMOOTH",
"212 -7 OFFCURVE",
"248 29 OFFCURVE",
"248 97 CURVE SMOOTH",
"248 454 LINE",
"195 454 LINE",
"193 426 OFFCURVE",
"195 125 OFFCURVE",
"195 97 CURVE SMOOTH",
"195 63 OFFCURVE",
"177 46 OFFCURVE",
"143 46 CURVE SMOOTH",
"94 46 OFFCURVE",
"180 46 OFFCURVE",
"131 46 CURVE",
"131 -7 LINE"
);
},
{
closed = 1;
nodes = (
"131 651 LINE",
"180 651 OFFCURVE",
"94 651 OFFCURVE",
"143 651 CURVE SMOOTH",
"177 651 OFFCURVE",
"195 634 OFFCURVE",
"195 600 CURVE",
"195 399 LINE",
"248 393 LINE",
"248 600 LINE SMOOTH",
"248 668 OFFCURVE",
"212 704 OFFCURVE",
"143 704 CURVE SMOOTH",
"131 704 LINE"
);
},
{
closed = 1;
nodes = (
"195 0 LINE",
"248 0 LINE",
"248 700 LINE",
"195 700 LINE"
);
},
{
closed = 1;
nodes = (
"187 700 LINE",
"177 647 LINE",
"260 647 LINE",
"260 700 LINE"
);
},
{
closed = 1;
nodes = (
"195 377 LINE",
"195 324 LINE",
"395 324 LINE",
"401 377 LINE"
);
},
{
closed = 1;
nodes = (
"195 700 LINE",
"195 647 LINE",
"395 647 LINE",
"401 700 LINE"
);
},
{
closed = 1;
nodes = (
"195 53 LINE",
"195 0 LINE",
"395 0 LINE",
"401 53 LINE"
);
}
);
width = 421;
},
{
layerId = "83682BA5-5A7B-4081-8B26-D550B6F33EEB";
paths = (
{
closed = 1;
nodes = (
"186 -4 LINE SMOOTH",
"242 -4 OFFCURVE",
"280 33 OFFCURVE",
"280 89 CURVE SMOOTH",
"280 300 LINE",
"185 300 LINE",
"185 47 LINE",
"229 89 LINE",
"138 89 LINE",
"138 -4 LINE"
);
},
{
closed = 1;
nodes = (
"162 89 LINE",
"71 89 LINE",
"115 47 LINE",
"115 300 LINE",
"20 300 LINE",
"20 89 LINE SMOOTH",
"20 33 OFFCURVE",
"58 -4 OFFCURVE",
"114 -4 CURVE SMOOTH",
"162 -4 LINE"
);
},
{
closed = 1;
nodes = (
"138 611 LINE",
"229 611 LINE",
"185 653 LINE",
"185 300 LINE",
"280 300 LINE",
"280 611 LINE SMOOTH",
"280 667 OFFCURVE",
"242 704 OFFCURVE",
"186 704 CURVE SMOOTH",
"138 704 LINE"
);
},
{
closed = 1;
nodes = (
"114 704 LINE SMOOTH",
"58 704 OFFCURVE",
"20 667 OFFCURVE",
"20 611 CURVE SMOOTH",
"20 300 LINE",
"115 300 LINE",
"115 653 LINE",
"71 611 LINE",
"162 611 LINE",
"162 704 LINE"
);
},
{
closed = 1;
nodes = (
"185 397 LINE",
"185 304 LINE",
"382 304 LINE",
"392 397 LINE"
);
},
{
closed = 1;
nodes = (
"185 0 LINE",
"280 0 LINE",
"280 700 LINE",
"185 700 LINE"
);
},
{
closed = 1;
nodes = (
"185 700 LINE",
"185 607 LINE",
"402 607 LINE",
"412 700 LINE"
);
},
{
closed = 1;
nodes = (
"185 93 LINE",
"185 0 LINE",
"404 0 LINE",
"412 93 LINE"
);
},
{
closed = 1;
nodes = (
"200 700 LINE",
"190 607 LINE",
"280 607 LINE",
"280 700 LINE"
);
}
);
width = 432;
},
{
layerId = "E6A807D2-02F5-45B7-9AC8-B5230FFEC057";
paths = (
{
closed = 1;
nodes = (
"202 129 LINE",
"112 129 LINE",
"156 87 LINE",
"156 400 LINE",
"20 400 LINE",
"20 139 LINE SMOOTH",
"20 37 OFFCURVE",
"61 -4 OFFCURVE",
"164 -4 CURVE SMOOTH",
"202 -4 LINE"
);
},
{
closed = 1;
nodes = (
"164 704 LINE SMOOTH",
"61 704 OFFCURVE",
"20 663 OFFCURVE",
"20 561 CURVE SMOOTH",
"20 400 LINE",
"156 400 LINE",
"156 613 LINE",
"112 571 LINE",
"202 571 LINE",
"202 704 LINE"
);
},
{
closed = 1;
nodes = (
"208 -4 LINE SMOOTH",
"311 -4 OFFCURVE",
"352 37 OFFCURVE",
"352 139 CURVE SMOOTH",
"352 400 LINE",
"216 400 LINE",
"216 87 LINE",
"260 129 LINE",
"170 129 LINE",
"170 -4 LINE"
);
},
{
closed = 1;
nodes = (
"170 571 LINE",
"260 571 LINE",
"216 613 LINE",
"216 400 LINE",
"352 400 LINE",
"352 561 LINE SMOOTH",
"352 663 OFFCURVE",
"311 704 OFFCURVE",
"208 704 CURVE SMOOTH",
"170 704 LINE"
);
},
{
closed = 1;
nodes = (
"497 133 LINE",
"216 133 LINE",
"216 0 LINE",
"489 0 LINE"
);
},
{
closed = 1;
nodes = (
"497 700 LINE",
"216 700 LINE",
"216 567 LINE",
"489 567 LINE"
);
},
{
closed = 1;
nodes = (
"475 417 LINE",
"216 417 LINE",
"216 284 LINE",
"467 284 LINE"
);
},
{
closed = 1;
nodes = (
"216 0 LINE",
"352 0 LINE",
"352 700 LINE",
"216 700 LINE"
);
},
{
closed = 1;
nodes = (
"216 700 LINE",
"216 567 LINE",
"352 567 LINE",
"352 700 LINE"
);
}
);
width = 517;
}
);
unicode = 0152;
},
{
glyphname = P;
lastChange = "2020-11-15 18:45:45 +0000";
layers = (
{
layerId = "A98666DC-4638-42B6-8332-BBF4982DF0EF";
paths = (
{
closed = 1;
nodes = (
"33 -7 LINE",
"86 -7 LINE",
"86 700 LINE",
"33 700 LINE"
);
},
{
closed = 1;
nodes = (
"145 222 LINE SMOOTH",
"214 222 OFFCURVE",
"250 254 OFFCURVE",
"250 315 CURVE SMOOTH",
"250 500 LINE",
"197 500 LINE",
"197 472 OFFCURVE",
"197 343 OFFCURVE",
"197 315 CURVE SMOOTH",
"197 289 OFFCURVE",
"179 275 OFFCURVE",
"145 275 CURVE SMOOTH",
"96 275 OFFCURVE",
"82 275 OFFCURVE",
"33 275 CURVE",
"33 222 LINE"
);
},
{
closed = 1;
nodes = (
"86 647 LINE",
"135 647 OFFCURVE",
"96 647 OFFCURVE",
"145 647 CURVE SMOOTH",
"179 647 OFFCURVE",
"197 630 OFFCURVE",
"197 596 CURVE SMOOTH",
"197 568 OFFCURVE",
"197 528 OFFCURVE",
"197 500 CURVE",
"250 500 LINE",
"250 596 LINE SMOOTH",
"250 664 OFFCURVE",
"214 700 OFFCURVE",
"145 700 CURVE SMOOTH",
"86 700 LINE"
);
},
{
closed = 1;
nodes = (
"25 700 LINE",
"15 647 LINE",
"86 647 LINE",
"86 700 LINE"
);
}
);
width = 270;
},
{
layerId = "83682BA5-5A7B-4081-8B26-D550B6F33EEB";
paths = (
{
closed = 1;
nodes = (
"25 0 LINE",
"120 0 LINE",
"120 700 LINE",
"25 700 LINE"
);
},
{
closed = 1;
nodes = (
"167 200 LINE SMOOTH",
"223 200 OFFCURVE",
"272 237 OFFCURVE",
"272 293 CURVE SMOOTH",
"272 393 LINE",
"177 393 LINE",
"177 251 LINE",
"221 293 LINE",
"25 293 LINE",
"26 200 LINE"
);
},
{
closed = 1;
nodes = (
"25 607 LINE",
"221 607 LINE",
"177 649 LINE",
"177 389 LINE",
"272 389 LINE",
"272 607 LINE SMOOTH",
"272 663 OFFCURVE",
"234 700 OFFCURVE",
"178 700 CURVE SMOOTH",
"25 700 LINE"
);
},
{
closed = 1;
nodes = (
"20 700 LINE",
"10 607 LINE",
"120 607 LINE",
"120 700 LINE"
);
}
);
width = 292;
},
{
layerId = "E6A807D2-02F5-45B7-9AC8-B5230FFEC057";
paths = (
{
closed = 1;
nodes = (
"133 704 LINE SMOOTH",
"77 704 OFFCURVE",
"39 671 OFFCURVE",
"39 615 CURVE SMOOTH",
"39 404 LINE",
"175 396 LINE",
"175 609 LINE",
"131 571 LINE",
"221 571 LINE",
"221 704 LINE"
);
},
{
closed = 1;
nodes = (
"217 186 LINE SMOOTH",
"320 186 OFFCURVE",
"361 227 OFFCURVE",
"361 329 CURVE SMOOTH",
"361 533 LINE",
"225 533 LINE",
"225 277 LINE",
"269 319 LINE",
"39 319 LINE",
"39 186 LINE"
);
},
{
closed = 1;
nodes = (
"179 571 LINE",
"269 571 LINE",
"225 613 LINE",
"225 343 LINE",
"361 343 LINE",
"361 561 LINE SMOOTH",
"361 663 OFFCURVE",
"320 704 OFFCURVE",
"217 704 CURVE SMOOTH",
"179 704 LINE"
);
},
{
closed = 1;
nodes = (
"39 4 LINE",
"175 4 LINE",
"175 704 LINE",
"39 704 LINE"
);
},
{
closed = 1;
nodes = (
"34 704 LINE",
"20 571 LINE",
"175 571 LINE",
"175 704 LINE"
);
}
);
width = 381;
}
);
unicode = 0050;
},
{
glyphname = Thorn;
lastChange = "2020-11-22 23:20:00 +0000";
layers = (
{
layerId = "A98666DC-4638-42B6-8332-BBF4982DF0EF";
paths = (
{
closed = 1;
nodes = (
"20 -7 LINE",
"73 -7 LINE",
"73 800 LINE",
"20 800 LINE"
);
},
{
closed = 1;
nodes = (
"20 700 LINE",
"20 647 LINE",
"73 647 LINE",
"73 700 LINE"
);
},
{
closed = 1;
nodes = (
"132 158 LINE SMOOTH",
"201 158 OFFCURVE",
"237 190 OFFCURVE",
"237 251 CURVE SMOOTH",
"237 532 LINE SMOOTH",
"237 600 OFFCURVE",
"201 636 OFFCURVE",
"132 636 CURVE SMOOTH",
"73 636 LINE",
"73 583 LINE",
"132 583 LINE SMOOTH",
"166 583 OFFCURVE",
"184 566 OFFCURVE",
"184 532 CURVE SMOOTH",
"184 504 OFFCURVE",
"184 464 OFFCURVE",
"184 436 CURVE SMOOTH",
"184 251 LINE SMOOTH",
"184 225 OFFCURVE",
"166 211 OFFCURVE",
"132 211 CURVE SMOOTH",
"20 211 LINE",
"20 158 LINE"
);
}
);
width = 257;
},
{
layerId = "83682BA5-5A7B-4081-8B26-D550B6F33EEB";
paths = (
{
closed = 1;
nodes = (
"20 0 LINE",
"115 0 LINE",
"115 800 LINE",
"20 800 LINE"
);
},
{
closed = 1;
nodes = (
"21 150 LINE",
"162 150 LINE SMOOTH",
"218 150 OFFCURVE",
"267 187 OFFCURVE",
"267 243 CURVE SMOOTH",
"267 557 LINE SMOOTH",
"267 613 OFFCURVE",
"229 650 OFFCURVE",
"173 650 CURVE SMOOTH",
"20 650 LINE",
"20 557 LINE",
"214 557 LINE",
"172 599 LINE",
"172 201 LINE",
"214 243 LINE",
"20 243 LINE"
);
}
);
width = 287;
},
{
layerId = "E6A807D2-02F5-45B7-9AC8-B5230FFEC057";
paths = (
{
closed = 1;
nodes = (
"20 4 LINE",
"156 4 LINE",
"156 800 LINE",
"20 800 LINE"
);
},
{
closed = 1;
nodes = (
"198 143 LINE SMOOTH",
"301 143 OFFCURVE",
"342 184 OFFCURVE",
"342 286 CURVE SMOOTH",
"342 518 LINE SMOOTH",
"342 620 OFFCURVE",
"301 661 OFFCURVE",
"198 661 CURVE SMOOTH",
"20 661 LINE",
"20 528 LINE",
"251 528 LINE",
"206 573 LINE",
"206 231 LINE",
"251 276 LINE",
"20 276 LINE",
"20 143 LINE"
);
}
);
width = 362;
}
);
unicode = 00DE;
},
{
glyphname = Q;
lastChange = "2020-11-13 13:51:37 +0000";
layers = (
{
layerId = "A98666DC-4638-42B6-8332-BBF4982DF0EF";
paths = (
{
closed = 1;
nodes = (
"125 704 LINE SMOOTH",
"56 704 OFFCURVE",
"20 672 OFFCURVE",
"20 611 CURVE SMOOTH",
"20 300 LINE",
"73 300 LINE",
"72 328 OFFCURVE",
"73 583 OFFCURVE",
"73 611 CURVE SMOOTH",
"73 637 OFFCURVE",
"91 651 OFFCURVE",
"125 651 CURVE SMOOTH",
"174 651 OFFCURVE",
"103 651 OFFCURVE",
"152 651 CURVE",
"152 704 LINE"
);
},
{
closed = 1;
nodes = (
"143 46 LINE",
"94 46 OFFCURVE",
"174 46 OFFCURVE",
"125 46 CURVE SMOOTH",
"91 46 OFFCURVE",
"73 63 OFFCURVE",
"73 97 CURVE SMOOTH",
"73 125 OFFCURVE",
"73 272 OFFCURVE",
"73 300 CURVE",
"20 300 LINE",
"20 97 LINE SMOOTH",
"20 29 OFFCURVE",
"56 -7 OFFCURVE",
"125 -7 CURVE SMOOTH",
"143 -7 LINE"
);
},
{
closed = 1;
nodes = (
"143 -7 LINE SMOOTH",
"212 -7 OFFCURVE",
"248 29 OFFCURVE",
"248 97 CURVE SMOOTH",
"248 454 LINE",
"195 454 LINE",
"193 426 OFFCURVE",
"195 125 OFFCURVE",
"195 97 CURVE SMOOTH",
"195 63 OFFCURVE",
"177 46 OFFCURVE",
"143 46 CURVE SMOOTH",
"94 46 OFFCURVE",
"180 46 OFFCURVE",
"131 46 CURVE",
"131 -7 LINE"
);
},
{
closed = 1;
nodes = (
"131 651 LINE",
"180 651 OFFCURVE",
"94 651 OFFCURVE",
"143 651 CURVE SMOOTH",
"177 651 OFFCURVE",
"195 634 OFFCURVE",
"195 600 CURVE",
"195 399 LINE",
"248 393 LINE",
"248 600 LINE SMOOTH",
"248 668 OFFCURVE",
"212 704 OFFCURVE",
"143 704 CURVE SMOOTH",
"131 704 LINE"
);
},
{
closed = 1;
nodes = (
"126 27 LINE SMOOTH",
"126 -29 OFFCURVE",
"163 -68 OFFCURVE",
"219 -68 CURVE SMOOTH",
"248 -68 LINE",
"268 -12 LINE",
"147 -12 LINE",
"179 -46 LINE",
"179 32 LINE",
"126 32 LINE"
);
}
);
width = 288;
},
{
layerId = "83682BA5-5A7B-4081-8B26-D550B6F33EEB";
paths = (
{
closed = 1;
nodes = (
"186 -4 LINE SMOOTH",
"242 -4 OFFCURVE",
"280 33 OFFCURVE",
"280 89 CURVE SMOOTH",
"280 300 LINE",
"185 300 LINE",
"185 47 LINE",
"229 89 LINE",
"138 89 LINE",
"138 -4 LINE"
);
},
{
closed = 1;
nodes = (
"162 89 LINE",
"71 89 LINE",
"115 47 LINE",
"115 300 LINE",
"20 300 LINE",
"20 89 LINE SMOOTH",
"20 33 OFFCURVE",
"58 -4 OFFCURVE",
"114 -4 CURVE SMOOTH",
"162 -4 LINE"
);
},
{
closed = 1;
nodes = (
"138 611 LINE",
"229 611 LINE",
"185 653 LINE",
"185 300 LINE",
"280 300 LINE",
"280 611 LINE SMOOTH",
"280 667 OFFCURVE",
"242 704 OFFCURVE",
"186 704 CURVE SMOOTH",
"138 704 LINE"
);
},
{
closed = 1;
nodes = (
"114 704 LINE SMOOTH",
"58 704 OFFCURVE",
"20 667 OFFCURVE",
"20 611 CURVE SMOOTH",
"20 300 LINE",
"115 300 LINE",
"115 653 LINE",
"71 611 LINE",
"162 611 LINE",
"162 704 LINE"
);
},
{
closed = 1;
nodes = (
"138 9 LINE SMOOTH",
"138 -47 OFFCURVE",
"175 -86 OFFCURVE",
"231 -86 CURVE SMOOTH",
"287 -86 LINE",
"307 0 LINE",
"189 0 LINE",
"231 -34 LINE",
"231 65 LINE",
"138 65 LINE"
);
}
);
width = 320;
},
{
layerId = "E6A807D2-02F5-45B7-9AC8-B5230FFEC057";
paths = (
{
closed = 1;
nodes = (
"202 129 LINE",
"112 129 LINE",
"156 87 LINE",
"156 400 LINE",
"20 400 LINE",
"20 139 LINE SMOOTH",
"20 37 OFFCURVE",
"61 -4 OFFCURVE",
"164 -4 CURVE SMOOTH",
"202 -4 LINE"
);
},
{
closed = 1;
nodes = (
"164 704 LINE SMOOTH",
"61 704 OFFCURVE",
"20 663 OFFCURVE",
"20 561 CURVE SMOOTH",
"20 400 LINE",
"156 400 LINE",
"156 613 LINE",
"112 571 LINE",
"202 571 LINE",
"202 704 LINE"
);
},
{
closed = 1;
nodes = (
"208 -4 LINE SMOOTH",
"311 -4 OFFCURVE",
"352 37 OFFCURVE",
"352 139 CURVE SMOOTH",
"352 400 LINE",
"216 400 LINE",
"216 87 LINE",
"260 129 LINE",
"170 129 LINE",
"170 -4 LINE"
);
},
{
closed = 1;
nodes = (
"170 571 LINE",
"260 571 LINE",
"216 613 LINE",
"216 400 LINE",
"352 400 LINE",
"352 561 LINE SMOOTH",
"352 663 OFFCURVE",
"311 704 OFFCURVE",
"208 704 CURVE SMOOTH",
"170 704 LINE"
);
},
{
closed = 1;
nodes = (
"148 -3 LINE SMOOTH",
"148 -59 OFFCURVE",
"195 -108 OFFCURVE",
"251 -108 CURVE SMOOTH",
"323 -108 LINE",
"343 -12 LINE",
"209 -12 LINE",
"251 -46 LINE",
"251 53 LINE",
"148 53 LINE"
);
}
);
width = 372;
},
{
associatedMasterId = "83682BA5-5A7B-4081-8B26-D550B6F33EEB";
layerId = "D55BA40F-C576-4A15-AEC2-A3A89BEF013D";
name = "Oct 29 20, 17:49";
paths = (
{
closed = 1;
nodes = (
"138 9 LINE SMOOTH",
"138 -47 OFFCURVE",
"175 -86 OFFCURVE",
"231 -86 CURVE SMOOTH",
"287 -86 LINE",
"307 0 LINE",
"189 0 LINE",
"231 -34 LINE",
"231 65 LINE",
"138 65 LINE"
);
},
{
closed = 1;
nodes = (
"186 0 LINE SMOOTH",
"242 0 OFFCURVE",
"280 37 OFFCURVE",
"280 93 CURVE SMOOTH",
"280 300 LINE",
"185 300 LINE",
"185 51 LINE",
"229 93 LINE",
"138 93 LINE",
"138 0 LINE"
);
},
{
closed = 1;
nodes = (
"162 93 LINE",
"71 93 LINE",
"115 51 LINE",
"115 300 LINE",
"20 300 LINE",
"20 93 LINE SMOOTH",
"20 37 OFFCURVE",
"58 0 OFFCURVE",
"114 0 CURVE SMOOTH",
"162 0 LINE"
);
},
{
closed = 1;
nodes = (
"138 507 LINE",
"229 507 LINE",
"185 549 LINE",
"185 300 LINE",
"280 300 LINE",
"280 507 LINE SMOOTH",
"280 563 OFFCURVE",
"242 600 OFFCURVE",
"186 600 CURVE SMOOTH",
"138 600 LINE"
);
},
{
closed = 1;
nodes = (
"114 600 LINE SMOOTH",
"58 600 OFFCURVE",
"20 563 OFFCURVE",
"20 507 CURVE SMOOTH",
"20 300 LINE",
"115 300 LINE",
"115 549 LINE",
"71 507 LINE",
"162 507 LINE",
"162 600 LINE"
);
}
);
width = 320;
}
);
unicode = 0051;
},
{
glyphname = R;
lastChange = "2020-11-18 12:20:42 +0000";
layers = (
{
layerId = "A98666DC-4638-42B6-8332-BBF4982DF0EF";
paths = (
{
closed = 1;
nodes = (
"33 0 LINE",
"86 0 LINE",
"86 700 LINE",
"33 700 LINE"
);
},
{
closed = 1;
nodes = (
"145 222 LINE SMOOTH",
"214 222 OFFCURVE",
"250 254 OFFCURVE",
"250 315 CURVE SMOOTH",
"250 500 LINE",
"197 500 LINE",
"197 472 OFFCURVE",
"197 343 OFFCURVE",
"197 315 CURVE SMOOTH",
"197 289 OFFCURVE",
"179 275 OFFCURVE",
"145 275 CURVE SMOOTH",
"96 275 OFFCURVE",
"82 275 OFFCURVE",
"33 275 CURVE",
"33 222 LINE"
);
},
{
closed = 1;
nodes = (
"86 647 LINE",
"135 647 OFFCURVE",
"96 647 OFFCURVE",
"145 647 CURVE SMOOTH",
"179 647 OFFCURVE",
"197 630 OFFCURVE",
"197 596 CURVE SMOOTH",
"197 568 OFFCURVE",
"197 528 OFFCURVE",
"197 500 CURVE",
"250 500 LINE",
"250 596 LINE SMOOTH",
"250 664 OFFCURVE",
"214 700 OFFCURVE",
"145 700 CURVE SMOOTH",
"86 700 LINE"
);
},
{
closed = 1;
nodes = (
"25 700 LINE",
"15 647 LINE",
"86 647 LINE",
"86 700 LINE"
);
},
{
closed = 1;
nodes = (
"141 270 LINE",
"217 0 LINE",
"271 0 LINE",
"194 270 LINE"
);
}
);
width = 291;
},
{
layerId = "83682BA5-5A7B-4081-8B26-D550B6F33EEB";
paths = (
{
closed = 1;
nodes = (
"126 288 LINE",
"207 0 LINE",
"303 0 LINE",
"221 288 LINE"
);
},
{
closed = 1;
nodes = (
"25 0 LINE",
"120 0 LINE",
"120 700 LINE",
"25 700 LINE"
);
},
{
closed = 1;
nodes = (
"167 200 LINE SMOOTH",
"223 200 OFFCURVE",
"272 237 OFFCURVE",
"272 293 CURVE SMOOTH",
"272 393 LINE",
"177 393 LINE",
"177 251 LINE",
"221 293 LINE",
"25 293 LINE",
"26 200 LINE"
);
},
{
closed = 1;
nodes = (
"25 607 LINE",
"221 607 LINE",
"177 649 LINE",
"177 393 LINE",
"272 393 LINE",
"272 607 LINE SMOOTH",
"272 663 OFFCURVE",
"234 700 OFFCURVE",
"178 700 CURVE SMOOTH",
"25 700 LINE"
);
},
{
closed = 1;
nodes = (
"20 700 LINE",
"10 607 LINE",
"120 607 LINE",
"120 700 LINE"
);
}
);
width = 303;
},
{
layerId = "E6A807D2-02F5-45B7-9AC8-B5230FFEC057";
paths = (
{
closed = 1;
nodes = (
"128 700 LINE SMOOTH",
"72 700 OFFCURVE",
"34 663 OFFCURVE",
"34 607 CURVE SMOOTH",
"34 396 LINE",
"170 392 LINE",
"170 605 LINE",
"126 567 LINE",
"216 567 LINE",
"216 700 LINE"
);
},
{
closed = 1;
nodes = (
"212 186 LINE SMOOTH",
"315 186 OFFCURVE",
"356 227 OFFCURVE",
"356 329 CURVE SMOOTH",
"356 533 LINE",
"220 533 LINE",
"220 277 LINE",
"264 319 LINE",
"34 319 LINE",
"34 186 LINE"
);
},
{
closed = 1;
nodes = (
"174 567 LINE",
"264 567 LINE",
"220 609 LINE",
"220 339 LINE",
"356 339 LINE",
"356 557 LINE SMOOTH",
"356 659 OFFCURVE",
"315 700 OFFCURVE",
"212 700 CURVE SMOOTH",
"174 700 LINE"
);
},
{
closed = 1;
nodes = (
"34 0 LINE",
"170 0 LINE",
"170 700 LINE",
"34 700 LINE"
);
},
{
closed = 1;
nodes = (
"29 700 LINE",
"15 567 LINE",
"170 567 LINE",
"170 700 LINE"
);
},
{
closed = 1;
nodes = (
"168 288 LINE",
"249 0 LINE",
"385 0 LINE",
"303 288 LINE"
);
}
);
width = 400;
},
{
associatedMasterId = "83682BA5-5A7B-4081-8B26-D550B6F33EEB";
layerId = "121CA0E5-F755-4ED4-AA24-11A973F8B7EB";
name = "Oct 27 20, 21:34";
paths = (
{
closed = 1;
nodes = (
"45 0 LINE",
"140 0 LINE",
"140 600 LINE",
"45 600 LINE"
);
},
{
closed = 1;
nodes = (
"187 195 LINE SMOOTH",
"243 195 OFFCURVE",
"292 232 OFFCURVE",
"292 288 CURVE SMOOTH",
"292 393 LINE",
"197 393 LINE",
"197 246 LINE",
"241 288 LINE",
"45 288 LINE",
"46 195 LINE"
);
},
{
closed = 1;
nodes = (
"45 507 LINE",
"241 507 LINE",
"197 549 LINE",
"197 393 LINE",
"292 393 LINE",
"292 507 LINE SMOOTH",
"292 563 OFFCURVE",
"254 600 OFFCURVE",
"198 600 CURVE SMOOTH",
"45 600 LINE"
);
},
{
closed = 1;
nodes = (
"147 218 LINE",
"227 0 LINE",
"323 0 LINE",
"242 218 LINE"
);
},
{
closed = 1;
nodes = (
"30 600 LINE",
"10 507 LINE",
"140 507 LINE",
"140 600 LINE"
);
},
{
closed = 1;
nodes = (
"30 288 LINE",
"10 195 LINE",
"140 195 LINE",
"140 288 LINE"
);
}
);
width = 333;
},
{
associatedMasterId = "83682BA5-5A7B-4081-8B26-D550B6F33EEB";
layerId = "525978BE-BE5B-4AF8-9B36-1049B715CFBA";
name = "Oct 28 20, 00:19";
paths = (
{
closed = 1;
nodes = (
"20 0 LINE",
"115 0 LINE",
"115 600 LINE",
"20 600 LINE"
);
},
{
closed = 1;
nodes = (
"162 195 LINE SMOOTH",
"218 195 OFFCURVE",
"267 232 OFFCURVE",
"267 288 CURVE SMOOTH",
"267 393 LINE",
"172 393 LINE",
"172 246 LINE",
"216 288 LINE",
"20 288 LINE",
"21 195 LINE"
);
},
{
closed = 1;
nodes = (
"20 507 LINE",
"216 507 LINE",
"172 549 LINE",
"172 393 LINE",
"267 393 LINE",
"267 507 LINE SMOOTH",
"267 563 OFFCURVE",
"229 600 OFFCURVE",
"173 600 CURVE SMOOTH",
"20 600 LINE"
);
},
{
closed = 1;
nodes = (
"122 218 LINE",
"202 0 LINE",
"298 0 LINE",
"217 218 LINE"
);
}
);
width = 318;
}
);
unicode = 0052;
},
{
glyphname = S;
lastChange = "2020-11-13 13:52:05 +0000";
layers = (
{
layerId = "A98666DC-4638-42B6-8332-BBF4982DF0EF";
paths = (
{
closed = 1;
nodes = (
"143 46 LINE",
"94 46 OFFCURVE",
"174 46 OFFCURVE",
"125 46 CURVE SMOOTH",
"91 46 OFFCURVE",
"73 63 OFFCURVE",
"73 97 CURVE SMOOTH",
"73 125 OFFCURVE",
"73 172 OFFCURVE",
"73 200 CURVE",
"20 200 LINE",
"20 97 LINE SMOOTH",
"20 29 OFFCURVE",
"56 -7 OFFCURVE",
"125 -7 CURVE SMOOTH",
"143 -7 LINE"
);
},
{
closed = 1;
nodes = (
"131 651 LINE",
"180 651 OFFCURVE",
"94 651 OFFCURVE",
"143 651 CURVE SMOOTH",
"177 651 OFFCURVE",
"195 634 OFFCURVE",
"195 600 CURVE",
"195 467 LINE",
"248 461 LINE",
"248 600 LINE SMOOTH",
"248 668 OFFCURVE",
"212 704 OFFCURVE",
"143 704 CURVE SMOOTH",
"131 704 LINE"
);
},
{
closed = 1;
nodes = (
"20 375 OFFCURVE",
"28 362 OFFCURVE",
"44 355 CURVE SMOOTH",
"236 265 LINE",
"194 309 LINE",
"196 257 OFFCURVE",
"195 112 OFFCURVE",
"195 86 CURVE SMOOTH",
"195 60 OFFCURVE",
"177 46 OFFCURVE",
"143 46 CURVE SMOOTH",
"116 46 LINE",
"116 -7 LINE",
"143 -7 LINE SMOOTH",
"212 -7 OFFCURVE",
"248 25 OFFCURVE",
"248 86 CURVE SMOOTH",
"248 286 LINE SMOOTH",
"248 306 OFFCURVE",
"239 319 OFFCURVE",
"224 326 CURVE SMOOTH",
"184 345 OFFCURVE",
"69 399 OFFCURVE",
"64 402 CURVE",
"74 375 LINE",
"72 422 OFFCURVE",
"73 585 OFFCURVE",
"73 611 CURVE SMOOTH",
"73 637 OFFCURVE",
"91 651 OFFCURVE",
"125 651 CURVE SMOOTH",
"152 651 LINE",
"152 704 LINE",
"125 704 LINE SMOOTH",
"56 704 OFFCURVE",
"20 672 OFFCURVE",
"20 611 CURVE SMOOTH",
"20 395 LINE SMOOTH"
);
}
);
width = 268;
},
{
layerId = "83682BA5-5A7B-4081-8B26-D550B6F33EEB";
paths = (
{
closed = 1;
nodes = (
"136 611 LINE",
"209 611 LINE",
"165 653 LINE",
"165 471 LINE",
"260 463 LINE",
"260 611 LINE SMOOTH",
"260 667 OFFCURVE",
"222 704 OFFCURVE",
"166 704 CURVE SMOOTH",
"136 704 LINE"
);
},
{
closed = 1;
nodes = (
"136 89 LINE",
"71 89 LINE",
"115 47 LINE",
"115 200 LINE",
"20 200 LINE",
"20 89 LINE SMOOTH",
"20 33 OFFCURVE",
"58 -4 OFFCURVE",
"114 -4 CURVE SMOOTH",
"136 -4 LINE"
);
},
{
closed = 1;
nodes = (
"20 328 OFFCURVE",
"72 314 OFFCURVE",
"88 308 CURVE SMOOTH",
"123 295 OFFCURVE",
"127 290 OFFCURVE",
"188 264 CURVE",
"204 358 LINE",
"76 413 LINE",
"115 356 LINE",
"115 682 LINE",
"73 611 LINE",
"144 611 LINE",
"144 704 LINE",
"114 704 LINE SMOOTH",
"58 704 OFFCURVE",
"20 667 OFFCURVE",
"20 611 CURVE SMOOTH",
"20 546 OFFCURVE",
"20 506 OFFCURVE",
"20 383 CURVE SMOOTH"
);
},
{
closed = 1;
nodes = (
"260 343 OFFCURVE",
"208 357 OFFCURVE",
"192 363 CURVE SMOOTH",
"157 376 OFFCURVE",
"153 382 OFFCURVE",
"92 407 CURVE",
"76 313 LINE",
"204 258 LINE",
"165 315 LINE",
"165 18 LINE",
"207 89 LINE",
"136 89 LINE",
"136 -4 LINE",
"166 -4 LINE SMOOTH",
"222 -4 OFFCURVE",
"260 33 OFFCURVE",
"260 89 CURVE SMOOTH",
"260 154 OFFCURVE",
"260 165 OFFCURVE",
"260 288 CURVE SMOOTH"
);
}
);
width = 280;
},
{
layerId = "E6A807D2-02F5-45B7-9AC8-B5230FFEC057";
paths = (
{
closed = 1;
nodes = (
"197 125 LINE",
"107 125 LINE",
"151 83 LINE",
"151 220 LINE",
"15 220 LINE",
"15 135 LINE SMOOTH",
"15 33 OFFCURVE",
"56 -8 OFFCURVE",
"159 -8 CURVE SMOOTH",
"197 -8 LINE"
);
},
{
closed = 1;
nodes = (
"145 575 LINE",
"235 575 LINE",
"191 617 LINE",
"191 455 LINE",
"327 440 LINE",
"327 565 LINE SMOOTH",
"327 667 OFFCURVE",
"286 708 OFFCURVE",
"183 708 CURVE SMOOTH",
"145 708 LINE"
);
},
{
closed = 1;
nodes = (
"151 423 LINE",
"151 575 LINE",
"197 575 LINE",
"197 708 LINE",
"159 708 LINE SMOOTH",
"56 708 OFFCURVE",
"15 667 OFFCURVE",
"15 565 CURVE SMOOTH",
"15 504 OFFCURVE",
"15 463 OFFCURVE",
"15 402 CURVE SMOOTH",
"15 353 OFFCURVE",
"28 335 OFFCURVE",
"78 312 CURVE SMOOTH",
"108 299 OFFCURVE",
"134 288 OFFCURVE",
"159 277 CURVE",
"203 400 LINE"
);
},
{
closed = 1;
nodes = (
"191 263 LINE",
"191 125 LINE",
"145 125 LINE",
"145 -8 LINE",
"183 -8 LINE SMOOTH",
"286 -8 OFFCURVE",
"327 33 OFFCURVE",
"327 135 CURVE SMOOTH",
"327 196 OFFCURVE",
"327 223 OFFCURVE",
"327 284 CURVE SMOOTH",
"327 333 OFFCURVE",
"314 351 OFFCURVE",
"264 374 CURVE SMOOTH",
"234 387 OFFCURVE",
"208 398 OFFCURVE",
"183 409 CURVE",
"139 286 LINE"
);
}
);
width = 342;
},
{
associatedMasterId = "83682BA5-5A7B-4081-8B26-D550B6F33EEB";
layerId = "122C5B12-B3C2-41C5-ABEE-3E66AFAED925";
name = "Oct 27 20, 20:41";
paths = (
{
closed = 1;
nodes = (
"186 0 LINE SMOOTH",
"242 0 OFFCURVE",
"280 37 OFFCURVE",
"280 93 CURVE SMOOTH",
"280 161 LINE",
"185 161 LINE",
"185 51 LINE",
"229 93 LINE",
"136 93 LINE",
"136 0 LINE"
);
},
{
closed = 1;
nodes = (
"126 235 LINE",
"229 235 LINE",
"185 277 LINE",
"185 161 LINE",
"280 161 LINE",
"280 235 LINE SMOOTH",
"280 291 OFFCURVE",
"242 328 OFFCURVE",
"186 328 CURVE SMOOTH",
"126 328 LINE"
);
},
{
closed = 1;
nodes = (
"136 507 LINE",
"229 507 LINE",
"185 549 LINE",
"185 363 LINE",
"280 363 LINE",
"280 507 LINE SMOOTH",
"280 563 OFFCURVE",
"242 600 OFFCURVE",
"186 600 CURVE SMOOTH",
"136 600 LINE"
);
},
{
closed = 1;
nodes = (
"156 328 LINE",
"71 328 LINE",
"115 286 LINE",
"115 507 LINE",
"20 507 LINE",
"20 328 LINE SMOOTH",
"20 272 OFFCURVE",
"58 235 OFFCURVE",
"114 235 CURVE SMOOTH",
"156 235 LINE"
);
},
{
closed = 1;
nodes = (
"114 600 LINE SMOOTH",
"58 600 OFFCURVE",
"20 563 OFFCURVE",
"20 507 CURVE SMOOTH",
"20 363 LINE",
"115 363 LINE",
"115 549 LINE",
"71 507 LINE",
"164 507 LINE",
"164 600 LINE"
);
},
{
closed = 1;
nodes = (
"156 93 LINE",
"71 93 LINE",
"115 51 LINE",
"115 200 LINE",
"20 200 LINE",
"20 93 LINE SMOOTH",
"20 37 OFFCURVE",
"58 0 OFFCURVE",
"114 0 CURVE SMOOTH",
"156 0 LINE"
);
}
);
width = 300;
},
{
associatedMasterId = "83682BA5-5A7B-4081-8B26-D550B6F33EEB";
layerId = "AF202DF3-2683-4587-B9B2-0E9E0C358F4D";
name = "Oct 27 20, 22:34";
paths = (
{
closed = 1;
nodes = (
"186 0 LINE SMOOTH",
"242 0 OFFCURVE",
"280 37 OFFCURVE",
"280 93 CURVE SMOOTH",
"280 287 LINE",
"185 287 LINE",
"185 51 LINE",
"229 93 LINE",
"136 93 LINE",
"136 0 LINE"
);
},
{
closed = 1;
nodes = (
"136 507 LINE",
"229 507 LINE",
"185 549 LINE",
"185 363 LINE",
"280 363 LINE",
"280 507 LINE SMOOTH",
"280 563 OFFCURVE",
"242 600 OFFCURVE",
"186 600 CURVE SMOOTH",
"136 600 LINE"
);
},
{
closed = 1;
nodes = (
"114 600 LINE SMOOTH",
"58 600 OFFCURVE",
"20 563 OFFCURVE",
"20 507 CURVE SMOOTH",
"20 283 LINE",
"115 283 LINE",
"115 549 LINE",
"71 507 LINE",
"164 507 LINE",
"164 600 LINE"
);
},
{
closed = 1;
nodes = (
"156 93 LINE",
"71 93 LINE",
"115 51 LINE",
"115 200 LINE",
"20 200 LINE",
"20 93 LINE SMOOTH",
"20 37 OFFCURVE",
"58 0 OFFCURVE",
"114 0 CURVE SMOOTH",
"156 0 LINE"
);
},
{
closed = 1;
nodes = (
"51 372 LINE",
"20 283 LINE",
"248 199 LINE",
"280 287 LINE"
);
}
);
width = 300;
},
{
associatedMasterId = "E6A807D2-02F5-45B7-9AC8-B5230FFEC057";
layerId = "7FBD3EB5-D4D6-4669-B888-9F6818DC1B7C";
name = "Nov 4 20, 23:38";
paths = (
{
closed = 1;
nodes = (
"183 -8 LINE SMOOTH",
"286 -8 OFFCURVE",
"327 33 OFFCURVE",
"327 135 CURVE SMOOTH",
"327 348 LINE",
"191 348 LINE",
"191 83 LINE",
"235 125 LINE",
"145 125 LINE",
"145 -8 LINE"
);
},
{
closed = 1;
nodes = (
"159 708 LINE SMOOTH",
"56 708 OFFCURVE",
"15 667 OFFCURVE",
"15 565 CURVE SMOOTH",
"15 338 LINE",
"151 338 LINE",
"151 617 LINE",
"107 575 LINE",
"197 575 LINE",
"197 708 LINE"
);
},
{
closed = 1;
nodes = (
"197 125 LINE",
"107 125 LINE",
"151 83 LINE",
"151 200 LINE",
"15 200 LINE",
"15 135 LINE SMOOTH",
"15 33 OFFCURVE",
"56 -8 OFFCURVE",
"159 -8 CURVE SMOOTH",
"197 -8 LINE"
);
},
{
closed = 1;
nodes = (
"145 575 LINE",
"235 575 LINE",
"191 617 LINE",
"191 475 LINE",
"327 460 LINE",
"327 565 LINE SMOOTH",
"327 667 OFFCURVE",
"286 708 OFFCURVE",
"183 708 CURVE SMOOTH",
"145 708 LINE"
);
},
{
closed = 1;
nodes = (
"15 338 LINE",
"280 225 LINE",
"327 348 LINE",
"58 462 LINE"
);
}
);
width = 342;
},
{
associatedMasterId = "E6A807D2-02F5-45B7-9AC8-B5230FFEC057";
layerId = "4CC95792-F6B2-479B-BC04-8B5E70838A3B";
name = "Nov 4 20, 23:41";
paths = (
{
closed = 1;
nodes = (
"145 575 LINE",
"235 575 LINE",
"191 617 LINE",
"191 475 LINE",
"327 460 LINE",
"327 565 LINE SMOOTH",
"327 667 OFFCURVE",
"286 708 OFFCURVE",
"183 708 CURVE SMOOTH",
"145 708 LINE"
);
},
{
closed = 1;
nodes = (
"15 355 OFFCURVE",
"29 332 OFFCURVE",
"87 307 CURVE SMOOTH",
"202 258 LINE",
"255 379 LINE",
"195 404 LINE SMOOTH",
"160 418 OFFCURVE",
"151 431 OFFCURVE",
"151 464 CURVE SMOOTH",
"151 620 LINE",
"106 575 LINE",
"197 575 LINE",
"197 708 LINE",
"159 708 LINE SMOOTH",
"56 708 OFFCURVE",
"15 667 OFFCURVE",
"15 565 CURVE SMOOTH",
"15 427 LINE SMOOTH"
);
},
{
closed = 1;
nodes = (
"197 111 LINE",
"107 111 LINE",
"151 69 LINE",
"151 211 LINE",
"15 226 LINE",
"15 121 LINE SMOOTH",
"15 19 OFFCURVE",
"56 -22 OFFCURVE",
"159 -22 CURVE SMOOTH",
"197 -22 LINE"
);
},
{
closed = 1;
nodes = (
"327 331 OFFCURVE",
"311 355 OFFCURVE",
"255 379 CURVE SMOOTH",
"133 431 LINE",
"87 307 LINE",
"147 282 LINE SMOOTH",
"183 267 OFFCURVE",
"191 255 OFFCURVE",
"191 222 CURVE SMOOTH",
"191 66 LINE",
"236 111 LINE",
"145 111 LINE",
"145 -22 LINE",
"183 -22 LINE SMOOTH",
"286 -22 OFFCURVE",
"327 19 OFFCURVE",
"327 121 CURVE SMOOTH",
"327 259 LINE SMOOTH"
);
}
);
width = 342;
},
{
associatedMasterId = "A98666DC-4638-42B6-8332-BBF4982DF0EF";
layerId = "2635230A-2E3D-4A6A-ACE4-264190647A11";
name = "Nov 5 20, 00:16";
paths = (
{
closed = 1;
nodes = (
"120 704 LINE SMOOTH",
"51 704 OFFCURVE",
"15 672 OFFCURVE",
"15 611 CURVE SMOOTH",
"15 366 LINE",
"68 366 LINE",
"67 394 OFFCURVE",
"68 583 OFFCURVE",
"68 611 CURVE SMOOTH",
"68 637 OFFCURVE",
"86 651 OFFCURVE",
"120 651 CURVE SMOOTH",
"169 651 OFFCURVE",
"98 651 OFFCURVE",
"147 651 CURVE",
"147 704 LINE"
);
},
{
closed = 1;
nodes = (
"138 46 LINE",
"89 46 OFFCURVE",
"169 46 OFFCURVE",
"120 46 CURVE SMOOTH",
"86 46 OFFCURVE",
"68 63 OFFCURVE",
"68 97 CURVE SMOOTH",
"68 125 OFFCURVE",
"68 172 OFFCURVE",
"68 200 CURVE",
"15 200 LINE",
"15 97 LINE SMOOTH",
"15 29 OFFCURVE",
"51 -7 OFFCURVE",
"120 -7 CURVE SMOOTH",
"138 -7 LINE"
);
},
{
closed = 1;
nodes = (
"138 -7 LINE SMOOTH",
"207 -7 OFFCURVE",
"243 29 OFFCURVE",
"243 97 CURVE SMOOTH",
"243 314 LINE",
"190 314 LINE",
"190 97 LINE",
"190 63 OFFCURVE",
"172 46 OFFCURVE",
"138 46 CURVE SMOOTH",
"89 46 OFFCURVE",
"175 46 OFFCURVE",
"126 46 CURVE",
"126 -7 LINE"
);
},
{
closed = 1;
nodes = (
"126 651 LINE",
"175 651 OFFCURVE",
"89 651 OFFCURVE",
"138 651 CURVE SMOOTH",
"172 651 OFFCURVE",
"190 634 OFFCURVE",
"190 600 CURVE",
"190 467 LINE",
"243 461 LINE",
"243 600 LINE SMOOTH",
"243 668 OFFCURVE",
"207 704 OFFCURVE",
"138 704 CURVE SMOOTH",
"126 704 LINE"
);
},
{
closed = 1;
nodes = (
"41 410 LINE",
"15 366 LINE",
"228 267 LINE",
"243 314 LINE"
);
}
);
width = 258;
}
);
unicode = 0053;
},
{
glyphname = T;
lastChange = "2020-11-15 19:02:01 +0000";
layers = (
{
layerId = "A98666DC-4638-42B6-8332-BBF4982DF0EF";
paths = (
{
closed = 1;
nodes = (
"112 0 LINE",
"165 0 LINE",
"165 700 LINE",
"112 700 LINE"
);
},
{
closed = 1;
nodes = (
"15 700 LINE",
"15 647 LINE",
"261 647 LINE",
"261 700 LINE"
);
}
);
width = 276;
},
{
layerId = "83682BA5-5A7B-4081-8B26-D550B6F33EEB";
paths = (
{
closed = 1;
nodes = (
"110 0 LINE",
"205 0 LINE",
"205 700 LINE",
"110 700 LINE"
);
},
{
closed = 1;
nodes = (
"295 607 LINE",
"295 700 LINE",
"20 700 LINE",
"20 607 LINE"
);
}
);
width = 315;
},
{
layerId = "E6A807D2-02F5-45B7-9AC8-B5230FFEC057";
paths = (
{
closed = 1;
nodes = (
"341 700 LINE",
"20 700 LINE",
"20 567 LINE",
"341 567 LINE"
);
},
{
closed = 1;
nodes = (
"113 0 LINE",
"249 0 LINE",
"249 700 LINE",
"113 700 LINE"
);
}
);
width = 361;
},
{
associatedMasterId = "83682BA5-5A7B-4081-8B26-D550B6F33EEB";
layerId = "9B7F16C8-E0C5-4DD4-A159-80EECC07E5D1";
name = "Oct 29 20, 14:26";
paths = (
{
closed = 1;
nodes = (
"104 0 LINE",
"199 0 LINE",
"199 600 LINE",
"104 600 LINE"
);
},
{
closed = 1;
nodes = (
"285 600 LINE",
"18 600 LINE",
"10 507 LINE",
"285 507 LINE"
);
}
);
width = 295;
}
);
unicode = 0054;
},
{
glyphname = U;
lastChange = "2020-11-15 19:06:59 +0000";
layers = (
{
layerId = "A98666DC-4638-42B6-8332-BBF4982DF0EF";
paths = (
{
closed = 1;
nodes = (
"156 46 LINE",
"107 46 OFFCURVE",
"187 46 OFFCURVE",
"138 46 CURVE SMOOTH",
"104 46 OFFCURVE",
"86 63 OFFCURVE",
"86 97 CURVE SMOOTH",
"86 125 OFFCURVE",
"86 700 OFFCURVE",
"86 700 CURVE",
"33 700 LINE",
"33 97 LINE SMOOTH",
"33 29 OFFCURVE",
"69 -7 OFFCURVE",
"138 -7 CURVE SMOOTH",
"156 -7 LINE"
);
},
{
closed = 1;
nodes = (
"156 -7 LINE SMOOTH",
"225 -7 OFFCURVE",
"261 29 OFFCURVE",
"261 97 CURVE SMOOTH",
"261 700 LINE",
"208 700 LINE",
"206 700 OFFCURVE",
"208 125 OFFCURVE",
"208 97 CURVE SMOOTH",
"208 63 OFFCURVE",
"190 46 OFFCURVE",
"156 46 CURVE SMOOTH",
"107 46 OFFCURVE",
"193 46 OFFCURVE",
"144 46 CURVE",
"144 -7 LINE"
);
},
{
closed = 1;
nodes = (
"25 700 LINE",
"15 647 LINE",
"86 647 LINE",
"86 700 LINE"
);
}
);
width = 281;
},
{
layerId = "83682BA5-5A7B-4081-8B26-D550B6F33EEB";
paths = (
{
closed = 1;
nodes = (
"181 -4 LINE SMOOTH",
"237 -4 OFFCURVE",
"275 33 OFFCURVE",
"275 89 CURVE SMOOTH",
"275 700 LINE",
"180 700 LINE",
"180 47 LINE",
"224 89 LINE",
"120 89 LINE",
"120 -4 LINE"
);
},
{
closed = 1;
nodes = (
"180 89 LINE",
"76 89 LINE",
"120 47 LINE",
"120 700 LINE",
"25 700 LINE",
"25 89 LINE SMOOTH",
"25 33 OFFCURVE",
"63 -4 OFFCURVE",
"119 -4 CURVE SMOOTH",
"180 -4 LINE"
);
},
{
closed = 1;
nodes = (
"20 700 LINE",
"10 607 LINE",
"120 607 LINE",
"120 700 LINE"
);
}
);
width = 295;
},
{
layerId = "E6A807D2-02F5-45B7-9AC8-B5230FFEC057";
paths = (
{
closed = 1;
nodes = (
"216 125 LINE",
"126 125 LINE",
"170 83 LINE",
"170 700 LINE",
"34 700 LINE",
"34 135 LINE SMOOTH",
"34 33 OFFCURVE",
"75 -8 OFFCURVE",
"178 -8 CURVE SMOOTH",
"216 -8 LINE"
);
},
{
closed = 1;
nodes = (
"232 -8 LINE SMOOTH",
"335 -8 OFFCURVE",
"376 33 OFFCURVE",
"376 135 CURVE SMOOTH",
"376 700 LINE",
"240 700 LINE",
"240 83 LINE",
"284 125 LINE",
"194 125 LINE",
"194 -8 LINE"
);
},
{
closed = 1;
nodes = (
"29 700 LINE",
"15 567 LINE",
"170 567 LINE",
"170 700 LINE"
);
}
);
width = 391;
}
);
unicode = 0055;
},
{
glyphname = Uacute;
lastChange = "2020-11-22 23:21:50 +0000";
layers = (
{
layerId = "A98666DC-4638-42B6-8332-BBF4982DF0EF";
paths = (
{
closed = 1;
nodes = (
"161 46 LINE",
"112 46 OFFCURVE",
"192 46 OFFCURVE",
"143 46 CURVE SMOOTH",
"109 46 OFFCURVE",
"91 63 OFFCURVE",
"91 97 CURVE SMOOTH",
"91 125 OFFCURVE",
"91 700 OFFCURVE",
"91 700 CURVE",
"38 700 LINE",
"38 97 LINE SMOOTH",
"38 29 OFFCURVE",
"74 -7 OFFCURVE",
"143 -7 CURVE SMOOTH",
"161 -7 LINE"
);
},
{
closed = 1;
nodes = (
"161 -7 LINE SMOOTH",
"230 -7 OFFCURVE",
"266 29 OFFCURVE",
"266 97 CURVE SMOOTH",
"266 700 LINE",
"213 700 LINE",
"211 700 OFFCURVE",
"213 125 OFFCURVE",
"213 97 CURVE SMOOTH",
"213 63 OFFCURVE",
"195 46 OFFCURVE",
"161 46 CURVE SMOOTH",
"112 46 OFFCURVE",
"198 46 OFFCURVE",
"149 46 CURVE",
"149 -7 LINE"
);
},
{
closed = 1;
nodes = (
"30 700 LINE",
"20 647 LINE",
"91 647 LINE",
"91 700 LINE"
);
},
{
closed = 1;
nodes = (
"120 720 LINE",
"160 720 LINE",
"187 800 LINE",
"147 800 LINE"
);
}
);
width = 286;
},
{
layerId = "83682BA5-5A7B-4081-8B26-D550B6F33EEB";
paths = (
{
closed = 1;
nodes = (
"191 -4 LINE SMOOTH",
"247 -4 OFFCURVE",
"285 33 OFFCURVE",
"285 89 CURVE SMOOTH",
"285 700 LINE",
"190 700 LINE",
"190 47 LINE",
"234 89 LINE",
"130 89 LINE",
"130 -4 LINE"
);
},
{
closed = 1;
nodes = (
"190 89 LINE",
"86 89 LINE",
"130 47 LINE",
"130 700 LINE",
"35 700 LINE",
"35 89 LINE SMOOTH",
"35 33 OFFCURVE",
"73 -4 OFFCURVE",
"129 -4 CURVE SMOOTH",
"190 -4 LINE"
);
},
{
closed = 1;
nodes = (
"30 700 LINE",
"20 607 LINE",
"130 607 LINE",
"130 700 LINE"
);
},
{
closed = 1;
nodes = (
"120 720 LINE",
"200 720 LINE",
"227 800 LINE",
"147 800 LINE"
);
}
);
width = 305;
},
{
layerId = "E6A807D2-02F5-45B7-9AC8-B5230FFEC057";
paths = (
{
closed = 1;
nodes = (
"221 125 LINE",
"131 125 LINE",
"175 83 LINE",
"175 700 LINE",
"39 700 LINE",
"39 135 LINE SMOOTH",
"39 33 OFFCURVE",
"80 -8 OFFCURVE",
"183 -8 CURVE SMOOTH",
"221 -8 LINE"
);
},
{
closed = 1;
nodes = (
"237 -8 LINE SMOOTH",
"340 -8 OFFCURVE",
"381 33 OFFCURVE",
"381 135 CURVE SMOOTH",
"381 700 LINE",
"245 700 LINE",
"245 83 LINE",
"289 125 LINE",
"199 125 LINE",
"199 -8 LINE"
);
},
{
closed = 1;
nodes = (
"34 700 LINE",
"20 567 LINE",
"175 567 LINE",
"175 700 LINE"
);
},
{
closed = 1;
nodes = (
"157 720 LINE",
"264 720 LINE",
"300 826 LINE",
"193 826 LINE"
);
}
);
width = 401;
}
);
unicode = 00DA;
},
{
glyphname = Ucircumflex;
lastChange = "2020-11-22 23:21:28 +0000";
layers = (
{
layerId = "A98666DC-4638-42B6-8332-BBF4982DF0EF";
paths = (
{
closed = 1;
nodes = (
"161 46 LINE",
"112 46 OFFCURVE",
"192 46 OFFCURVE",
"143 46 CURVE SMOOTH",
"109 46 OFFCURVE",
"91 63 OFFCURVE",
"91 97 CURVE SMOOTH",
"91 125 OFFCURVE",
"91 700 OFFCURVE",
"91 700 CURVE",
"38 700 LINE",
"38 97 LINE SMOOTH",
"38 29 OFFCURVE",
"74 -7 OFFCURVE",
"143 -7 CURVE SMOOTH",
"161 -7 LINE"
);
},
{
closed = 1;
nodes = (
"161 -7 LINE SMOOTH",
"230 -7 OFFCURVE",
"266 29 OFFCURVE",
"266 97 CURVE SMOOTH",
"266 700 LINE",
"213 700 LINE",
"211 700 OFFCURVE",
"213 125 OFFCURVE",
"213 97 CURVE SMOOTH",
"213 63 OFFCURVE",
"195 46 OFFCURVE",
"161 46 CURVE SMOOTH",
"112 46 OFFCURVE",
"198 46 OFFCURVE",
"149 46 CURVE",
"149 -7 LINE"
);
},
{
closed = 1;
nodes = (
"30 700 LINE",
"20 647 LINE",
"91 647 LINE",
"91 700 LINE"
);
},
{
closed = 1;
nodes = (
"138 740 LINE",
"152 770 LINE",
"165 740 LINE",
"205 740 LINE",
"178 800 LINE",
"125 800 LINE",
"98 740 LINE"
);
}
);
width = 286;
},
{
layerId = "83682BA5-5A7B-4081-8B26-D550B6F33EEB";
paths = (
{
closed = 1;
nodes = (
"191 -4 LINE SMOOTH",
"247 -4 OFFCURVE",
"285 33 OFFCURVE",
"285 89 CURVE SMOOTH",
"285 700 LINE",
"190 700 LINE",
"190 47 LINE",
"234 89 LINE",
"130 89 LINE",
"130 -4 LINE"
);
},
{
closed = 1;
nodes = (
"190 89 LINE",
"86 89 LINE",
"130 47 LINE",
"130 700 LINE",
"35 700 LINE",
"35 89 LINE SMOOTH",
"35 33 OFFCURVE",
"73 -4 OFFCURVE",
"129 -4 CURVE SMOOTH",
"190 -4 LINE"
);
},
{
closed = 1;
nodes = (
"30 700 LINE",
"20 607 LINE",
"130 607 LINE",
"130 700 LINE"
);
},
{
closed = 1;
nodes = (
"87 730 LINE",
"147 730 LINE",
"179 800 LINE",
"119 800 LINE"
);
},
{
closed = 1;
nodes = (
"142 800 LINE",
"174 730 LINE",
"234 730 LINE",
"202 800 LINE"
);
}
);
width = 305;
},
{
components = (
{
name = U;
transform = "{1, 0, 0, 1, 5, 0}";
}
);
layerId = "E6A807D2-02F5-45B7-9AC8-B5230FFEC057";
paths = (
{
closed = 1;
nodes = (
"221 125 LINE",
"131 125 LINE",
"175 83 LINE",
"175 700 LINE",
"39 700 LINE",
"39 135 LINE SMOOTH",
"39 33 OFFCURVE",
"80 -8 OFFCURVE",
"183 -8 CURVE SMOOTH",
"221 -8 LINE"
);
},
{
closed = 1;
nodes = (
"237 -8 LINE SMOOTH",
"340 -8 OFFCURVE",
"381 33 OFFCURVE",
"381 135 CURVE SMOOTH",
"381 700 LINE",
"245 700 LINE",
"245 83 LINE",
"289 125 LINE",
"199 125 LINE",
"199 -8 LINE"
);
},
{
closed = 1;
nodes = (
"34 700 LINE",
"20 567 LINE",
"175 567 LINE",
"175 700 LINE"
);
},
{
closed = 1;
nodes = (
"112 730 LINE",
"192 730 LINE",
"234 824 LINE",
"154 824 LINE"
);
},
{
closed = 1;
nodes = (
"185 824 LINE",
"227 730 LINE",
"307 730 LINE",
"265 824 LINE"
);
}
);
width = 401;
}
);
unicode = 00DB;
},
{
glyphname = Udieresis;
lastChange = "2020-11-22 23:20:55 +0000";
layers = (
{
layerId = "A98666DC-4638-42B6-8332-BBF4982DF0EF";
paths = (
{
closed = 1;
nodes = (
"161 46 LINE",
"112 46 OFFCURVE",
"192 46 OFFCURVE",
"143 46 CURVE SMOOTH",
"109 46 OFFCURVE",
"91 63 OFFCURVE",
"91 97 CURVE SMOOTH",
"91 125 OFFCURVE",
"91 699 OFFCURVE",
"91 700 CURVE",
"38 700 LINE",
"38 97 LINE SMOOTH",
"38 29 OFFCURVE",
"74 -7 OFFCURVE",
"143 -7 CURVE SMOOTH",
"161 -7 LINE"
);
},
{
closed = 1;
nodes = (
"161 -7 LINE SMOOTH",
"230 -7 OFFCURVE",
"266 29 OFFCURVE",
"266 97 CURVE SMOOTH",
"266 700 LINE",
"213 700 LINE",
"211 700 OFFCURVE",
"213 125 OFFCURVE",
"213 97 CURVE SMOOTH",
"213 63 OFFCURVE",
"195 46 OFFCURVE",
"161 46 CURVE SMOOTH",
"112 46 OFFCURVE",
"198 46 OFFCURVE",
"149 46 CURVE",
"149 -7 LINE"
);
},
{
closed = 1;
nodes = (
"30 700 LINE",
"20 647 LINE",
"91 647 LINE",
"91 700 LINE"
);
},
{
closed = 1;
nodes = (
"93 747 LINE",
"146 747 LINE",
"146 800 LINE",
"93 800 LINE"
);
},
{
closed = 1;
nodes = (
"161 747 LINE",
"214 747 LINE",
"214 800 LINE",
"161 800 LINE"
);
}
);
width = 286;
},
{
layerId = "83682BA5-5A7B-4081-8B26-D550B6F33EEB";
paths = (
{
closed = 1;
nodes = (
"191 -4 LINE SMOOTH",
"247 -4 OFFCURVE",
"285 33 OFFCURVE",
"285 89 CURVE SMOOTH",
"285 700 LINE",
"190 700 LINE",
"190 47 LINE",
"234 89 LINE",
"130 89 LINE",
"130 -4 LINE"
);
},
{
closed = 1;
nodes = (
"190 89 LINE",
"86 89 LINE",
"130 47 LINE",
"130 700 LINE",
"35 700 LINE",
"35 89 LINE SMOOTH",
"35 33 OFFCURVE",
"73 -4 OFFCURVE",
"129 -4 CURVE SMOOTH",
"190 -4 LINE"
);
},
{
closed = 1;
nodes = (
"30 700 LINE",
"20 607 LINE",
"130 607 LINE",
"130 700 LINE"
);
},
{
closed = 1;
nodes = (
"81 727 LINE",
"154 727 LINE",
"154 800 LINE",
"81 800 LINE"
);
},
{
closed = 1;
nodes = (
"169 727 LINE",
"242 727 LINE",
"242 800 LINE",
"169 800 LINE"
);
}
);
width = 305;
},
{
layerId = "E6A807D2-02F5-45B7-9AC8-B5230FFEC057";
paths = (
{
closed = 1;
nodes = (
"221 125 LINE",
"131 125 LINE",
"175 83 LINE",
"175 700 LINE",
"39 700 LINE",
"39 135 LINE SMOOTH",
"39 33 OFFCURVE",
"80 -8 OFFCURVE",
"183 -8 CURVE SMOOTH",
"221 -8 LINE"
);
},
{
closed = 1;
nodes = (
"237 -8 LINE SMOOTH",
"340 -8 OFFCURVE",
"381 33 OFFCURVE",
"381 135 CURVE SMOOTH",
"381 700 LINE",
"245 700 LINE",
"245 83 LINE",
"289 125 LINE",
"199 125 LINE",
"199 -8 LINE"
);
},
{
closed = 1;
nodes = (
"34 700 LINE",
"20 567 LINE",
"175 567 LINE",
"175 700 LINE"
);
},
{
closed = 1;
nodes = (
"102 720 LINE",
"200 720 LINE",
"200 817 LINE",
"102 817 LINE"
);
},
{
closed = 1;
nodes = (
"219 720 LINE",
"317 720 LINE",
"317 817 LINE",
"219 817 LINE"
);
}
);
width = 401;
}
);
unicode = 00DC;
},
{
glyphname = Ugrave;
lastChange = "2020-11-22 23:22:36 +0000";
layers = (
{
layerId = "A98666DC-4638-42B6-8332-BBF4982DF0EF";
paths = (
{
closed = 1;
nodes = (
"161 46 LINE",
"112 46 OFFCURVE",
"192 46 OFFCURVE",
"143 46 CURVE SMOOTH",
"109 46 OFFCURVE",
"91 63 OFFCURVE",
"91 97 CURVE SMOOTH",
"91 125 OFFCURVE",
"91 700 OFFCURVE",
"91 700 CURVE",
"38 700 LINE",
"38 97 LINE SMOOTH",
"38 29 OFFCURVE",
"74 -7 OFFCURVE",
"143 -7 CURVE SMOOTH",
"161 -7 LINE"
);
},
{
closed = 1;
nodes = (
"161 -7 LINE SMOOTH",
"230 -7 OFFCURVE",
"266 29 OFFCURVE",
"266 97 CURVE SMOOTH",
"266 700 LINE",
"213 700 LINE",
"211 700 OFFCURVE",
"213 125 OFFCURVE",
"213 97 CURVE SMOOTH",
"213 63 OFFCURVE",
"195 46 OFFCURVE",
"161 46 CURVE SMOOTH",
"112 46 OFFCURVE",
"198 46 OFFCURVE",
"149 46 CURVE",
"149 -7 LINE"
);
},
{
closed = 1;
nodes = (
"30 700 LINE",
"20 647 LINE",
"91 647 LINE",
"91 700 LINE"
);
},
{
closed = 1;
nodes = (
"100 800 LINE",
"127 720 LINE",
"167 720 LINE",
"140 800 LINE"
);
}
);
width = 286;
},
{
layerId = "83682BA5-5A7B-4081-8B26-D550B6F33EEB";
paths = (
{
closed = 1;
nodes = (
"191 -4 LINE SMOOTH",
"247 -4 OFFCURVE",
"285 33 OFFCURVE",
"285 89 CURVE SMOOTH",
"285 700 LINE",
"190 700 LINE",
"190 47 LINE",
"234 89 LINE",
"130 89 LINE",
"130 -4 LINE"
);
},
{
closed = 1;
nodes = (
"190 89 LINE",
"86 89 LINE",
"130 47 LINE",
"130 700 LINE",
"35 700 LINE",
"35 89 LINE SMOOTH",
"35 33 OFFCURVE",
"73 -4 OFFCURVE",
"129 -4 CURVE SMOOTH",
"190 -4 LINE"
);
},
{
closed = 1;
nodes = (
"30 700 LINE",
"20 607 LINE",
"130 607 LINE",
"130 700 LINE"
);
},
{
closed = 1;
nodes = (
"93 800 LINE",
"120 720 LINE",
"200 720 LINE",
"173 800 LINE"
);
}
);
width = 305;
},
{
layerId = "E6A807D2-02F5-45B7-9AC8-B5230FFEC057";
paths = (
{
closed = 1;
nodes = (
"221 125 LINE",
"131 125 LINE",
"175 83 LINE",
"175 700 LINE",
"39 700 LINE",
"39 135 LINE SMOOTH",
"39 33 OFFCURVE",
"80 -8 OFFCURVE",
"183 -8 CURVE SMOOTH",
"221 -8 LINE"
);
},
{
closed = 1;
nodes = (
"237 -8 LINE SMOOTH",
"340 -8 OFFCURVE",
"381 33 OFFCURVE",
"381 135 CURVE SMOOTH",
"381 700 LINE",
"245 700 LINE",
"245 83 LINE",
"289 125 LINE",
"199 125 LINE",
"199 -8 LINE"
);
},
{
closed = 1;
nodes = (
"34 700 LINE",
"20 567 LINE",
"175 567 LINE",
"175 700 LINE"
);
},
{
closed = 1;
nodes = (
"121 826 LINE",
"157 720 LINE",
"264 720 LINE",
"228 826 LINE"
);
}
);
width = 401;
}
);
unicode = 00D9;
},
{
glyphname = V;
lastChange = "2020-11-15 19:10:11 +0000";
layers = (
{
layerId = "A98666DC-4638-42B6-8332-BBF4982DF0EF";
paths = (
{
closed = 1;
nodes = (
"118 0 LINE",
"178 0 LINE",
"281 700 LINE",
"229 700 LINE",
"140 76 LINE",
"156 76 LINE",
"67 700 LINE",
"15 700 LINE"
);
}
);
width = 296;
},
{
layerId = "83682BA5-5A7B-4081-8B26-D550B6F33EEB";
paths = (
{
closed = 1;
nodes = (
"132 0 LINE",
"228 0 LINE",
"290 700 LINE",
"195 700 LINE"
);
},
{
closed = 1;
nodes = (
"0 700 LINE",
"62 0 LINE",
"158 0 LINE",
"95 700 LINE"
);
},
{
closed = 1;
nodes = (
"203 93 LINE",
"76 93 LINE",
"76 0 LINE",
"203 0 LINE"
);
}
);
width = 290;
},
{
layerId = "E6A807D2-02F5-45B7-9AC8-B5230FFEC057";
paths = (
{
closed = 1;
nodes = (
"123 0 LINE",
"329 0 LINE",
"432 700 LINE",
"297 700 LINE",
"208 76 LINE",
"244 76 LINE",
"155 700 LINE",
"20 700 LINE"
);
}
);
width = 452;
},
{
associatedMasterId = "83682BA5-5A7B-4081-8B26-D550B6F33EEB";
layerId = "47F52230-07AE-4F53-ADF4-730239B82C6D";
name = "Oct 29 20, 17:54";
paths = (
{
closed = 1;
nodes = (
"104 0 LINE",
"200 0 LINE",
"305 700 LINE",
"210 700 LINE"
);
},
{
closed = 1;
nodes = (
"0 700 LINE",
"105 0 LINE",
"201 0 LINE",
"95 700 LINE"
);
}
);
width = 305;
}
);
unicode = 0056;
},
{
glyphname = W;
lastChange = "2020-11-15 19:11:19 +0000";
layers = (
{
layerId = "A98666DC-4638-42B6-8332-BBF4982DF0EF";
paths = (
{
closed = 1;
nodes = (
"118 0 LINE",
"68 700 LINE",
"15 700 LINE",
"65 0 LINE"
);
},
{
closed = 1;
nodes = (
"353 0 LINE",
"403 700 LINE",
"350 700 LINE",
"300 0 LINE"
);
},
{
closed = 1;
nodes = (
"141 0 LINE",
"215 536 LINE",
"202 536 LINE",
"277 0 LINE",
"321 0 LINE",
"234 601 LINE",
"184 601 LINE",
"97 0 LINE"
);
}
);
width = 418;
},
{
layerId = "83682BA5-5A7B-4081-8B26-D550B6F33EEB";
paths = (
{
closed = 1;
nodes = (
"88 0 LINE",
"163 0 LINE"
);
},
{
closed = 1;
nodes = (
"0 700 LINE",
"62 0 LINE",
"158 0 LINE",
"95 700 LINE"
);
},
{
closed = 1;
nodes = (
"255 0 LINE",
"351 0 LINE",
"413 700 LINE",
"318 700 LINE"
);
},
{
closed = 1;
nodes = (
"174 600 LINE",
"94 0 LINE",
"158 0 LINE",
"212 416 LINE",
"202 417 LINE",
"255 0 LINE",
"319 0 LINE",
"239 600 LINE",
"239 601 LINE",
"174 601 LINE"
);
}
);
width = 413;
},
{
layerId = "E6A807D2-02F5-45B7-9AC8-B5230FFEC057";
paths = (
{
closed = 1;
nodes = (
"156 0 LINE",
"156 700 LINE",
"20 700 LINE",
"20 0 LINE"
);
},
{
closed = 1;
nodes = (
"161 0 LINE",
"161 700 LINE",
"25 700 LINE",
"25 0 LINE"
);
},
{
closed = 1;
nodes = (
"501 0 LINE",
"501 700 LINE",
"365 700 LINE",
"365 0 LINE"
);
},
{
closed = 1;
nodes = (
"117 0 LINE",
"216 0 LINE",
"269 417 LINE",
"259 416 LINE",
"313 0 LINE",
"412 0 LINE",
"312 600 LINE",
"217 600 LINE"
);
}
);
width = 521;
},
{
associatedMasterId = "83682BA5-5A7B-4081-8B26-D550B6F33EEB";
layerId = "D480DC1C-E574-471A-A3E2-625F89E6ECF3";
name = "Oct 27 20, 21:02";
paths = (
{
closed = 1;
nodes = (
"419 600 LINE",
"324 600 LINE",
"324 238 LINE",
"419 238 LINE"
);
},
{
closed = 1;
nodes = (
"309 93 LINE",
"223 93 LINE",
"267 51 LINE",
"267 507 LINE",
"172 507 LINE",
"172 93 LINE SMOOTH",
"172 37 OFFCURVE",
"210 0 OFFCURVE",
"266 0 CURVE SMOOTH",
"309 0 LINE"
);
},
{
closed = 1;
nodes = (
"325 0 LINE SMOOTH",
"381 0 OFFCURVE",
"419 37 OFFCURVE",
"419 93 CURVE SMOOTH",
"419 300 LINE",
"324 300 LINE",
"324 51 LINE",
"368 93 LINE",
"277 93 LINE",
"277 0 LINE"
);
},
{
closed = 1;
nodes = (
"157 93 LINE",
"71 93 LINE",
"115 51 LINE",
"115 600 LINE",
"20 600 LINE",
"20 93 LINE SMOOTH",
"20 37 OFFCURVE",
"58 0 OFFCURVE",
"114 0 CURVE SMOOTH",
"157 0 LINE"
);
},
{
closed = 1;
nodes = (
"173 0 LINE SMOOTH",
"229 0 OFFCURVE",
"267 37 OFFCURVE",
"267 93 CURVE SMOOTH",
"267 300 LINE",
"172 300 LINE",
"172 51 LINE",
"216 93 LINE",
"142 93 LINE",
"142 0 LINE"
);
},
{
closed = 1;
nodes = (
"15 600 LINE",
"-5 507 LINE",
"115 507 LINE",
"115 600 LINE"
);
}
);
width = 439;
},
{
associatedMasterId = "83682BA5-5A7B-4081-8B26-D550B6F33EEB";
layerId = "07EB9F48-5CBB-481A-855B-5EF43B4FCEEA";
name = "Oct 27 20, 21:13";
paths = (
{
closed = 1;
nodes = (
"365 0 LINE SMOOTH",
"421 0 OFFCURVE",
"459 37 OFFCURVE",
"459 93 CURVE SMOOTH",
"459 600 LINE",
"364 600 LINE",
"364 51 LINE",
"408 93 LINE",
"317 93 LINE",
"317 0 LINE"
);
},
{
closed = 1;
nodes = (
"169 93 LINE",
"83 93 LINE",
"127 51 LINE",
"127 600 LINE",
"32 600 LINE",
"32 93 LINE SMOOTH",
"32 37 OFFCURVE",
"70 0 OFFCURVE",
"126 0 CURVE SMOOTH",
"169 0 LINE"
);
},
{
closed = 1;
nodes = (
"27 600 LINE",
"7 507 LINE",
"127 507 LINE",
"127 600 LINE"
);
},
{
closed = 1;
nodes = (
"198 218 LINE",
"278 0 LINE",
"374 0 LINE",
"293 218 LINE"
);
},
{
closed = 1;
nodes = (
"117 0 LINE",
"213 0 LINE",
"293 218 LINE",
"198 218 LINE"
);
},
{
closed = 1;
nodes = (
"349 600 LINE",
"329 507 LINE",
"459 507 LINE",
"459 600 LINE"
);
},
{
closed = 1;
nodes = (
"198 218 LINE",
"293 218 LINE",
"293 441 LINE",
"198 441 LINE"
);
}
);
width = 466;
},
{
associatedMasterId = "83682BA5-5A7B-4081-8B26-D550B6F33EEB";
layerId = "F60509A6-E65B-4050-9742-87DDB5DE7282";
name = "Oct 27 20, 23:31";
paths = (
{
closed = 1;
nodes = (
"55 0 LINE",
"151 0 LINE",
"266 491 LINE",
"171 491 LINE"
);
},
{
closed = 1;
nodes = (
"115 0 LINE",
"115 600 LINE",
"20 600 LINE",
"20 0 LINE"
);
},
{
closed = 1;
nodes = (
"171 491 LINE",
"286 0 LINE",
"382 0 LINE",
"266 491 LINE"
);
},
{
closed = 1;
nodes = (
"417 600 LINE",
"322 600 LINE",
"322 0 LINE",
"417 0 LINE"
);
}
);
width = 437;
},
{
associatedMasterId = "83682BA5-5A7B-4081-8B26-D550B6F33EEB";
layerId = "01869965-9600-4983-812E-CE9EBE82DF30";
name = "Oct 27 20, 23:56";
paths = (
{
closed = 1;
nodes = (
"20 600 LINE",
"20 0 LINE",
"117 0 LINE",
"117 600 LINE"
);
},
{
closed = 1;
nodes = (
"191 93 LINE",
"20 93 LINE",
"20 0 LINE",
"191 0 LINE"
);
},
{
closed = 1;
nodes = (
"303 0 LINE",
"400 0 LINE",
"400 600 LINE",
"303 600 LINE"
);
},
{
closed = 1;
nodes = (
"400 0 LINE",
"400 93 LINE",
"229 93 LINE",
"229 0 LINE"
);
},
{
closed = 1;
nodes = (
"191 93 LINE",
"20 93 LINE",
"20 0 LINE",
"191 0 LINE"
);
},
{
closed = 1;
nodes = (
"191 0 LINE",
"213 206 LINE",
"207 206 LINE",
"229 0 LINE",
"315 0 LINE",
"257 315 LINE",
"163 315 LINE",
"105 0 LINE"
);
},
{
closed = 1;
nodes = (
"400 0 LINE",
"400 93 LINE",
"229 93 LINE",
"229 0 LINE"
);
}
);
width = 420;
},
{
associatedMasterId = "83682BA5-5A7B-4081-8B26-D550B6F33EEB";
layerId = "DD2E9B9A-3D47-4063-B180-2552CC206238";
name = "Oct 29 20, 14:30";
paths = (
{
closed = 1;
nodes = (
"20 600 LINE",
"92 0 LINE",
"187 0 LINE",
"115 600 LINE"
);
},
{
closed = 1;
nodes = (
"268 507 LINE",
"192 507 LINE",
"112 0 LINE",
"187 0 LINE"
);
},
{
closed = 1;
nodes = (
"273 0 LINE",
"368 0 LINE",
"440 600 LINE",
"345 600 LINE"
);
},
{
closed = 1;
nodes = (
"348 0 LINE",
"268 507 LINE",
"192 507 LINE",
"273 0 LINE"
);
}
);
width = 460;
},
{
associatedMasterId = "83682BA5-5A7B-4081-8B26-D550B6F33EEB";
layerId = "0A92FCE1-64EE-40EF-840D-3B33196FB93D";
name = "Nov 2 20, 15:35";
paths = (
{
closed = 1;
nodes = (
"88 0 LINE",
"163 0 LINE"
);
},
{
closed = 1;
nodes = (
"329 0 LINE",
"244 596 LINE",
"169 596 LINE",
"255 0 LINE"
);
},
{
closed = 1;
nodes = (
"244 596 LINE",
"169 596 LINE",
"84 0 LINE",
"158 0 LINE"
);
},
{
closed = 1;
nodes = (
"0 700 LINE",
"62 0 LINE",
"158 0 LINE",
"95 700 LINE"
);
},
{
closed = 1;
nodes = (
"255 0 LINE",
"351 0 LINE",
"413 700 LINE",
"318 700 LINE"
);
}
);
width = 413;
}
);
unicode = 0057;
},
{
glyphname = X;
lastChange = "2020-11-15 19:14:26 +0000";
layers = (
{
layerId = "A98666DC-4638-42B6-8332-BBF4982DF0EF";
paths = (
{
closed = 1;
nodes = (
"126 309 LINE",
"179 309 LINE",
"290 700 LINE",
"237 700 LINE",
"136 351 LINE",
"166 351 LINE",
"69 700 LINE",
"15 700 LINE"
);
},
{
closed = 1;
nodes = (
"69 0 LINE",
"166 349 LINE",
"136 349 LINE",
"237 0 LINE",
"290 0 LINE",
"179 391 LINE",
"126 391 LINE",
"15 0 LINE"
);
}
);
width = 305;
},
{
layerId = "E6A807D2-02F5-45B7-9AC8-B5230FFEC057";
paths = (
{
closed = 1;
nodes = (
"137 269 LINE",
"272 269 LINE",
"389 700 LINE",
"254 700 LINE",
"190 391 LINE",
"220 391 LINE",
"155 700 LINE",
"20 700 LINE"
);
},
{
closed = 1;
nodes = (
"155 0 LINE",
"220 309 LINE",
"190 309 LINE",
"254 0 LINE",
"389 0 LINE",
"272 431 LINE",
"137 431 LINE",
"20 0 LINE"
);
}
);
width = 409;
},
{
associatedMasterId = "83682BA5-5A7B-4081-8B26-D550B6F33EEB";
layerId = "44E6AE5E-2BD6-43F5-996A-841BCCFB5E56";
name = "Nov 2 20, 15:47";
paths = (
{
closed = 1;
nodes = (
"327 0 LINE",
"221 391 LINE",
"125 391 LINE",
"232 0 LINE"
);
},
{
closed = 1;
nodes = (
"221 391 LINE",
"125 391 LINE",
"20 0 LINE",
"115 0 LINE"
);
},
{
closed = 1;
nodes = (
"125 309 LINE",
"221 309 LINE",
"327 700 LINE",
"232 700 LINE"
);
},
{
closed = 1;
nodes = (
"20 700 LINE",
"125 309 LINE",
"221 309 LINE",
"115 700 LINE"
);
}
);
width = 347;
},
{
layerId = "83682BA5-5A7B-4081-8B26-D550B6F33EEB";
paths = (
{
closed = 1;
nodes = (
"125 309 LINE",
"221 309 LINE",
"327 700 LINE",
"227 700 LINE",
"159 394 LINE",
"187 394 LINE",
"120 700 LINE",
"20 700 LINE"
);
},
{
closed = 1;
nodes = (
"120 0 LINE",
"187 306 LINE",
"159 306 LINE",
"227 0 LINE",
"327 0 LINE",
"221 391 LINE",
"125 391 LINE",
"20 0 LINE"
);
}
);
width = 347;
}
);
unicode = 0058;
},
{
glyphname = Y;
lastChange = "2020-11-15 19:16:15 +0000";
layers = (
{
layerId = "A98666DC-4638-42B6-8332-BBF4982DF0EF";
paths = (
{
closed = 1;
nodes = (
"126 309 LINE",
"179 309 LINE",
"290 700 LINE",
"237 700 LINE",
"136 351 LINE",
"166 351 LINE",
"69 700 LINE",
"15 700 LINE"
);
},
{
closed = 1;
nodes = (
"126 0 LINE",
"179 0 LINE",
"179 309 LINE",
"126 309 LINE"
);
}
);
width = 305;
},
{
layerId = "83682BA5-5A7B-4081-8B26-D550B6F33EEB";
paths = (
{
closed = 1;
nodes = (
"117 309 LINE",
"117 0 LINE",
"212 0 LINE",
"212 309 LINE"
);
},
{
closed = 1;
nodes = (
"0 700 LINE",
"117 309 LINE",
"212 309 LINE",
"95 700 LINE"
);
},
{
closed = 1;
nodes = (
"117 309 LINE",
"212 309 LINE",
"329 700 LINE",
"234 700 LINE"
);
}
);
width = 329;
},
{
layerId = "E6A807D2-02F5-45B7-9AC8-B5230FFEC057";
paths = (
{
closed = 1;
nodes = (
"137 269 LINE",
"137 0 LINE",
"272 0 LINE",
"272 269 LINE"
);
},
{
closed = 1;
nodes = (
"137 269 LINE",
"272 269 LINE",
"389 700 LINE",
"254 700 LINE",
"190 391 LINE",
"220 391 LINE",
"155 700 LINE",
"20 700 LINE"
);
}
);
width = 409;
},
{
associatedMasterId = "83682BA5-5A7B-4081-8B26-D550B6F33EEB";
layerId = "815A561D-AD83-4D20-BF1B-24DC9E274A9D";
name = "Oct 29 20, 14:34";
paths = (
{
closed = 1;
nodes = (
"115 263 LINE",
"211 263 LINE",
"317 595 LINE",
"222 595 LINE"
);
},
{
closed = 1;
nodes = (
"10 595 LINE",
"115 263 LINE",
"211 263 LINE",
"105 595 LINE"
);
},
{
closed = 1;
nodes = (
"116 0 LINE",
"211 0 LINE",
"211 263 LINE",
"116 263 LINE"
);
}
);
width = 327;
}
);
unicode = 0059;
},
{
glyphname = Yacute;
lastChange = "2020-11-22 22:05:19 +0000";
layers = (
{
layerId = "A98666DC-4638-42B6-8332-BBF4982DF0EF";
paths = (
{
closed = 1;
nodes = (
"131 309 LINE",
"184 309 LINE",
"295 700 LINE",
"242 700 LINE",
"141 351 LINE",
"171 351 LINE",
"74 700 LINE",
"20 700 LINE"
);
},
{
closed = 1;
nodes = (
"131 0 LINE",
"184 0 LINE",
"184 309 LINE",
"131 309 LINE"
);
},
{
closed = 1;
nodes = (
"135 720 LINE",
"175 720 LINE",
"202 800 LINE",
"162 800 LINE"
);
}
);
width = 315;
},
{
layerId = "83682BA5-5A7B-4081-8B26-D550B6F33EEB";
paths = (
{
closed = 1;
nodes = (
"137 309 LINE",
"137 0 LINE",
"232 0 LINE",
"232 309 LINE"
);
},
{
closed = 1;
nodes = (
"20 700 LINE",
"137 309 LINE",
"232 309 LINE",
"115 700 LINE"
);
},
{
closed = 1;
nodes = (
"137 309 LINE",
"232 309 LINE",
"349 700 LINE",
"254 700 LINE"
);
},
{
closed = 1;
nodes = (
"145 720 LINE",
"225 720 LINE",
"252 800 LINE",
"172 800 LINE"
);
},
{
closed = 1;
nodes = (
"137 309 LINE",
"137 0 LINE",
"232 0 LINE",
"232 309 LINE"
);
},
{
closed = 1;
nodes = (
"20 700 LINE",
"137 309 LINE",
"232 309 LINE",
"115 700 LINE"
);
},
{
closed = 1;
nodes = (
"137 309 LINE",
"232 309 LINE",
"349 700 LINE",
"254 700 LINE"
);
}
);
width = 369;
},
{
layerId = "E6A807D2-02F5-45B7-9AC8-B5230FFEC057";
paths = (
{
closed = 1;
nodes = (
"137 269 LINE",
"137 0 LINE",
"272 0 LINE",
"272 269 LINE"
);
},
{
closed = 1;
nodes = (
"137 269 LINE",
"272 269 LINE",
"389 700 LINE",
"254 700 LINE",
"190 391 LINE",
"220 391 LINE",
"155 700 LINE",
"20 700 LINE"
);
},
{
closed = 1;
nodes = (
"151 720 LINE",
"258 720 LINE",
"294 826 LINE",
"187 826 LINE"
);
}
);
width = 409;
}
);
unicode = 00DD;
},
{
glyphname = Z;
lastChange = "2020-11-15 19:18:39 +0000";
layers = (
{
layerId = "A98666DC-4638-42B6-8332-BBF4982DF0EF";
paths = (
{
closed = 1;
nodes = (
"249 0 LINE",
"249 53 LINE",
"86 53 LINE SMOOTH",
"72 53 OFFCURVE",
"69 56 OFFCURVE",
"73 70 CURVE SMOOTH",
"187 443 OFFCURVE",
"217 541 OFFCURVE",
"244 630 CURVE SMOOTH",
"248 643 OFFCURVE",
"249 649 OFFCURVE",
"249 658 CURVE SMOOTH",
"249 700 LINE",
"15 700 LINE",
"15 647 LINE",
"178 647 LINE SMOOTH",
"192 647 OFFCURVE",
"195 644 OFFCURVE",
"191 630 CURVE SMOOTH",
"162 533 OFFCURVE",
"3 12 OFFCURVE",
"20 70 CURVE SMOOTH",
"16 57 OFFCURVE",
"15 51 OFFCURVE",
"15 42 CURVE SMOOTH",
"15 0 LINE"
);
}
);
width = 264;
},
{
layerId = "83682BA5-5A7B-4081-8B26-D550B6F33EEB";
paths = (
{
closed = 1;
nodes = (
"267 0 LINE",
"267 93 LINE",
"83 93 LINE",
"112 53 LINE",
"262 590 LINE SMOOTH",
"265 599 OFFCURVE",
"267 613 OFFCURVE",
"267 626 CURVE SMOOTH",
"267 699 LINE",
"20 699 LINE",
"20 606 LINE",
"214 606 LINE",
"185 646 LINE",
"25 109 LINE SMOOTH",
"22 100 OFFCURVE",
"20 86 OFFCURVE",
"20 73 CURVE SMOOTH",
"20 0 LINE"
);
}
);
width = 277;
},
{
layerId = "E6A807D2-02F5-45B7-9AC8-B5230FFEC057";
paths = (
{
closed = 1;
nodes = (
"164 153 LINE",
"212 285 OFFCURVE",
"259 398 OFFCURVE",
"307 530 CURVE SMOOTH",
"315 553 OFFCURVE",
"320 580 OFFCURVE",
"320 599 CURVE SMOOTH",
"320 633 OFFCURVE",
"320 666 OFFCURVE",
"320 700 CURVE",
"20 700 LINE",
"20 567 LINE",
"230 567 LINE",
"200 609 LINE",
"29 153 LINE"
);
},
{
closed = 1;
nodes = (
"176 542 LINE",
"128 410 OFFCURVE",
"81 297 OFFCURVE",
"33 165 CURVE SMOOTH",
"25 142 OFFCURVE",
"20 115 OFFCURVE",
"20 96 CURVE SMOOTH",
"20 62 OFFCURVE",
"20 29 OFFCURVE",
"20 -5 CURVE",
"320 -5 LINE",
"320 128 LINE",
"110 128 LINE",
"140 86 LINE",
"311 542 LINE"
);
}
);
width = 340;
},
{
associatedMasterId = "83682BA5-5A7B-4081-8B26-D550B6F33EEB";
layerId = "D3DA9ACA-C871-4BF7-9FF1-D3A26117DEE1";
name = "Oct 28 20, 00:38";
paths = (
{
closed = 1;
nodes = (
"20 93 LINE",
"115 93 LINE",
"247 507 LINE",
"152 507 LINE"
);
},
{
closed = 1;
nodes = (
"20 93 LINE",
"20 0 LINE",
"247 0 LINE",
"247 93 LINE"
);
},
{
closed = 1;
nodes = (
"247 600 LINE",
"21 600 LINE",
"13 507 LINE",
"247 507 LINE"
);
}
);
width = 267;
},
{
associatedMasterId = "A98666DC-4638-42B6-8332-BBF4982DF0EF";
layerId = "58D24D9B-BE52-4B3A-9DFA-CA4629F282E7";
name = "Nov 4 20, 22:22";
paths = (
{
closed = 1;
nodes = (
"183 53 LINE",
"236 53 LINE",
"417 647 LINE",
"364 647 LINE"
);
},
{
closed = 1;
nodes = (
"183 53 LINE",
"183 0 LINE",
"417 0 LINE",
"417 53 LINE"
);
},
{
closed = 1;
nodes = (
"417 700 LINE",
"183 700 LINE",
"183 647 LINE",
"417 647 LINE"
);
}
);
width = 600;
},
{
associatedMasterId = "E6A807D2-02F5-45B7-9AC8-B5230FFEC057";
layerId = "C39E42AA-FC86-4078-B38B-49761B375F26";
name = "Nov 5 20, 00:10";
paths = (
{
closed = 1;
nodes = (
"311 700 LINE",
"20 700 LINE",
"20 567 LINE",
"311 567 LINE"
);
},
{
closed = 1;
nodes = (
"311 133 LINE",
"20 133 LINE",
"20 0 LINE",
"311 0 LINE"
);
},
{
closed = 1;
nodes = (
"20 133 LINE",
"155 133 LINE",
"311 567 LINE",
"176 567 LINE"
);
}
);
width = 341;
}
);
unicode = 005A;
},
{
glyphname = a;
lastChange = "2020-11-15 23:21:56 +0000";
layers = (
{
layerId = "A98666DC-4638-42B6-8332-BBF4982DF0EF";
paths = (
{
closed = 1;
nodes = (
"73 202 LINE",
"73 280 OFFCURVE",
"73 339 OFFCURVE",
"73 417 CURVE SMOOTH",
"73 441 OFFCURVE",
"79 447 OFFCURVE",
"103 447 CURVE SMOOTH",
"147 447 OFFCURVE",
"172 447 OFFCURVE",
"216 447 CURVE",
"216 461 OFFCURVE",
"174 500 OFFCURVE",
"123 500 CURVE SMOOTH",
"57 500 OFFCURVE",
"20 468 OFFCURVE",
"20 407 CURVE SMOOTH",
"20 202 LINE"
);
},
{
closed = 1;
nodes = (
"20 93 LINE SMOOTH",
"20 39 OFFCURVE",
"60 0 OFFCURVE",
"121 0 CURVE SMOOTH",
"150 0 LINE",
"198 53 LINE",
"160 53 OFFCURVE",
"141 53 OFFCURVE",
"103 53 CURVE SMOOTH",
"79 53 OFFCURVE",
"73 59 OFFCURVE",
"73 83 CURVE SMOOTH",
"73 148 OFFCURVE",
"73 193 OFFCURVE",
"73 258 CURVE",
"20 258 LINE"
);
},
{
closed = 1;
nodes = (
"173 0 LINE",
"226 0 LINE",
"226 500 LINE",
"173 500 LINE"
);
},
{
closed = 1;
nodes = (
"173 0 LINE",
"246 0 LINE",
"238 53 LINE",
"173 53 LINE"
);
}
);
width = 261;
},
{
layerId = "E6A807D2-02F5-45B7-9AC8-B5230FFEC057";
paths = (
{
closed = 1;
nodes = (
"352 500 LINE",
"216 500 LINE",
"216 0 LINE",
"352 0 LINE"
);
},
{
closed = 1;
nodes = (
"270 133 LINE",
"112 133 LINE",
"156 91 LINE",
"156 251 LINE",
"20 251 LINE",
"20 143 LINE SMOOTH",
"20 41 OFFCURVE",
"61 0 OFFCURVE",
"164 0 CURVE SMOOTH",
"180 0 LINE"
);
},
{
closed = 1;
nodes = (
"276 456 OFFCURVE",
"233 500 OFFCURVE",
"169 500 CURVE SMOOTH",
"160 500 LINE SMOOTH",
"60 500 OFFCURVE",
"20 459 OFFCURVE",
"20 357 CURVE SMOOTH",
"20 249 LINE",
"156 249 LINE",
"156 412 LINE",
"111 367 LINE",
"276 367 LINE",
"276 391 LINE SMOOTH"
);
},
{
closed = 1;
nodes = (
"216 0 LINE",
"372 0 LINE",
"362 133 LINE",
"216 133 LINE"
);
}
);
width = 382;
},
{
associatedMasterId = "83682BA5-5A7B-4081-8B26-D550B6F33EEB";
layerId = "ECF06421-D7FC-4BEA-9336-54D203517A17";
name = "Oct 28 20, 20:29";
paths = (
{
closed = 1;
nodes = (
"115 378 LINE SMOOTH",
"59 378 OFFCURVE",
"10 341 OFFCURVE",
"10 285 CURVE SMOOTH",
"10 154 LINE",
"105 154 LINE",
"105 327 LINE",
"61 285 LINE",
"258 285 LINE",
"258 378 LINE"
);
},
{
closed = 1;
nodes = (
"104 555 LINE SMOOTH",
"48 555 OFFCURVE",
"10 518 OFFCURVE",
"10 462 CURVE SMOOTH",
"10 402 LINE",
"105 402 LINE",
"105 504 LINE",
"61 462 LINE",
"140 462 LINE",
"140 555 LINE"
);
},
{
closed = 1;
nodes = (
"118 462 LINE",
"207 462 LINE",
"163 504 LINE",
"163 0 LINE",
"258 0 LINE",
"258 462 LINE SMOOTH",
"258 518 OFFCURVE",
"220 555 OFFCURVE",
"164 555 CURVE SMOOTH",
"118 555 LINE"
);
},
{
closed = 1;
nodes = (
"258 378 LINE",
"115 378 LINE SMOOTH",
"58 378 OFFCURVE",
"10 340 OFFCURVE",
"10 285 CURVE SMOOTH",
"10 93 LINE SMOOTH",
"10 39 OFFCURVE",
"50 0 OFFCURVE",
"111 0 CURVE SMOOTH",
"113 0 LINE",
"115 0 LINE SMOOTH",
"168 0 OFFCURVE",
"204 39 OFFCURVE",
"204 93 CURVE",
"63 93 LINE",
"105 51 LINE",
"105 327 LINE",
"63 285 LINE",
"258 285 LINE"
);
}
);
width = 278;
},
{
layerId = "83682BA5-5A7B-4081-8B26-D550B6F33EEB";
paths = (
{
closed = 1;
nodes = (
"173 0 LINE",
"268 0 LINE",
"268 500 LINE",
"173 500 LINE"
);
},
{
closed = 1;
nodes = (
"115 202 LINE",
"115 449 LINE",
"73 407 LINE",
"214 407 LINE",
"214 461 OFFCURVE",
"178 500 OFFCURVE",
"125 500 CURVE SMOOTH",
"123 500 LINE",
"121 500 LINE SMOOTH",
"60 500 OFFCURVE",
"20 461 OFFCURVE",
"20 407 CURVE SMOOTH",
"20 202 LINE"
);
},
{
closed = 1;
nodes = (
"20 93 LINE SMOOTH",
"20 39 OFFCURVE",
"60 0 OFFCURVE",
"121 0 CURVE SMOOTH",
"148 0 LINE",
"208 93 LINE",
"73 93 LINE",
"115 51 LINE",
"115 258 LINE",
"20 258 LINE"
);
},
{
closed = 1;
nodes = (
"173 0 LINE",
"292 0 LINE",
"282 93 LINE",
"173 93 LINE"
);
}
);
visible = 1;
width = 302;
},
{
associatedMasterId = "83682BA5-5A7B-4081-8B26-D550B6F33EEB";
layerId = "DC4B9D17-11F4-4080-A0F7-1D44805E846A";
name = "Oct 29 20, 13:12";
paths = (
{
closed = 1;
nodes = (
"87 600 LINE",
"87 507 LINE",
"214 507 LINE",
"214 600 LINE"
);
},
{
closed = 1;
nodes = (
"41 213 LINE",
"41 120 LINE",
"270 120 LINE",
"270 213 LINE"
);
},
{
closed = 1;
nodes = (
"168 600 LINE",
"72 600 LINE",
"19 0 LINE",
"114 0 LINE"
);
},
{
closed = 1;
nodes = (
"239 600 LINE",
"143 600 LINE",
"197 0 LINE",
"292 0 LINE"
);
}
);
width = 305;
},
{
associatedMasterId = "A98666DC-4638-42B6-8332-BBF4982DF0EF";
layerId = "E225CB82-1FD2-4186-9562-7BF0D05B68F4";
name = "Nov 5 20, 14:48";
paths = (
{
closed = 1;
nodes = (
"68 202 LINE",
"68 469 LINE",
"48 447 LINE",
"211 447 LINE",
"211 461 OFFCURVE",
"169 500 OFFCURVE",
"118 500 CURVE SMOOTH",
"52 500 OFFCURVE",
"15 468 OFFCURVE",
"15 407 CURVE SMOOTH",
"15 202 LINE"
);
},
{
closed = 1;
nodes = (
"15 93 LINE SMOOTH",
"15 39 OFFCURVE",
"55 0 OFFCURVE",
"116 0 CURVE SMOOTH",
"145 0 LINE",
"193 53 LINE",
"48 53 LINE",
"68 31 LINE",
"68 258 LINE",
"15 258 LINE"
);
},
{
closed = 1;
nodes = (
"168 0 LINE",
"221 0 LINE",
"221 500 LINE",
"168 500 LINE"
);
}
);
width = 236;
},
{
associatedMasterId = "A98666DC-4638-42B6-8332-BBF4982DF0EF";
layerId = "55754092-40C9-4FF1-83DC-4CB2E2654F89";
name = "Nov 5 20, 17:20";
paths = (
{
closed = 1;
nodes = (
"68 202 LINE",
"68 280 OFFCURVE",
"68 339 OFFCURVE",
"68 417 CURVE SMOOTH",
"68 441 OFFCURVE",
"74 447 OFFCURVE",
"98 447 CURVE SMOOTH",
"142 447 OFFCURVE",
"167 447 OFFCURVE",
"211 447 CURVE",
"211 461 OFFCURVE",
"169 500 OFFCURVE",
"118 500 CURVE SMOOTH",
"52 500 OFFCURVE",
"15 468 OFFCURVE",
"15 407 CURVE SMOOTH",
"15 202 LINE"
);
},
{
closed = 1;
nodes = (
"15 93 LINE SMOOTH",
"15 39 OFFCURVE",
"55 0 OFFCURVE",
"116 0 CURVE SMOOTH",
"145 0 LINE",
"193 53 LINE",
"155 53 OFFCURVE",
"136 53 OFFCURVE",
"98 53 CURVE SMOOTH",
"74 53 OFFCURVE",
"68 59 OFFCURVE",
"68 83 CURVE SMOOTH",
"68 148 OFFCURVE",
"68 193 OFFCURVE",
"68 258 CURVE",
"15 258 LINE"
);
},
{
closed = 1;
nodes = (
"168 0 LINE",
"221 0 LINE",
"221 500 LINE",
"168 500 LINE"
);
},
{
closed = 1;
nodes = (
"168 0 LINE",
"241 0 LINE",
"233 53 LINE",
"168 53 LINE"
);
}
);
width = 246;
}
);
unicode = 0061;
},
{
glyphname = aacute;
lastChange = "2020-11-22 23:18:24 +0000";
layers = (
{
layerId = "A98666DC-4638-42B6-8332-BBF4982DF0EF";
paths = (
{
closed = 1;
nodes = (
"73 202 LINE",
"73 280 OFFCURVE",
"73 339 OFFCURVE",
"73 417 CURVE SMOOTH",
"73 441 OFFCURVE",
"79 447 OFFCURVE",
"103 447 CURVE SMOOTH",
"147 447 OFFCURVE",
"172 447 OFFCURVE",
"216 447 CURVE",
"216 461 OFFCURVE",
"174 500 OFFCURVE",
"123 500 CURVE SMOOTH",
"57 500 OFFCURVE",
"20 468 OFFCURVE",
"20 407 CURVE SMOOTH",
"20 202 LINE"
);
},
{
closed = 1;
nodes = (
"20 93 LINE SMOOTH",
"20 39 OFFCURVE",
"60 0 OFFCURVE",
"121 0 CURVE SMOOTH",
"150 0 LINE",
"198 53 LINE",
"160 53 OFFCURVE",
"141 53 OFFCURVE",
"103 53 CURVE SMOOTH",
"79 53 OFFCURVE",
"73 59 OFFCURVE",
"73 83 CURVE SMOOTH",
"73 148 OFFCURVE",
"73 193 OFFCURVE",
"73 258 CURVE",
"20 258 LINE"
);
},
{
closed = 1;
nodes = (
"173 0 LINE",
"226 0 LINE",
"226 500 LINE",
"173 500 LINE"
);
},
{
closed = 1;
nodes = (
"173 0 LINE",
"246 0 LINE",
"238 53 LINE",
"173 53 LINE"
);
},
{
closed = 1;
nodes = (
"100 530 LINE",
"140 530 LINE",
"167 610 LINE",
"127 610 LINE"
);
}
);
width = 266;
},
{
layerId = "83682BA5-5A7B-4081-8B26-D550B6F33EEB";
paths = (
{
closed = 1;
nodes = (
"173 0 LINE",
"268 0 LINE",
"268 500 LINE",
"173 500 LINE"
);
},
{
closed = 1;
nodes = (
"115 202 LINE",
"115 449 LINE",
"73 407 LINE",
"214 407 LINE",
"214 461 OFFCURVE",
"178 500 OFFCURVE",
"125 500 CURVE SMOOTH",
"123 500 LINE",
"121 500 LINE SMOOTH",
"60 500 OFFCURVE",
"20 461 OFFCURVE",
"20 407 CURVE SMOOTH",
"20 202 LINE"
);
},
{
closed = 1;
nodes = (
"20 93 LINE SMOOTH",
"20 39 OFFCURVE",
"60 0 OFFCURVE",
"121 0 CURVE SMOOTH",
"148 0 LINE",
"208 93 LINE",
"73 93 LINE",
"115 51 LINE",
"115 258 LINE",
"20 258 LINE"
);
},
{
closed = 1;
nodes = (
"173 0 LINE",
"292 0 LINE",
"282 93 LINE",
"173 93 LINE"
);
},
{
closed = 1;
nodes = (
"108 538 LINE",
"188 538 LINE",
"215 618 LINE",
"135 618 LINE"
);
}
);
width = 312;
},
{
layerId = "E6A807D2-02F5-45B7-9AC8-B5230FFEC057";
paths = (
{
closed = 1;
nodes = (
"352 500 LINE",
"216 500 LINE",
"216 0 LINE",
"352 0 LINE"
);
},
{
closed = 1;
nodes = (
"270 133 LINE",
"112 133 LINE",
"156 91 LINE",
"156 251 LINE",
"20 251 LINE",
"20 143 LINE SMOOTH",
"20 41 OFFCURVE",
"61 0 OFFCURVE",
"164 0 CURVE SMOOTH",
"180 0 LINE"
);
},
{
closed = 1;
nodes = (
"276 456 OFFCURVE",
"233 500 OFFCURVE",
"169 500 CURVE SMOOTH",
"160 500 LINE SMOOTH",
"60 500 OFFCURVE",
"20 459 OFFCURVE",
"20 357 CURVE SMOOTH",
"20 249 LINE",
"156 249 LINE",
"156 412 LINE",
"111 367 LINE",
"276 367 LINE",
"276 391 LINE SMOOTH"
);
},
{
closed = 1;
nodes = (
"216 0 LINE",
"372 0 LINE",
"362 133 LINE",
"216 133 LINE"
);
},
{
closed = 1;
nodes = (
"133 530 LINE",
"240 530 LINE",
"276 636 LINE",
"169 636 LINE"
);
}
);
width = 392;
}
);
unicode = 00E1;
},
{
glyphname = acircumflex;
lastChange = "2020-11-22 23:18:03 +0000";
layers = (
{
layerId = "A98666DC-4638-42B6-8332-BBF4982DF0EF";
paths = (
{
closed = 1;
nodes = (
"73 202 LINE",
"73 280 OFFCURVE",
"73 339 OFFCURVE",
"73 417 CURVE SMOOTH",
"73 441 OFFCURVE",
"79 447 OFFCURVE",
"103 447 CURVE SMOOTH",
"147 447 OFFCURVE",
"172 447 OFFCURVE",
"216 447 CURVE",
"216 461 OFFCURVE",
"174 500 OFFCURVE",
"123 500 CURVE SMOOTH",
"57 500 OFFCURVE",
"20 468 OFFCURVE",
"20 407 CURVE SMOOTH",
"20 202 LINE"
);
},
{
closed = 1;
nodes = (
"20 93 LINE SMOOTH",
"20 39 OFFCURVE",
"60 0 OFFCURVE",
"121 0 CURVE SMOOTH",
"150 0 LINE",
"198 53 LINE",
"160 53 OFFCURVE",
"141 53 OFFCURVE",
"103 53 CURVE SMOOTH",
"79 53 OFFCURVE",
"73 59 OFFCURVE",
"73 83 CURVE SMOOTH",
"73 148 OFFCURVE",
"73 193 OFFCURVE",
"73 258 CURVE",
"20 258 LINE"
);
},
{
closed = 1;
nodes = (
"173 0 LINE",
"226 0 LINE",
"226 500 LINE",
"173 500 LINE"
);
},
{
closed = 1;
nodes = (
"173 0 LINE",
"246 0 LINE",
"238 53 LINE",
"173 53 LINE"
);
},
{
closed = 1;
nodes = (
"115 530 LINE",
"129 560 LINE",
"142 530 LINE",
"182 530 LINE",
"155 590 LINE",
"102 590 LINE",
"75 530 LINE"
);
}
);
width = 266;
},
{
layerId = "83682BA5-5A7B-4081-8B26-D550B6F33EEB";
paths = (
{
closed = 1;
nodes = (
"173 0 LINE",
"268 0 LINE",
"268 500 LINE",
"173 500 LINE"
);
},
{
closed = 1;
nodes = (
"115 202 LINE",
"115 449 LINE",
"73 407 LINE",
"214 407 LINE",
"214 461 OFFCURVE",
"178 500 OFFCURVE",
"125 500 CURVE SMOOTH",
"123 500 LINE",
"121 500 LINE SMOOTH",
"60 500 OFFCURVE",
"20 461 OFFCURVE",
"20 407 CURVE SMOOTH",
"20 202 LINE"
);
},
{
closed = 1;
nodes = (
"20 93 LINE SMOOTH",
"20 39 OFFCURVE",
"60 0 OFFCURVE",
"121 0 CURVE SMOOTH",
"148 0 LINE",
"208 93 LINE",
"73 93 LINE",
"115 51 LINE",
"115 258 LINE",
"20 258 LINE"
);
},
{
closed = 1;
nodes = (
"173 0 LINE",
"292 0 LINE",
"282 93 LINE",
"173 93 LINE"
);
},
{
closed = 1;
nodes = (
"78 538 LINE",
"138 538 LINE",
"170 608 LINE",
"110 608 LINE"
);
},
{
closed = 1;
nodes = (
"133 608 LINE",
"165 538 LINE",
"225 538 LINE",
"193 608 LINE"
);
}
);
width = 312;
},
{
layerId = "E6A807D2-02F5-45B7-9AC8-B5230FFEC057";
paths = (
{
closed = 1;
nodes = (
"352 500 LINE",
"216 500 LINE",
"216 0 LINE",
"352 0 LINE"
);
},
{
closed = 1;
nodes = (
"270 133 LINE",
"112 133 LINE",
"156 91 LINE",
"156 251 LINE",
"20 251 LINE",
"20 143 LINE SMOOTH",
"20 41 OFFCURVE",
"61 0 OFFCURVE",
"164 0 CURVE SMOOTH",
"180 0 LINE"
);
},
{
closed = 1;
nodes = (
"276 456 OFFCURVE",
"233 500 OFFCURVE",
"169 500 CURVE SMOOTH",
"160 500 LINE SMOOTH",
"60 500 OFFCURVE",
"20 459 OFFCURVE",
"20 357 CURVE SMOOTH",
"20 249 LINE",
"156 249 LINE",
"156 412 LINE",
"111 367 LINE",
"276 367 LINE",
"276 391 LINE SMOOTH"
);
},
{
closed = 1;
nodes = (
"216 0 LINE",
"372 0 LINE",
"362 133 LINE",
"216 133 LINE"
);
},
{
closed = 1;
nodes = (
"93 530 LINE",
"173 530 LINE",
"215 624 LINE",
"135 624 LINE"
);
},
{
closed = 1;
nodes = (
"166 624 LINE",
"208 530 LINE",
"288 530 LINE",
"246 624 LINE"
);
}
);
width = 392;
}
);
unicode = 00E2;
},
{
glyphname = adieresis;
lastChange = "2020-11-22 22:14:46 +0000";
layers = (
{
layerId = "A98666DC-4638-42B6-8332-BBF4982DF0EF";
paths = (
{
closed = 1;
nodes = (
"73 202 LINE",
"73 280 OFFCURVE",
"73 339 OFFCURVE",
"73 417 CURVE SMOOTH",
"73 441 OFFCURVE",
"79 447 OFFCURVE",
"103 447 CURVE SMOOTH",
"147 447 OFFCURVE",
"172 447 OFFCURVE",
"216 447 CURVE",
"216 461 OFFCURVE",
"174 500 OFFCURVE",
"123 500 CURVE SMOOTH",
"57 500 OFFCURVE",
"20 468 OFFCURVE",
"20 407 CURVE SMOOTH",
"20 202 LINE"
);
},
{
closed = 1;
nodes = (
"20 93 LINE SMOOTH",
"20 39 OFFCURVE",
"60 0 OFFCURVE",
"121 0 CURVE SMOOTH",
"150 0 LINE",
"198 53 LINE",
"160 53 OFFCURVE",
"141 53 OFFCURVE",
"103 53 CURVE SMOOTH",
"79 53 OFFCURVE",
"73 59 OFFCURVE",
"73 83 CURVE SMOOTH",
"73 148 OFFCURVE",
"73 193 OFFCURVE",
"73 258 CURVE",
"20 258 LINE"
);
},
{
closed = 1;
nodes = (
"173 0 LINE",
"226 0 LINE",
"226 500 LINE",
"173 500 LINE"
);
},
{
closed = 1;
nodes = (
"173 0 LINE",
"246 0 LINE",
"238 53 LINE",
"173 53 LINE"
);
},
{
closed = 1;
nodes = (
"69 538 LINE",
"122 538 LINE",
"122 591 LINE",
"69 591 LINE"
);
},
{
closed = 1;
nodes = (
"137 538 LINE",
"190 538 LINE",
"190 591 LINE",
"137 591 LINE"
);
}
);
width = 266;
},
{
layerId = "83682BA5-5A7B-4081-8B26-D550B6F33EEB";
paths = (
{
closed = 1;
nodes = (
"173 0 LINE",
"268 0 LINE",
"268 500 LINE",
"173 500 LINE"
);
},
{
closed = 1;
nodes = (
"115 202 LINE",
"115 449 LINE",
"73 407 LINE",
"214 407 LINE",
"214 461 OFFCURVE",
"178 500 OFFCURVE",
"125 500 CURVE SMOOTH",
"123 500 LINE",
"121 500 LINE SMOOTH",
"60 500 OFFCURVE",
"20 461 OFFCURVE",
"20 407 CURVE SMOOTH",
"20 202 LINE"
);
},
{
closed = 1;
nodes = (
"20 93 LINE SMOOTH",
"20 39 OFFCURVE",
"60 0 OFFCURVE",
"121 0 CURVE SMOOTH",
"148 0 LINE",
"208 93 LINE",
"73 93 LINE",
"115 51 LINE",
"115 258 LINE",
"20 258 LINE"
);
},
{
closed = 1;
nodes = (
"173 0 LINE",
"292 0 LINE",
"282 93 LINE",
"173 93 LINE"
);
},
{
closed = 1;
nodes = (
"71 538 LINE",
"144 538 LINE",
"144 611 LINE",
"71 611 LINE"
);
},
{
closed = 1;
nodes = (
"159 538 LINE",
"232 538 LINE",
"232 611 LINE",
"159 611 LINE"
);
}
);
width = 312;
},
{
layerId = "E6A807D2-02F5-45B7-9AC8-B5230FFEC057";
paths = (
{
closed = 1;
nodes = (
"352 500 LINE",
"216 500 LINE",
"216 0 LINE",
"352 0 LINE"
);
},
{
closed = 1;
nodes = (
"270 133 LINE",
"112 133 LINE",
"156 91 LINE",
"156 251 LINE",
"20 251 LINE",
"20 143 LINE SMOOTH",
"20 41 OFFCURVE",
"61 0 OFFCURVE",
"164 0 CURVE SMOOTH",
"180 0 LINE"
);
},
{
closed = 1;
nodes = (
"276 456 OFFCURVE",
"233 500 OFFCURVE",
"169 500 CURVE SMOOTH",
"160 500 LINE SMOOTH",
"60 500 OFFCURVE",
"20 459 OFFCURVE",
"20 357 CURVE SMOOTH",
"20 249 LINE",
"156 249 LINE",
"156 412 LINE",
"111 367 LINE",
"276 367 LINE",
"276 391 LINE SMOOTH"
);
},
{
closed = 1;
nodes = (
"216 0 LINE",
"372 0 LINE",
"362 133 LINE",
"216 133 LINE"
);
},
{
closed = 1;
nodes = (
"91 538 LINE",
"189 538 LINE",
"189 635 LINE",
"91 635 LINE"
);
},
{
closed = 1;
nodes = (
"208 538 LINE",
"306 538 LINE",
"306 635 LINE",
"208 635 LINE"
);
}
);
width = 392;
}
);
unicode = 00E4;
},
{
glyphname = agrave;
lastChange = "2020-11-22 23:18:56 +0000";
layers = (
{
components = (
{
name = a;
}
);
layerId = "A98666DC-4638-42B6-8332-BBF4982DF0EF";
paths = (
{
closed = 1;
nodes = (
"73 202 LINE",
"73 280 OFFCURVE",
"73 339 OFFCURVE",
"73 417 CURVE SMOOTH",
"73 441 OFFCURVE",
"79 447 OFFCURVE",
"103 447 CURVE SMOOTH",
"147 447 OFFCURVE",
"172 447 OFFCURVE",
"216 447 CURVE",
"216 461 OFFCURVE",
"174 500 OFFCURVE",
"123 500 CURVE SMOOTH",
"57 500 OFFCURVE",
"20 468 OFFCURVE",
"20 407 CURVE SMOOTH",
"20 202 LINE"
);
},
{
closed = 1;
nodes = (
"20 93 LINE SMOOTH",
"20 39 OFFCURVE",
"60 0 OFFCURVE",
"121 0 CURVE SMOOTH",
"150 0 LINE",
"198 53 LINE",
"160 53 OFFCURVE",
"141 53 OFFCURVE",
"103 53 CURVE SMOOTH",
"79 53 OFFCURVE",
"73 59 OFFCURVE",
"73 83 CURVE SMOOTH",
"73 148 OFFCURVE",
"73 193 OFFCURVE",
"73 258 CURVE",
"20 258 LINE"
);
},
{
closed = 1;
nodes = (
"173 0 LINE",
"226 0 LINE",
"226 500 LINE",
"173 500 LINE"
);
},
{
closed = 1;
nodes = (
"173 0 LINE",
"246 0 LINE",
"238 53 LINE",
"173 53 LINE"
);
},
{
closed = 1;
nodes = (
"80 610 LINE",
"107 530 LINE",
"147 530 LINE",
"120 610 LINE"
);
}
);
width = 266;
},
{
layerId = "83682BA5-5A7B-4081-8B26-D550B6F33EEB";
paths = (
{
closed = 1;
nodes = (
"173 0 LINE",
"268 0 LINE",
"268 500 LINE",
"173 500 LINE"
);
},
{
closed = 1;
nodes = (
"115 202 LINE",
"115 449 LINE",
"73 407 LINE",
"214 407 LINE",
"214 461 OFFCURVE",
"178 500 OFFCURVE",
"125 500 CURVE SMOOTH",
"123 500 LINE",
"121 500 LINE SMOOTH",
"60 500 OFFCURVE",
"20 461 OFFCURVE",
"20 407 CURVE SMOOTH",
"20 202 LINE"
);
},
{
closed = 1;
nodes = (
"20 93 LINE SMOOTH",
"20 39 OFFCURVE",
"60 0 OFFCURVE",
"121 0 CURVE SMOOTH",
"148 0 LINE",
"208 93 LINE",
"73 93 LINE",
"115 51 LINE",
"115 258 LINE",
"20 258 LINE"
);
},
{
closed = 1;
nodes = (
"173 0 LINE",
"292 0 LINE",
"282 93 LINE",
"173 93 LINE"
);
},
{
closed = 1;
nodes = (
"83 618 LINE",
"110 538 LINE",
"190 538 LINE",
"163 618 LINE"
);
}
);
width = 312;
},
{
layerId = "E6A807D2-02F5-45B7-9AC8-B5230FFEC057";
paths = (
{
closed = 1;
nodes = (
"352 500 LINE",
"216 500 LINE",
"216 0 LINE",
"352 0 LINE"
);
},
{
closed = 1;
nodes = (
"270 133 LINE",
"112 133 LINE",
"156 91 LINE",
"156 251 LINE",
"20 251 LINE",
"20 143 LINE SMOOTH",
"20 41 OFFCURVE",
"61 0 OFFCURVE",
"164 0 CURVE SMOOTH",
"180 0 LINE"
);
},
{
closed = 1;
nodes = (
"276 456 OFFCURVE",
"233 500 OFFCURVE",
"169 500 CURVE SMOOTH",
"160 500 LINE SMOOTH",
"60 500 OFFCURVE",
"20 459 OFFCURVE",
"20 357 CURVE SMOOTH",
"20 249 LINE",
"156 249 LINE",
"156 412 LINE",
"111 367 LINE",
"276 367 LINE",
"276 391 LINE SMOOTH"
);
},
{
closed = 1;
nodes = (
"216 0 LINE",
"372 0 LINE",
"362 133 LINE",
"216 133 LINE"
);
},
{
closed = 1;
nodes = (
"106 636 LINE",
"142 530 LINE",
"249 530 LINE",
"213 636 LINE"
);
}
);
width = 392;
}
);
unicode = 00E0;
},
{
glyphname = aring;
lastChange = "2020-11-22 23:17:27 +0000";
layers = (
{
layerId = "A98666DC-4638-42B6-8332-BBF4982DF0EF";
paths = (
{
closed = 1;
nodes = (
"73 202 LINE",
"73 280 OFFCURVE",
"73 339 OFFCURVE",
"73 417 CURVE SMOOTH",
"73 441 OFFCURVE",
"79 447 OFFCURVE",
"103 447 CURVE SMOOTH",
"147 447 OFFCURVE",
"172 447 OFFCURVE",
"216 447 CURVE",
"216 461 OFFCURVE",
"174 500 OFFCURVE",
"123 500 CURVE SMOOTH",
"57 500 OFFCURVE",
"20 468 OFFCURVE",
"20 407 CURVE SMOOTH",
"20 202 LINE"
);
},
{
closed = 1;
nodes = (
"20 93 LINE SMOOTH",
"20 39 OFFCURVE",
"60 0 OFFCURVE",
"121 0 CURVE SMOOTH",
"150 0 LINE",
"198 53 LINE",
"160 53 OFFCURVE",
"141 53 OFFCURVE",
"103 53 CURVE SMOOTH",
"79 53 OFFCURVE",
"73 59 OFFCURVE",
"73 83 CURVE SMOOTH",
"73 148 OFFCURVE",
"73 193 OFFCURVE",
"73 258 CURVE",
"20 258 LINE"
);
},
{
closed = 1;
nodes = (
"173 0 LINE",
"226 0 LINE",
"226 500 LINE",
"173 500 LINE"
);
},
{
closed = 1;
nodes = (
"173 0 LINE",
"246 0 LINE",
"238 53 LINE",
"173 53 LINE"
);
},
{
closed = 1;
nodes = (
"155 538 OFFCURVE",
"177 559 OFFCURVE",
"177 591 CURVE SMOOTH",
"177 623 OFFCURVE",
"155 645 OFFCURVE",
"122 645 CURVE SMOOTH",
"90 645 OFFCURVE",
"68 623 OFFCURVE",
"68 591 CURVE SMOOTH",
"68 559 OFFCURVE",
"90 538 OFFCURVE",
"122 538 CURVE SMOOTH"
);
},
{
closed = 1;
nodes = (
"108 565 OFFCURVE",
"98 575 OFFCURVE",
"98 591 CURVE SMOOTH",
"98 607 OFFCURVE",
"108 618 OFFCURVE",
"122 618 CURVE SMOOTH",
"137 618 OFFCURVE",
"147 607 OFFCURVE",
"147 591 CURVE SMOOTH",
"147 575 OFFCURVE",
"137 565 OFFCURVE",
"122 565 CURVE SMOOTH"
);
}
);
width = 266;
},
{
components = (
{
name = a;
}
);
layerId = "83682BA5-5A7B-4081-8B26-D550B6F33EEB";
paths = (
{
closed = 1;
nodes = (
"173 0 LINE",
"268 0 LINE",
"268 500 LINE",
"173 500 LINE"
);
},
{
closed = 1;
nodes = (
"115 202 LINE",
"115 449 LINE",
"73 407 LINE",
"214 407 LINE",
"214 461 OFFCURVE",
"178 500 OFFCURVE",
"125 500 CURVE SMOOTH",
"123 500 LINE",
"121 500 LINE SMOOTH",
"60 500 OFFCURVE",
"20 461 OFFCURVE",
"20 407 CURVE SMOOTH",
"20 202 LINE"
);
},
{
closed = 1;
nodes = (
"20 93 LINE SMOOTH",
"20 39 OFFCURVE",
"60 0 OFFCURVE",
"121 0 CURVE SMOOTH",
"148 0 LINE",
"208 93 LINE",
"73 93 LINE",
"115 51 LINE",
"115 258 LINE",
"20 258 LINE"
);
},
{
closed = 1;
nodes = (
"173 0 LINE",
"292 0 LINE",
"282 93 LINE",
"173 93 LINE"
);
},
{
closed = 1;
nodes = (
"195 530 OFFCURVE",
"219 560 OFFCURVE",
"219 594 CURVE SMOOTH",
"219 629 OFFCURVE",
"195 659 OFFCURVE",
"154 659 CURVE SMOOTH",
"112 659 OFFCURVE",
"88 628 OFFCURVE",
"88 594 CURVE SMOOTH",
"88 560 OFFCURVE",
"113 530 OFFCURVE",
"154 530 CURVE SMOOTH"
);
},
{
closed = 1;
nodes = (
"143 575 OFFCURVE",
"135 586 OFFCURVE",
"135 593 CURVE SMOOTH",
"135 602 OFFCURVE",
"142 615 OFFCURVE",
"152 614 CURVE SMOOTH",
"164 614 OFFCURVE",
"172 602 OFFCURVE",
"172 593 CURVE SMOOTH",
"172 586 OFFCURVE",
"164 575 OFFCURVE",
"152 575 CURVE SMOOTH"
);
}
);
width = 312;
},
{
layerId = "E6A807D2-02F5-45B7-9AC8-B5230FFEC057";
paths = (
{
closed = 1;
nodes = (
"352 500 LINE",
"216 500 LINE",
"216 0 LINE",
"352 0 LINE"
);
},
{
closed = 1;
nodes = (
"270 133 LINE",
"112 133 LINE",
"156 91 LINE",
"156 251 LINE",
"20 251 LINE",
"20 143 LINE SMOOTH",
"20 41 OFFCURVE",
"61 0 OFFCURVE",
"164 0 CURVE SMOOTH",
"180 0 LINE"
);
},
{
closed = 1;
nodes = (
"276 456 OFFCURVE",
"233 500 OFFCURVE",
"169 500 CURVE SMOOTH",
"160 500 LINE SMOOTH",
"60 500 OFFCURVE",
"20 459 OFFCURVE",
"20 357 CURVE SMOOTH",
"20 249 LINE",
"156 249 LINE",
"156 412 LINE",
"111 367 LINE",
"276 367 LINE",
"276 391 LINE SMOOTH"
);
},
{
closed = 1;
nodes = (
"216 0 LINE",
"372 0 LINE",
"362 133 LINE",
"216 133 LINE"
);
},
{
closed = 1;
nodes = (
"229 530 OFFCURVE",
"256 564 OFFCURVE",
"256 601 CURVE SMOOTH",
"256 639 OFFCURVE",
"229 673 OFFCURVE",
"184 673 CURVE SMOOTH",
"138 673 OFFCURVE",
"111 638 OFFCURVE",
"111 601 CURVE SMOOTH",
"111 564 OFFCURVE",
"139 530 OFFCURVE",
"184 530 CURVE SMOOTH"
);
},
{
closed = 1;
nodes = (
"173 582 OFFCURVE",
"165 593 OFFCURVE",
"165 600 CURVE SMOOTH",
"165 609 OFFCURVE",
"172 622 OFFCURVE",
"182 621 CURVE SMOOTH",
"194 621 OFFCURVE",
"202 609 OFFCURVE",
"202 600 CURVE SMOOTH",
"202 593 OFFCURVE",
"194 582 OFFCURVE",
"182 582 CURVE SMOOTH"
);
}
);
width = 392;
}
);
unicode = 00E5;
},
{
glyphname = atilde;
lastChange = "2020-11-22 23:17:45 +0000";
layers = (
{
layerId = "A98666DC-4638-42B6-8332-BBF4982DF0EF";
paths = (
{
closed = 1;
nodes = (
"73 202 LINE",
"73 280 OFFCURVE",
"73 339 OFFCURVE",
"73 417 CURVE SMOOTH",
"73 441 OFFCURVE",
"79 447 OFFCURVE",
"103 447 CURVE SMOOTH",
"147 447 OFFCURVE",
"172 447 OFFCURVE",
"216 447 CURVE",
"216 461 OFFCURVE",
"174 500 OFFCURVE",
"123 500 CURVE SMOOTH",
"57 500 OFFCURVE",
"20 468 OFFCURVE",
"20 407 CURVE SMOOTH",
"20 202 LINE"
);
},
{
closed = 1;
nodes = (
"20 93 LINE SMOOTH",
"20 39 OFFCURVE",
"60 0 OFFCURVE",
"121 0 CURVE SMOOTH",
"150 0 LINE",
"198 53 LINE",
"160 53 OFFCURVE",
"141 53 OFFCURVE",
"103 53 CURVE SMOOTH",
"79 53 OFFCURVE",
"73 59 OFFCURVE",
"73 83 CURVE SMOOTH",
"73 148 OFFCURVE",
"73 193 OFFCURVE",
"73 258 CURVE",
"20 258 LINE"
);
},
{
closed = 1;
nodes = (
"173 0 LINE",
"226 0 LINE",
"226 500 LINE",
"173 500 LINE"
);
},
{
closed = 1;
nodes = (
"173 0 LINE",
"246 0 LINE",
"238 53 LINE",
"173 53 LINE"
);
},
{
closed = 1;
nodes = (
"105 601 OFFCURVE",
"84 598 OFFCURVE",
"70 581 CURVE",
"70 530 LINE",
"83 550 OFFCURVE",
"101 553 OFFCURVE",
"126 540 CURVE SMOOTH",
"154 524 OFFCURVE",
"175 526 OFFCURVE",
"188 545 CURVE",
"188 596 LINE",
"177 575 OFFCURVE",
"158 572 OFFCURVE",
"132 586 CURVE SMOOTH"
);
}
);
width = 266;
},
{
layerId = "83682BA5-5A7B-4081-8B26-D550B6F33EEB";
paths = (
{
closed = 1;
nodes = (
"173 0 LINE",
"268 0 LINE",
"268 500 LINE",
"173 500 LINE"
);
},
{
closed = 1;
nodes = (
"115 202 LINE",
"115 449 LINE",
"73 407 LINE",
"214 407 LINE",
"214 461 OFFCURVE",
"178 500 OFFCURVE",
"125 500 CURVE SMOOTH",
"123 500 LINE",
"121 500 LINE SMOOTH",
"60 500 OFFCURVE",
"20 461 OFFCURVE",
"20 407 CURVE SMOOTH",
"20 202 LINE"
);
},
{
closed = 1;
nodes = (
"20 93 LINE SMOOTH",
"20 39 OFFCURVE",
"60 0 OFFCURVE",
"121 0 CURVE SMOOTH",
"148 0 LINE",
"208 93 LINE",
"73 93 LINE",
"115 51 LINE",
"115 258 LINE",
"20 258 LINE"
);
},
{
closed = 1;
nodes = (
"173 0 LINE",
"292 0 LINE",
"282 93 LINE",
"173 93 LINE"
);
},
{
closed = 1;
nodes = (
"132 624 OFFCURVE",
"101 621 OFFCURVE",
"87 604 CURVE",
"87 533 LINE",
"100 553 OFFCURVE",
"128 556 OFFCURVE",
"153 543 CURVE SMOOTH",
"181 527 OFFCURVE",
"212 529 OFFCURVE",
"225 548 CURVE",
"225 619 LINE",
"214 598 OFFCURVE",
"185 595 OFFCURVE",
"159 609 CURVE SMOOTH"
);
}
);
width = 312;
},
{
layerId = "E6A807D2-02F5-45B7-9AC8-B5230FFEC057";
paths = (
{
closed = 1;
nodes = (
"352 500 LINE",
"216 500 LINE",
"216 0 LINE",
"352 0 LINE"
);
},
{
closed = 1;
nodes = (
"270 133 LINE",
"112 133 LINE",
"156 91 LINE",
"156 251 LINE",
"20 251 LINE",
"20 143 LINE SMOOTH",
"20 41 OFFCURVE",
"61 0 OFFCURVE",
"164 0 CURVE SMOOTH",
"180 0 LINE"
);
},
{
closed = 1;
nodes = (
"276 456 OFFCURVE",
"233 500 OFFCURVE",
"169 500 CURVE SMOOTH",
"160 500 LINE SMOOTH",
"60 500 OFFCURVE",
"20 459 OFFCURVE",
"20 357 CURVE SMOOTH",
"20 249 LINE",
"156 249 LINE",
"156 412 LINE",
"111 367 LINE",
"276 367 LINE",
"276 391 LINE SMOOTH"
);
},
{
closed = 1;
nodes = (
"216 0 LINE",
"372 0 LINE",
"362 133 LINE",
"216 133 LINE"
);
},
{
closed = 1;
nodes = (
"163 637 OFFCURVE",
"115 634 OFFCURVE",
"99 613 CURVE",
"99 527 LINE",
"114 551 OFFCURVE",
"158 555 OFFCURVE",
"188 539 CURVE SMOOTH",
"222 520 OFFCURVE",
"270 522 OFFCURVE",
"285 545 CURVE",
"285 631 LINE",
"272 606 OFFCURVE",
"227 602 OFFCURVE",
"196 619 CURVE SMOOTH"
);
}
);
width = 392;
}
);
unicode = 00E3;
},
{
glyphname = ae;
lastChange = "2020-11-22 23:16:30 +0000";
layers = (
{
layerId = "A98666DC-4638-42B6-8332-BBF4982DF0EF";
paths = (
{
closed = 1;
nodes = (
"173 0 LINE",
"246 0 LINE",
"238 53 LINE",
"173 53 LINE"
);
},
{
closed = 1;
nodes = (
"289 -4 LINE SMOOTH",
"358 -4 OFFCURVE",
"394 32 OFFCURVE",
"394 100 CURVE SMOOTH",
"394 148 LINE",
"341 148 LINE",
"341 120 OFFCURVE",
"341 128 OFFCURVE",
"341 100 CURVE SMOOTH",
"341 59 OFFCURVE",
"331 49 OFFCURVE",
"289 49 CURVE SMOOTH",
"240 49 OFFCURVE",
"332 49 OFFCURVE",
"283 49 CURVE",
"283 -4 LINE"
);
},
{
closed = 1;
nodes = (
"283 49 LINE",
"234 49 OFFCURVE",
"327 49 OFFCURVE",
"278 49 CURVE SMOOTH",
"236 49 OFFCURVE",
"226 59 OFFCURVE",
"226 100 CURVE SMOOTH",
"226 128 OFFCURVE",
"226 206 OFFCURVE",
"226 234 CURVE",
"173 234 LINE",
"173 100 LINE SMOOTH",
"173 32 OFFCURVE",
"209 -4 OFFCURVE",
"278 -4 CURVE SMOOTH",
"283 -4 LINE"
);
},
{
closed = 1;
nodes = (
"283 451 LINE",
"332 451 OFFCURVE",
"240 451 OFFCURVE",
"289 451 CURVE SMOOTH",
"331 451 OFFCURVE",
"341 441 OFFCURVE",
"341 400 CURVE SMOOTH",
"341 372 OFFCURVE",
"341 268 OFFCURVE",
"341 234 CURVE",
"394 234 LINE",
"394 400 LINE SMOOTH",
"394 468 OFFCURVE",
"358 504 OFFCURVE",
"289 504 CURVE SMOOTH",
"283 504 LINE"
);
},
{
closed = 1;
nodes = (
"278 504 LINE SMOOTH",
"209 504 OFFCURVE",
"173 468 OFFCURVE",
"173 400 CURVE SMOOTH",
"173 234 LINE",
"226 234 LINE",
"226 262 OFFCURVE",
"226 372 OFFCURVE",
"226 400 CURVE SMOOTH",
"226 441 OFFCURVE",
"236 451 OFFCURVE",
"278 451 CURVE SMOOTH",
"327 451 OFFCURVE",
"234 451 OFFCURVE",
"283 451 CURVE",
"283 504 LINE"
);
},
{
closed = 1;
nodes = (
"226 261 LINE",
"226 208 LINE",
"394 208 LINE",
"394 261 LINE"
);
},
{
closed = 1;
nodes = (
"73 206 LINE",
"73 284 OFFCURVE",
"73 343 OFFCURVE",
"73 421 CURVE SMOOTH",
"73 445 OFFCURVE",
"79 451 OFFCURVE",
"103 451 CURVE SMOOTH",
"147 451 OFFCURVE",
"172 451 OFFCURVE",
"216 451 CURVE",
"216 465 OFFCURVE",
"174 504 OFFCURVE",
"123 504 CURVE SMOOTH",
"57 504 OFFCURVE",
"20 472 OFFCURVE",
"20 411 CURVE SMOOTH",
"20 206 LINE"
);
},
{
closed = 1;
nodes = (
"20 93 LINE SMOOTH",
"20 39 OFFCURVE",
"60 0 OFFCURVE",
"121 0 CURVE SMOOTH",
"150 0 LINE",
"198 53 LINE",
"160 53 OFFCURVE",
"141 53 OFFCURVE",
"103 53 CURVE SMOOTH",
"79 53 OFFCURVE",
"73 59 OFFCURVE",
"73 83 CURVE SMOOTH",
"73 148 OFFCURVE",
"73 193 OFFCURVE",
"73 258 CURVE",
"20 258 LINE"
);
},
{
closed = 1;
nodes = (
"173 0 LINE",
"226 0 LINE",
"226 500 LINE",
"173 500 LINE"
);
},
{
closed = 1;
nodes = (
"173 0 LINE",
"246 0 LINE",
"238 53 LINE",
"173 53 LINE"
);
}
);
width = 414;
},
{
layerId = "83682BA5-5A7B-4081-8B26-D550B6F33EEB";
paths = (
{
closed = 1;
nodes = (
"173 0 LINE",
"268 0 LINE",
"268 500 LINE",
"173 500 LINE"
);
},
{
closed = 1;
nodes = (
"115 202 LINE",
"115 449 LINE",
"73 407 LINE",
"214 407 LINE",
"214 461 OFFCURVE",
"178 500 OFFCURVE",
"125 500 CURVE SMOOTH",
"123 500 LINE",
"121 500 LINE SMOOTH",
"60 500 OFFCURVE",
"20 461 OFFCURVE",
"20 407 CURVE SMOOTH",
"20 202 LINE"
);
},
{
closed = 1;
nodes = (
"20 93 LINE SMOOTH",
"20 39 OFFCURVE",
"60 0 OFFCURVE",
"121 0 CURVE SMOOTH",
"148 0 LINE",
"208 93 LINE",
"73 93 LINE",
"115 51 LINE",
"115 258 LINE",
"20 258 LINE"
);
},
{
closed = 1;
nodes = (
"173 0 LINE",
"292 0 LINE",
"282 93 LINE",
"173 93 LINE"
);
},
{
closed = 1;
nodes = (
"329 0 LINE SMOOTH",
"385 0 OFFCURVE",
"423 37 OFFCURVE",
"423 93 CURVE SMOOTH",
"423 152 LINE",
"328 152 LINE",
"328 51 LINE",
"372 93 LINE",
"291 93 LINE",
"291 0 LINE"
);
},
{
closed = 1;
nodes = (
"305 93 LINE",
"224 93 LINE",
"268 51 LINE",
"268 249 LINE",
"173 249 LINE",
"173 93 LINE SMOOTH",
"173 37 OFFCURVE",
"211 0 OFFCURVE",
"267 0 CURVE SMOOTH",
"305 0 LINE"
);
},
{
closed = 1;
nodes = (
"291 407 LINE",
"372 407 LINE",
"328 449 LINE",
"328 284 LINE",
"423 284 LINE",
"423 407 LINE SMOOTH",
"423 463 OFFCURVE",
"385 500 OFFCURVE",
"329 500 CURVE SMOOTH",
"291 500 LINE"
);
},
{
closed = 1;
nodes = (
"267 500 LINE SMOOTH",
"211 500 OFFCURVE",
"173 463 OFFCURVE",
"173 407 CURVE SMOOTH",
"173 191 LINE",
"268 191 LINE",
"268 449 LINE",
"224 407 LINE",
"305 407 LINE",
"305 500 LINE"
);
},
{
closed = 1;
nodes = (
"173 288 LINE",
"173 195 LINE",
"423 195 LINE",
"423 288 LINE"
);
}
);
width = 443;
},
{
layerId = "E6A807D2-02F5-45B7-9AC8-B5230FFEC057";
paths = (
{
closed = 1;
nodes = (
"352 500 LINE",
"216 500 LINE",
"216 0 LINE",
"352 0 LINE"
);
},
{
closed = 1;
nodes = (
"270 133 LINE",
"112 133 LINE",
"156 91 LINE",
"156 251 LINE",
"20 251 LINE",
"20 143 LINE SMOOTH",
"20 41 OFFCURVE",
"61 0 OFFCURVE",
"164 0 CURVE SMOOTH",
"180 0 LINE"
);
},
{
closed = 1;
nodes = (
"276 456 OFFCURVE",
"233 500 OFFCURVE",
"169 500 CURVE SMOOTH",
"160 500 LINE SMOOTH",
"60 500 OFFCURVE",
"20 459 OFFCURVE",
"20 357 CURVE SMOOTH",
"20 249 LINE",
"156 249 LINE",
"156 412 LINE",
"111 367 LINE",
"276 367 LINE",
"276 391 LINE SMOOTH"
);
},
{
closed = 1;
nodes = (
"216 0 LINE",
"372 0 LINE",
"362 133 LINE",
"216 133 LINE"
);
},
{
closed = 1;
nodes = (
"398 133 LINE",
"308 133 LINE",
"352 91 LINE",
"352 262 LINE",
"216 262 LINE",
"216 143 LINE SMOOTH",
"216 41 OFFCURVE",
"257 0 OFFCURVE",
"360 0 CURVE SMOOTH",
"398 0 LINE"
);
},
{
closed = 1;
nodes = (
"360 500 LINE SMOOTH",
"257 500 OFFCURVE",
"216 459 OFFCURVE",
"216 357 CURVE SMOOTH",
"216 254 LINE",
"352 254 LINE",
"352 409 LINE",
"308 367 LINE",
"398 367 LINE",
"398 500 LINE"
);
},
{
closed = 1;
nodes = (
"404 0 LINE SMOOTH",
"507 0 OFFCURVE",
"548 41 OFFCURVE",
"548 143 CURVE SMOOTH",
"548 163 LINE",
"412 163 LINE",
"412 91 LINE",
"456 133 LINE",
"366 133 LINE",
"366 0 LINE"
);
},
{
closed = 1;
nodes = (
"366 367 LINE",
"456 367 LINE",
"412 409 LINE",
"412 279 LINE",
"548 264 LINE",
"548 357 LINE SMOOTH",
"548 459 OFFCURVE",
"507 500 OFFCURVE",
"404 500 CURVE SMOOTH",
"366 500 LINE"
);
},
{
closed = 1;
nodes = (
"216 297 LINE",
"216 184 LINE",
"548 184 LINE",
"548 297 LINE"
);
}
);
width = 568;
},
{
associatedMasterId = "A98666DC-4638-42B6-8332-BBF4982DF0EF";
layerId = "4A77751A-1721-411C-9D26-212A98BDA935";
name = "Nov 22 20, 12:48";
paths = (
{
closed = 1;
nodes = (
"73 143 LINE",
"73 220 OFFCURVE",
"73 99 OFFCURVE",
"73 178 CURVE SMOOTH",
"73 202 OFFCURVE",
"79 208 OFFCURVE",
"103 208 CURVE SMOOTH",
"147 208 OFFCURVE",
"172 208 OFFCURVE",
"216 208 CURVE",
"216 222 OFFCURVE",
"174 261 OFFCURVE",
"123 261 CURVE SMOOTH",
"57 261 OFFCURVE",
"20 229 OFFCURVE",
"20 168 CURVE SMOOTH",
"20 143 LINE"
);
},
{
closed = 1;
nodes = (
"20 93 LINE SMOOTH",
"20 39 OFFCURVE",
"60 0 OFFCURVE",
"121 0 CURVE SMOOTH",
"150 0 LINE",
"198 53 LINE",
"160 53 OFFCURVE",
"141 53 OFFCURVE",
"103 53 CURVE SMOOTH",
"79 53 OFFCURVE",
"73 59 OFFCURVE",
"73 83 CURVE SMOOTH",
"73 148 OFFCURVE",
"73 243 OFFCURVE",
"73 168 CURVE",
"20 168 LINE"
);
},
{
closed = 1;
nodes = (
"173 0 LINE",
"246 0 LINE",
"238 53 LINE",
"173 53 LINE"
);
},
{
closed = 1;
nodes = (
"289 -4 LINE SMOOTH",
"358 -4 OFFCURVE",
"394 32 OFFCURVE",
"394 100 CURVE SMOOTH",
"394 148 LINE",
"341 148 LINE",
"341 120 OFFCURVE",
"341 128 OFFCURVE",
"341 100 CURVE SMOOTH",
"341 59 OFFCURVE",
"331 49 OFFCURVE",
"289 49 CURVE SMOOTH",
"240 49 OFFCURVE",
"332 49 OFFCURVE",
"283 49 CURVE",
"283 -4 LINE"
);
},
{
closed = 1;
nodes = (
"283 49 LINE",
"234 49 OFFCURVE",
"327 49 OFFCURVE",
"278 49 CURVE SMOOTH",
"236 49 OFFCURVE",
"226 59 OFFCURVE",
"226 100 CURVE SMOOTH",
"226 128 OFFCURVE",
"226 206 OFFCURVE",
"226 234 CURVE",
"173 234 LINE",
"173 100 LINE SMOOTH",
"173 32 OFFCURVE",
"209 -4 OFFCURVE",
"278 -4 CURVE SMOOTH",
"283 -4 LINE"
);
},
{
closed = 1;
nodes = (
"283 451 LINE",
"332 451 OFFCURVE",
"240 451 OFFCURVE",
"289 451 CURVE SMOOTH",
"331 451 OFFCURVE",
"341 441 OFFCURVE",
"341 400 CURVE SMOOTH",
"341 372 OFFCURVE",
"341 268 OFFCURVE",
"341 234 CURVE",
"394 234 LINE",
"394 400 LINE SMOOTH",
"394 468 OFFCURVE",
"358 504 OFFCURVE",
"289 504 CURVE SMOOTH",
"283 504 LINE"
);
},
{
closed = 1;
nodes = (
"278 504 LINE SMOOTH",
"209 504 OFFCURVE",
"173 468 OFFCURVE",
"173 400 CURVE SMOOTH",
"173 234 LINE",
"226 234 LINE",
"226 262 OFFCURVE",
"226 372 OFFCURVE",
"226 400 CURVE SMOOTH",
"226 441 OFFCURVE",
"236 451 OFFCURVE",
"278 451 CURVE SMOOTH",
"327 451 OFFCURVE",
"234 451 OFFCURVE",
"283 451 CURVE",
"283 504 LINE"
);
},
{
closed = 1;
nodes = (
"226 261 LINE",
"226 208 LINE",
"394 208 LINE",
"394 261 LINE"
);
},
{
closed = 1;
nodes = (
"97 451 LINE",
"146 451 OFFCURVE",
"72 451 OFFCURVE",
"121 451 CURVE SMOOTH",
"163 451 OFFCURVE",
"173 441 OFFCURVE",
"173 400 CURVE SMOOTH",
"173 372 OFFCURVE",
"173 262 OFFCURVE",
"173 234 CURVE",
"226 234 LINE",
"226 400 LINE SMOOTH",
"226 468 OFFCURVE",
"190 504 OFFCURVE",
"121 504 CURVE SMOOTH",
"97 504 LINE"
);
},
{
closed = 1;
nodes = (
"125 504 LINE SMOOTH",
"56 504 OFFCURVE",
"20 468 OFFCURVE",
"20 400 CURVE SMOOTH",
"20 312 LINE",
"73 312 LINE",
"73 346 OFFCURVE",
"73 372 OFFCURVE",
"73 400 CURVE SMOOTH",
"73 441 OFFCURVE",
"83 451 OFFCURVE",
"125 451 CURVE SMOOTH",
"174 451 OFFCURVE",
"82 451 OFFCURVE",
"131 451 CURVE",
"131 504 LINE"
);
}
);
width = 414;
}
);
unicode = 00E6;
},
